<?xml version="1.0" encoding="UTF-8"?>
<svg id="svg2" width="60" height="50" version="1.1" viewBox="0 0 60 50" xml:space="preserve" xmlns="http://www.w3.org/2000/svg"><g id="g10" transform="matrix(1.3333 0 0 -1.3333 0 50)"><g id="g4626" transform="matrix(.10483 0 0 .10483 -20.71 -15.05)" fill="#b3b3b3"><path id="path12" transform="matrix(.75 0 0 -.75 0 595.28)" d="m399.39 157.9c-73.639 42.758-115.21 118.18-114.62 198.35 16.631 1.1875 34.447-2.3756 48.697 2.9688 2.9707 25.538 4.1602 51.669 16.039 73.047 42.16 89.081 135.4 125.9 229.82 118.78 79.578-7.1276 160.93-67.708 182.91-146.09 5.349-13.068 1.7819-30.284 8.9082-42.76h46.916c1.1849-82.547-39.79-153.81-109.87-200.13-11.879 12.469-17.218 28.507-31.475 38.602-68.887-45.727-175.78-42.759-245.86-2.9668-13.063-12.475-20.782-27.917-31.473-39.793zm137.19 20.191c-50.482 43.351-55.827 111.06-61.766 175.79l-58.197-1.7793c4.7461-62.95 24.944-127.09 84.33-161.53 11.283-5.9414 22.565-10.691 35.633-12.473zm13.066 0c3.5573 58.2-1.1908 116.99-1.7871 175.79h-59.98c5.345-65.326 5.3457-137.18 61.768-175.79zm11.279 1.1895c29.098 11.876 33.853 44.542 42.758 70.074 5.3451 34.445 13.068 67.701 10.102 105.71h-54.047c0-57.013-1.1888-119.96 1.1875-175.78zm11.285 0c50.475 11.284 90.266 62.354 101.55 109.87 5.349 21.378 7.7253 43.348 8.9141 65.916h-55.824c-2.3776-65.326-5.9427-131.24-54.637-175.78zm-58.797 1.1855c-73.638 24.349-102.74 102.15-108.08 171.63l-60.576-1.1914c1.7819-58.79 39.792-111.06 89.082-141.34 24.943-14.256 50.477-25.536 79.576-29.102zm77.205 0c59.98 9.5046 120.56 47.508 149.06 103.33 8.9062 23.162 19.008 45.132 17.223 72.451h-61.762c-3.5664-71.267-31.473-147.87-104.52-175.79zm-245.86 181.72 60.576 1.7871c1.1868 69.476 29.694 138.37 95.615 171.03-59.386-8.9088-121.15-57.606-146.09-118.17zm71.861 1.7871h57.012c3.5638 64.726 8.9056 130.05 55.822 175.78-54.638-8.3125-89.674-67.7-104.52-114.61zm73.043 0 58.199 1.1816-2.9707 175.79c-33.254-12.474-39.788-51.077-48.1-81.363-5.9388-30.88-11.878-62.947-7.1289-95.605zm68.295 1.1816h54.635c-2.97 62.357-5.3386 130.06-52.852 174.6h-2.9688zm70.076 0 54.641 1.1894c-3.5638 67.701-30.288 134.81-93.242 167.47l-21.377 5.9394c45.134-45.128 55.227-107.49 57.014-171.63zm65.922 1.1894 62.949 1.7793c-1.1901 63.544-48.1 119.96-103.33 149.65-20.792 8.9141-41.572 17.82-65.328 20.195 70.081-27.32 103.33-100.37 105.71-171.63z"/><path id="path14" d="m324.04 469.28 4.4546 1.3374-5.3467-3.564c0 3.564-6.6792 8.0166-1.335 9.7988-2.2251-2.2261 0-5.7891 2.227-7.5723z"/><path id="path16" d="m336.06 472.4h-2.2261v4.4526c1.3374-0.89013 1.7832-2.6704 2.2261-4.4526z"/><path id="path18" d="m339.18 468.39v2.2241h3.1186z"/><path id="path20" d="m494.63 470.62 4.456-1.3374z"/><path id="path22" d="m331.61 466.16c-2.2256-0.89209-4.4526-2.2251-6.2339-3.1196l5.3452 4.0098z"/><path id="path50" d="m317.72 474.87 27.089 13 9.4839-19.761-2.8115-1.3501-0.42383 0.8833-21.466-10.301 0.42383-0.88183-2.812-1.3501-9.4834 19.762m3.6372-0.37061 7.4092-15.439 21.498 10.317-7.4092 15.438-21.498-10.316m18.52-4.7881c-1.77 1.3926-3.3525 3.1943-4.7441 5.4028-0.11279 0.18115-0.26025 0.40869-0.44385 0.68213l-10.154-4.8726-0.81543 1.6978 10.062 4.8276-0.85742 1.7871 2.6245 1.2588 0.85791-1.7876 6.561 3.1494 0.81543-1.6978-6.5312-3.1338c1.3096-2.1953 2.4922-3.7241 3.5498-4.5918 0.0186 0.22559 0.0454 0.41162 0.0801 0.55469 0.31689 1.7422 0.44629 3.1523 0.3916 4.23-0.0225 0.20654-0.0342 0.47217-0.0361 0.79736l2.6113 0.0859c-0.0186-2.6855-0.33106-5.1069-0.93799-7.2607 1.1894-0.71436 1.9712-0.98145 2.3452-0.80029 0.27149 0.12842 0.29981 1.1929 0.0845 3.1885l2.6978-0.17236c0.0312-1.7217-0.11328-2.9302-0.43262-3.626-0.31933-0.69531-0.8125-1.2036-1.479-1.5239-1.021-0.49072-2.4458-0.2959-4.2764 0.58008-0.10986-0.25293-0.19189-0.45411-0.24658-0.60743-0.43262-1.0762-0.99658-2.1694-1.6929-3.2817l-2.6362 0.52636 0.80761 1.1196c0.36573 0.52002 0.62842 0.96192 0.78614 1.3272-2.0449-1.5064-5.1382-3.5522-9.2798-6.1348l-1.3579 1.6274c3.9077 2.1108 7.3237 4.229 10.25 6.3569l0.65674-1.3672 0.74121 1.6582m-13.792 0.46289 7.7808 3.7329 2.4126-5.0278-7.7798-3.7329-2.4136 5.0278m6.189 1.0434-3.0938-1.4839 0.91015-1.8975 3.0938 1.4844-0.91015 1.897m7.5376 9.1255c-0.14013 0.0776-0.24853 0.14356-0.32617 0.19678-0.79687 0.48535-1.4394 0.7832-1.9277 0.89355l-0.25049 0.0415 1.8921 1.5049c0.47363-0.0796 0.90674-0.20654 1.2978-0.38086l1.3091-0.56445-1.9946-1.6914z"/><path id="path52" d="m367.58 489.9c1.9917 1.6582 3.3545 3.79 4.0894 6.4004l2.7632 0.35156-0.39843-1.2192 4.9688 1.1279c0.22656-0.26562 0.40576-0.48389 0.54052-0.65478 1.1606-1.3579 2.4097-2.4209 3.7446-3.1885 0.125 0.1792 0.23291 0.32861 0.32471 0.45117 0.5415 0.74023 1.021 1.603 1.4375 2.584l0.11523 0.27784-3.9209-0.89014-0.42286 1.8594 7.1323 1.6201 0.38379-1.6943c-0.55225-1.8477-1.5137-3.6123-2.8838-5.2964l0.35351-0.14453c1.2026-0.49756 2.8711-0.9126 5.0103-1.2466l-1.207-2.356c-0.15039 0.0332-0.27246 0.0557-0.37061 0.0674-1.3428 0.2793-2.6411 0.67871-3.8965 1.1968l0.25439-1.1211-10.139-2.3037-0.26562 1.169-1.7954-1.6372c-0.67334-0.58886-1.2808-1.0864-1.8276-1.4946l-2.5601 1.0991c0.30762 0.20459 0.55615 0.36132 0.74561 0.46972 1.0957 0.70069 2.0059 1.3926 2.7266 2.0747 0.0566 0.0635 0.14551 0.14307 0.26611 0.23633l-1.334 0.39941-1.3032 0.25586 1.3447 1.4346 1.4204-0.30469 1.2285-0.39795 0.59033 0.68555 0.45508 0.65576-1.3862 0.31348c-0.35157 0.0859-0.72217 0.15185-1.1108 0.19824-0.0718 0-0.18164 9e-3 -0.32569 0.0254l1.0122 1.4863 1.4316-0.20312c0.2959-0.0498 0.58301-0.11866 0.86475-0.20508 0.0772-0.0327 0.19336-0.0723 0.34717-0.12012l0.48291 1.1616 0.28955 1.0693-3.6167-0.82129c-1.0596-2.0127-2.4424-3.6914-4.1514-5.0327l-1.4624 1.2744-0.82227-3.4233c0.11524-0.0913 0.21582-0.16895 0.30225-0.23242 2.1372-1.5894 3.3579-3.0508 3.6616-4.3853 0.43017-1.8945-0.79688-3.1685-3.6797-3.8228l-0.57471-0.13086c-0.0459-0.0103-0.12695-0.021-0.24365-0.0293l-1.2407 2.0249c0.11963-5e-3 0.21338-1e-3 0.28174 0.0142 0.49023 0.0269 0.92822 0.0859 1.3105 0.17334 1.1484 0.26026 1.6426 0.74952 1.4805 1.4653-0.11523 0.50781-0.58007 1.1968-1.394 2.0664-0.81396 0.86768-1.6885 1.5894-2.624 2.1626 0.58935 1.8906 1.0454 3.791 1.3691 5.7046 0.0351 0.25781 0.0918 0.58838 0.16553 0.9917l-3.5479-0.80567 4.3799-19.276-2.873-0.65284-4.7925 21.089 9.227 2.0957 0.31396-1.3828-0.26074-1.5156c-0.1206-0.61231-0.19726-1.0068-0.22851-1.1807-0.0308-0.17383-0.0845-0.36181-0.15576-0.56347m10.108-9.1406c-1.4502-2.2715-3.2876-4.3013-5.5088-6.0957l-2.7407 1.1094c2.6904 2.1328 4.5298 3.9395 5.522 5.418l2.7275-0.43164m6.0239-1.6431 0.0703-0.30957c0.1958-0.85742 0.0933-1.5342-0.3042-2.0268-0.39746-0.49072-1.3852-0.91553-2.9614-1.2739l-2.1631-0.49072-1.2368 2.0005 2.5913 0.48926c0.76563 0.17382 1.0923 0.50781 0.98047 1l-0.958 4.2222-7.8418-1.7822-0.43897 1.9336 18.992 4.3154 0.43897-1.9341-8.144-1.8491 0.9751-4.2944m-4.7324 14.102c-0.40381-2.082-1.3809-3.8755-2.9341-5.3823l7.9761 1.811c-1.7256 0.61132-3.4067 1.8027-5.042 3.5713m12.255-14.198c-1.2466 0.68701-2.3564 1.2383-3.3272 1.6533l-3.3203 1.477 2.0259 1.5635c2.4194-0.73877 4.5767-1.6357 6.4756-2.6929z"/><path id="path54" d="m412.02 497.04-0.54443 0.71582 2.5024 0.53223c0.1582-0.21338 0.29394-0.38574 0.40918-0.51807 0.66016-0.84082 1.3037-1.8686 1.9356-3.0825l0.17089-0.37012-2.8525-0.67285-0.2002 0.56592-0.16602 0.51514c-0.39355-0.0601-0.71972-0.11328-0.97265-0.16065-2.4087-0.40966-5.1865-0.77392-8.332-1.0928-0.46338-0.0435-1.0415-0.10156-1.7354-0.17383l-0.73487 2.1128 1.1426 0.0342 1.0064 0.0361 0.0576 4.6728c4.6684 0.15332 8.4043 0.53955 11.209 1.1572l1.6084-1.71c-3.1504-0.56298-6.377-0.92285-9.6836-1.0762l-0.0356-2.8389 2.7075 0.28564 2.9502 0.37891-0.44238 0.68896m2.3272-16.201c-3.4995-0.85205-7.3896-1.439-11.666-1.7612l-1.083 2.0454c4.5317 0.23633 8.29 0.67822 11.278 1.3262l1.4707-1.6104m15.201 1.5723-24.535 0.30665 0.13038 10.494 24.536-0.30664-0.13184-10.494m-21.395 2.0537 18.298-0.22901 0.0195 1.4673-18.298 0.229-0.019-1.4673m0.0361 2.9102 18.298-0.229 0.0176 1.3467-18.298 0.229-0.0171-1.3467m18.349 3.7832-18.296 0.229-0.0161-1.2232 18.295-0.229 0.0166 1.2232m5.5586 9.4233c-0.0908-1.7598-0.21191-3.2095-0.36621-4.3491-0.0107-0.88183-0.33008-1.5156-0.95899-1.898-0.62792-0.3833-1.9834-0.56298-4.0615-0.53515-0.64746 7e-3 -1.1309 0.0288-1.4551 0.0674l-0.66797 2.0142c0.60059-0.0742 1.4775-0.11719 2.6328-0.13086 0.76172-0.0107 1.2207 0.13086 1.374 0.42188 0.15332 0.29297 0.25098 0.71972 0.29297 1.2812 0.041 0.56299 0.0752 0.97265 0.10351 1.2344l-4.2978 0.0532c-0.36523-1.4941-1.0439-2.5996-2.0342-3.3125-0.99218-0.71435-2.4717-1.3364-4.4434-1.8647l-1.71 1.7817c3.127 0.63037 4.874 1.7739 5.2402 3.4336l-4.5039 0.0566 0.0244 1.9321 14.831-0.18603m-0.3418-21.892c-4.0098 0.8169-7.3662 1.3965-10.063 1.7393-0.50879 0.0566-1.2012 0.14649-2.0772 0.27197l1.3037 1.6963c4.5225-0.43213 8.4805-0.98633 11.867-1.665z"/><path id="path56" d="m442.99 486.29c4.2188-0.1709 7.4844 0.23242 9.794 1.207l-5.3467 1.3223 2.1894 8.8589 24.123-5.9678-2.1904-8.8589-14.735 3.647-1.1816-0.59082c-0.32324-0.15674-0.68164-0.30322-1.0742-0.44092-0.0752-0.0132-0.17871-0.0483-0.30957-0.0996l18.469-4.5679c-0.70313-2.5508-1.3672-4.5942-1.9971-6.1333-0.63477-1.5415-1.46-2.4883-2.4863-2.8379-1.0303-0.35107-2.8213-0.20996-5.376 0.42188-0.91992 0.22754-1.4814 0.37549-1.6768 0.44092l-0.47559 2.4106c0.88184-0.28564 2.0381-0.60596 3.4746-0.96045 1.0772-0.26709 1.8662-0.20215 2.3691 0.19434 0.50293 0.39795 1.3018 2.2246 2.3936 5.4824l-2.3242 0.57324c-1.1338-1.2144-2.7422-2.2285-4.8213-3.0405-2.0811-0.81299-4.5146-1.3398-7.3018-1.583-2.7852-0.24219-4.5576-0.27002-5.3193-0.082l-1.4932 2.3345c4.2471-0.14307 7.4756 0.0361 9.6816 0.54052 2.208 0.50489 4.1602 1.395 5.8584 2.6724l-3.7686 0.93164c-1.7695-0.99024-3.6904-1.665-5.7676-2.0264-2.0762-0.35986-4.9424-0.51709-8.5967-0.46875l-1.3408 2.373c5.2783-0.31494 9.2598 0.0537 11.949 1.1016l-4.8115 1.1899c-1.5176-0.26318-3.667-0.4375-6.4492-0.52148l-1.458 2.4775m8.1699 3.5747 17.593-4.353 0.45117 1.8286-17.594 4.3525-0.45019-1.8281m18.874 0.82471-17.597 4.3525-0.40332-1.6392 17.594-4.3525z"/><path id="path58" d="m491.08 476.59 22.687-10.799-0.12695-0.26562c-1.3887-2.9146-2.542-5.1509-3.4619-6.7095-0.92285-1.5581-1.7725-2.5654-2.5518-3.0254-0.72559-0.39453-1.4766-0.55761-2.248-0.48877-0.77539 0.0718-2.3896 0.6919-4.8516 1.8628l-0.3457 0.16357-0.0615 0.0312 0.0176 2.457c0.72949-0.40332 1.419-0.75781 2.0664-1.0659l0.65722-0.31152c0.19336-0.0742 0.33008-0.13281 0.417-0.17236 1.2705-0.60596 2.3281-0.43067 3.1641 0.5249 0.84082 0.95606 1.916 2.8101 3.2275 5.5635l0.3789 0.7959 0.0615 0.13232-19.936 9.4868c-2.1758-3.6049-4.9551-6.436-8.3399-8.4912l-1.5049 2.8022c2.3145 1.2642 4.0869 2.773 5.3193 4.5254 1.2295 1.7529 2.4014 3.7935 3.5098 6.1211l2.71 5.6978 24.66-11.736-2.7441-5.7646-21.874 10.41-0.83008-1.7441m0.74805-4.4746 13.832-6.585-2.8721-6.0298-13.829 6.5845 2.8691 6.0303m10.164-7.1133-8.2598 3.9326-1.1055-2.3213 8.2607-3.9307 1.1045 2.3193m-9.1768 15.233 19.089-9.0859 0.93652 1.9648-19.092 9.0874z"/><path id="path60" d="m238 315.39 2.1758-10.131c0.43067-2.0044 0.65723-3.521 0.68213-4.5459 0.0239-1.0264-0.17773-1.9917-0.60644-2.8975-0.42822-0.90576-1.0801-1.7236-1.9595-2.456-0.87842-0.73047-1.9321-1.2285-3.1606-1.4922-1.3335-0.28711-2.6235-0.22851-3.874 0.16992-1.25 0.40039-2.271 1.0869-3.062 2.0596-0.17725-1.6494-0.79004-3.0186-1.8354-4.1104-1.0464-1.0908-2.396-1.8144-4.0503-2.1709-1.3022-0.27832-2.626-0.28222-3.9717-0.0117-1.3462 0.27247-2.4868 0.792-3.4214 1.5615-0.93506 0.76953-1.6333 1.8164-2.0947 3.1387-0.2876 0.83008-0.79492 2.8735-1.5205 6.1284l-1.8525 8.6245 28.551 6.1328m-14.954-8.5659-7.6494-1.6426 1.0176-4.7402c0.396-1.8438 0.70557-3.0015 0.92969-3.4727 0.31934-0.72705 0.83301-1.2651 1.541-1.6138 0.70703-0.34864 1.5688-0.41504 2.5835-0.19629 0.8584 0.18457 1.5469 0.52539 2.0659 1.0234 0.51904 0.49756 0.84082 1.1245 0.96484 1.8814 0.12256 0.75635-0.0659 2.2993-0.56591 4.6284l-0.88721 4.1323m11.312 2.4316-6.5723-1.4121 0.72265-3.3628c0.4292-1.9971 0.72803-3.2334 0.89649-3.7036 0.30517-0.85401 0.79199-1.4707 1.4629-1.853 0.66943-0.38232 1.4639-0.4751 2.3823-0.27734 0.87891 0.18994 1.5459 0.55957 2.0024 1.1108 0.45557 0.55127 0.65088 1.2661 0.58399 2.147-0.0459 0.52197-0.32666 1.9907-0.84571 4.4048z"/><path id="path62" d="m243.38 291.67 1.8852-4.8828-14.803-5.7129c-2.3496-0.90625-3.8491-1.5527-4.4985-1.9434-1.0391-0.63868-1.7456-1.4805-2.1211-2.5215-0.37647-1.043-0.30225-2.2422 0.22119-3.5976 0.53125-1.377 1.252-2.291 2.1616-2.7442 0.91016-0.45312 1.8589-0.57031 2.8457-0.35156 0.98682 0.2168 2.562 0.74219 4.7241 1.5781l15.12 5.834 1.8848-4.8828-14.335-5.5312c-3.2769-1.2656-5.6426-2.0273-7.0967-2.2852-1.4536-0.25781-2.7837-0.21679-3.9868 0.13282-1.2036 0.34765-2.3105 1.0058-3.3198 1.9785-1.0088 0.9707-1.8818 2.4102-2.6182 4.3184-0.88916 2.3008-1.2617 4.1641-1.1191 5.584 0.14209 1.4219 0.56153 2.6641 1.2573 3.7266 0.69531 1.0625 1.5273 1.9062 2.498 2.5332 1.4414 0.92188 3.6885 1.9707 6.7422 3.1504z"/><path id="path64" d="m227.1 254.5 25.315 14.555 5.4663-9.5059c1.3745-2.3887 2.145-4.2578 2.313-5.6016 0.16797-1.3457-0.14258-2.6777-0.93261-3.9961-0.78907-1.3203-1.9316-2.4121-3.4287-3.2715-1.9009-1.0957-3.7529-1.5059-5.5547-1.2402-1.8018 0.26757-3.4248 1.2852-4.8677 3.0508-0.0874-1.3398-0.33594-2.5488-0.74267-3.623-0.40772-1.0742-1.2871-2.7129-2.6382-4.9141l-3.3672-5.5664-3.0737 5.3496 3.644 6.4492c1.2876 2.291 2.0635 3.7949 2.3262 4.5156 0.26172 0.72265 0.34961 1.377 0.26221 1.9668-0.0869 0.58789-0.4292 1.4043-1.0278 2.4434l-0.52832 0.91992-10.556-6.0723-2.6094 4.541m17.225 3.8652 1.9111-3.3223c1.2388-2.1562 2.1152-3.4434 2.6313-3.8594 0.51367-0.41797 1.1108-0.63477 1.7905-0.64844 0.6792-0.01 1.398 0.19922 2.1548 0.63281 0.84814 0.49024 1.4189 1.082 1.7114 1.7852 0.2915 0.69922 0.29688 1.4531 0.0166 2.2598-0.15332 0.39844-0.75244 1.5078-1.7998 3.3281l-2.0151 3.502z"/><path id="path66" d="m241.91 230.02 22.98 18.02 11.832-15.086-3.9028-3.0625-8.6011 10.967-5.0737-3.9766 7.9902-10.189-3.9024-3.0566-7.9897 10.189-6.1997-4.8633 8.9072-11.361-3.9019-3.0566z"/><path id="path68" d="m275.49 193.21-4.063 3.916 2.98 6.3105-7.4814 7.207-6.1191-3.2852-4.0449 3.8984 27.484 14.07 4.0278-3.8809-12.783-28.236m1.1094 14.998 4.9092 10.27-9.9946-5.3691z"/><path id="path70" d="m296.74 213.66 4.2417-3.0664-9.2978-12.859c-1.4756-2.0391-2.3804-3.3984-2.7129-4.0781-0.52198-1.1016-0.65674-2.1934-0.40381-3.2695 0.25341-1.082 0.96875-2.0469 2.146-2.8984 1.1958-0.86328 2.2983-1.2383 3.3081-1.123 1.0093 0.11719 1.8682 0.53515 2.5781 1.2539 0.7085 0.72461 1.7422 2.0234 3.1006 3.8984l9.4971 13.135 4.2417-3.0684-9.0044-12.451c-2.0586-2.8457-3.627-4.7734-4.7051-5.7832-1.0791-1.0078-2.2168-1.6992-3.416-2.0625-1.1982-0.36133-2.4858-0.41406-3.8613-0.14843-1.3745 0.26562-2.8906 0.99609-4.5483 2.1934-1.9995 1.4473-3.3272 2.8027-3.9824 4.0742-0.65527 1.2715-0.98047 2.5371-0.97607 3.8086 4e-3 1.2715 0.2417 2.4297 0.71484 3.4863 0.70605 1.5547 2.0186 3.6621 3.9365 6.3144z"/><path id="path72" d="m317.3 182.04c1.252 2.7109 2.6611 4.8203 4.2266 6.3281 1.1592 1.1074 2.4497 1.9863 3.8701 2.6367 1.4209 0.65039 2.8008 0.98047 4.1401 0.99219 1.7856 0.0273 3.6338-0.4043 5.5435-1.2832 3.4565-1.5996 5.6597-4.0957 6.6108-7.4844 0.95069-3.3906 0.42578-7.2539-1.5772-11.582-1.9854-4.293-4.5688-7.1797-7.749-8.6524-3.1812-1.4726-6.4936-1.4121-9.9385 0.18165-3.4883 1.6133-5.7056 4.1016-6.648 7.4648-0.94384 3.3652-0.43603 7.168 1.5215 11.398m4.9854-2.082c-1.3989-3.0274-1.8477-5.6035-1.3452-7.7305 0.50342-2.125 1.6973-3.627 3.5825-4.5 1.8838-0.86914 3.7881-0.80664 5.7129 0.17968 1.9243 0.99414 3.6045 3.0352 5.0366 6.1328 1.4155 3.0644 1.8818 5.6191 1.4023 7.668-0.47998 2.0527-1.6938 3.5254-3.6421 4.4277-1.9492 0.89844-3.873 0.86523-5.7705-0.10938-1.896-0.97265-3.5557-2.9961-4.9766-6.0684z"/><path id="path74" d="m340.03 156.4 8.7236 27.867 16.984-5.3164-1.4814-4.7324-11.989 3.7559-2.0576-6.5762 10.36-3.2441-1.4814-4.7305-10.358 3.2441-3.7041-11.832z"/><path id="path76" d="m373.26 147.49 4.1416 28.906 17.618-2.5254-0.70459-4.9062-12.435 1.7812-0.97754-6.8184 10.745-1.541-0.7041-4.9062-10.745 1.5371-1.7593-12.271z"/><path id="path78" d="m396.52 158.76c0.0513 2.9844 0.48926 5.4824 1.3115 7.4941 0.61328 1.4844 1.4375 2.8066 2.4761 3.9785 1.0371 1.166 2.167 2.0234 3.3867 2.5781 1.6226 0.74219 3.4849 1.0977 5.5894 1.0606 3.8076-0.0664 6.831-1.457 9.0703-4.1738 2.2393-2.7207 3.3164-6.4629 3.2344-11.234-0.083-4.7305-1.2812-8.4102-3.5957-11.043-2.3154-2.6328-5.3701-3.916-9.1655-3.8496-3.8428 0.0684-6.875 1.4492-9.0962 4.1465-2.2227 2.7012-3.292 6.3809-3.2109 11.043m5.4014 0.10742c-0.0566-3.334 0.57325-5.8711 1.8926-7.6152 1.3188-1.7402 3.0161-2.6289 5.0923-2.668 2.0752-0.0332 3.7935 0.78906 5.1558 2.4688 1.3604 1.6836 2.0693 4.2324 2.1299 7.6465 0.0586 3.3711-0.5459 5.8965-1.8125 7.5781-1.2676 1.6836-2.9736 2.543-5.1196 2.5781-2.1465 0.0391-3.8931-0.77149-5.2344-2.4258-1.3428-1.6562-2.0444-4.1777-2.104-7.5625z"/><path id="path80" d="m427.78 144.37-3.4024 29.002 10.89 1.2773c2.7393 0.32032 4.7598 0.29297 6.0615-0.084 1.3018-0.375 2.4033-1.1816 3.3057-2.4297 0.90234-1.248 1.4551-2.7285 1.6562-4.4434 0.25586-2.1738-0.0957-4.0391-1.0518-5.5918-0.95605-1.5488-2.5293-2.6406-4.7197-3.2715 1.1973-0.61133 2.208-1.3105 3.0352-2.1094 0.82715-0.79688 1.9863-2.2539 3.4756-4.3613l3.7891-5.2852-6.1279-0.7207-4.4902 5.8906c-1.5957 2.0859-2.6738 3.3926-3.2334 3.916-0.5586 0.52734-1.127 0.86523-1.7031 1.0176-0.57422 0.15625-1.46 0.1582-2.6514 0.0215l-1.0537-0.125 1.419-12.094-5.1982-0.60937m3.2334 17.355 3.8086 0.44531c2.4678 0.28711 3.9961 0.58789 4.583 0.89648 0.58593 0.3086 1.0205 0.77149 1.2998 1.3926 0.28028 0.61914 0.36914 1.3633 0.26758 2.2285-0.11328 0.97461-0.43555 1.7324-0.96289 2.2754-0.52832 0.54492-1.2178 0.84765-2.0723 0.90429-0.42578 0.0176-1.6807-0.0957-3.7676-0.33789l-4.0156-0.47265z"/><path id="path82" d="m455.82 148.19-7.0498 28.338 18.606 4.627 1.1982-4.8105-13.53-3.3652 1.5576-6.2559 12.565 3.127 1.1982-4.8145-12.565-3.123 1.9004-7.6504 14.01 3.4863 1.1982-4.8105z"/><path id="path84" d="m480.09 154.82-9.4629 27.627 4.9522 1.6953 9.4629-27.627z"/><path id="path86" d="m497.84 173.28-2.0596 4.5078 10.225 4.6738 4.8584-10.645c-0.49902-1.5352-1.5049-3.1484-3.0156-4.832-1.5156-1.6875-3.2402-2.9707-5.1758-3.8574-2.459-1.1211-4.874-1.5195-7.2354-1.1836-2.3623 0.33398-4.5049 1.377-6.419 3.1328-1.9121 1.7559-3.4541 3.9121-4.6211 6.4707-1.2686 2.7754-1.8809 5.4746-1.8398 8.1035 0.042 2.627 0.78809 4.9668 2.2422 7.0254 1.1055 1.5742 2.7793 2.875 5.0274 3.9004 2.9199 1.332 5.5166 1.6875 7.7891 1.0664 2.2695-0.62891 4.1953-2.0469 5.7764-4.2578l-4.2529-3.1562c-0.92774 1.1484-2.0186 1.8906-3.2793 2.2266-1.2568 0.33789-2.5684 0.1914-3.9385-0.4336-2.0732-0.94921-3.3828-2.4492-3.9228-4.5098-0.54102-2.0547-0.13867-4.5547 1.209-7.502 1.4531-3.1777 3.1611-5.2754 5.1309-6.2949 1.9658-1.0234 3.96-1.0723 5.9746-0.15234 0.99512 0.45508 1.8936 1.1328 2.6924 2.0352 0.79882 0.89843 1.416 1.8301 1.8467 2.7891l-1.5498 3.3848z"/><path id="path88" d="m518.94 171.84-15.774 24.574 4.2734 2.7422 19.49-10.695-10.551 16.438 4.081 2.6172 15.775-24.574-4.4082-2.8281-19.137 10.436 10.33-16.09z"/><path id="path90" d="m554.76 198.18-16.537 17.729-5.5606-5.1856-3.3818 3.625 14.945 13.943 3.3818-3.627-5.5576-5.1836 16.536-17.73z"/><path id="path92" d="m568.13 211.15-22.572 18.527 6.9551 8.4746c1.75 2.1309 3.2236 3.5137 4.4219 4.1445 1.1982 0.63476 2.5566 0.81445 4.0713 0.54492 1.5117-0.27148 2.9375-0.95312 4.2734-2.0527 1.6943-1.3906 2.7344-2.9746 3.123-4.7539 0.38574-1.7812 0.0107-3.6582-1.1289-5.6309 1.2842 0.38867 2.5 0.58398 3.6465 0.58398 1.1504 0 2.9961-0.24218 5.5303-0.73046l6.3955-1.1797-3.9121-4.7656-7.3213 1.125c-2.5967 0.39649-4.2812 0.58985-5.0488 0.57813-0.76758-0.01-1.4111-0.1582-1.9307-0.44922-0.51758-0.28906-1.1611-0.89648-1.9219-1.8242l-0.67187-0.82031 9.4111-7.7246-3.3203-4.0469m-9.71 14.742 2.4307 2.9648c1.5772 1.918 2.4688 3.1953 2.6797 3.8262 0.20605 0.62695 0.19629 1.2637-0.0312 1.9004-0.22754 0.64062-0.67774 1.2422-1.3535 1.7949-0.75781 0.61914-1.5146 0.94336-2.2725 0.9668-0.75781 0.0273-1.4639-0.23243-2.1211-0.78321-0.31739-0.28515-1.1406-1.2363-2.4766-2.8594l-2.5654-3.127 5.71-4.6836z"/><path id="path94" d="m597.89 253.76-2.8955-4.8418-6.8184 1.4785-5.334-8.918 4.583-5.2188-2.8828-4.8223-19.913 23.598 2.8711 4.7988 30.39-6.0742m-14.858-2.3066-11.113 2.4629 7.4873-8.5234z"/><path id="path96" d="m573.12 269.74 3.5889 8.8281c0.80957 1.9922 1.5976 3.4414 2.3652 4.3457 1.041 1.2129 2.3594 2.0781 3.9609 2.5938 1.5977 0.51563 3.3672 0.6836 5.3106 0.50586 1.9414-0.18164 4.1768-0.78711 6.7109-1.8164 2.2285-0.90625 4.0459-1.9297 5.4609-3.0742 1.7227-1.3984 2.9697-2.9004 3.7363-4.5039 0.58203-1.2148 0.84375-2.6387 0.7793-4.2734-0.0518-1.2207-0.4375-2.7226-1.165-4.5098l-3.6943-9.0898-27.054 10.994m6.5644 2.9824 17.865-7.2617 1.4639 3.5976c0.54785 1.3477 0.85742 2.3516 0.92578 3.0215 0.0967 0.87109-0.0127 1.6699-0.33008 2.4004-0.32031 0.72851-1.0156 1.502-2.0908 2.3203-1.0772 0.81445-2.6582 1.6484-4.7422 2.4941-2.0869 0.84766-3.7529 1.3359-5.0029 1.4648-1.2471 0.12695-2.3047 0.0254-3.168-0.30664-0.86133-0.33399-1.5879-0.9043-2.1768-1.7129-0.44335-0.60546-1.0644-1.8887-1.8633-3.8535z"/><path id="path98" d="m610.38 285.63-28.396 6.8164 4.4756 18.644 4.8213-1.1572-3.2539-13.554 6.2676-1.5044 3.0234 12.59 4.8213-1.1572-3.0205-12.59 7.6592-1.8408 3.3701 14.038 4.8213-1.1572z"/></g></g></svg>
