<?xml version="1.0" encoding="UTF-8"?>
<svg id="圖層_1" width="64" height="64" enable-background="new 0 0 1024 1024" version="1.1" viewBox="0 0 64 64" xml:space="preserve" xmlns="http://www.w3.org/2000/svg"><g id="g3" transform="matrix(.27452 0 0 .27452 -2.1573 -107.48)" fill="#b3b3b3"><g id="g5" fill="#b3b3b3"><g id="g7"><path id="path9" d="m102.57 420.67c-36.212 0-65.568 29.356-65.568 65.568s29.356 65.568 65.568 65.568 65.568-29.355 65.568-65.568c1e-3 -36.212-29.355-65.568-65.568-65.568zm0 109.28c-24.142 0-43.712-19.57-43.712-43.712s19.571-43.712 43.712-43.712 43.712 19.57 43.712 43.712c1e-3 24.142-19.57 43.712-43.712 43.712z" fill="#b3b3b3"/></g><rect id="rect11" x="146.29" y="486.24" width="21.856" height="109.28"/><g id="g13"><path id="path15" d="m168.14 486.24c0-24.142 19.571-43.712 43.712-43.712v-21.855c-36.212 0-65.568 29.355-65.568 65.568 0 36.212 29.355 65.568 65.568 65.568v-21.855c-24.141-2e-3 -43.712-19.572-43.712-43.714z" fill="#b3b3b3"/></g></g></g></svg>
