<?xml version="1.0" encoding="UTF-8" standalone="no"?>
<svg
   xmlns:dc="http://purl.org/dc/elements/1.1/"
   xmlns:cc="http://creativecommons.org/ns#"
   xmlns:rdf="http://www.w3.org/1999/02/22-rdf-syntax-ns#"
   xmlns:svg="http://www.w3.org/2000/svg"
   xmlns="http://www.w3.org/2000/svg"
   xml:space="preserve"
   enable-background="new 0 0 1024 1024"
   viewBox="0 0 64 64"
   height="64"
   width="64"
   y="0px"
   x="0px"
   id="圖層_1"
   version="1.1"><metadata
     id="metadata83"><rdf:RDF><cc:Work
         rdf:about=""><dc:format>image/svg+xml</dc:format><dc:type
           rdf:resource="http://purl.org/dc/dcmitype/StillImage" /><dc:title></dc:title></cc:Work></rdf:RDF></metadata><defs
     id="defs81" /><g
     style="fill:#b3b3b3;fill-opacity:1"
     id="g2307"
     transform="matrix(1.001626,0,0,-0.85654937,-77.501761,662.04842)"><g
       id="g1026"
       transform="translate(136.6953,748.209)"
       style="fill:#b3b3b3;fill-opacity:1"><path
         d="M 0,0 C 1.388,0 2.58,1.188 2.58,2.688 2.58,4.173 1.388,5.42 0,5.42 -1.383,5.42 -2.518,4.173 -2.518,2.688 -2.518,1.188 -1.383,0 0,0"
         style="fill:#b3b3b3;fill-opacity:1;fill-rule:nonzero;stroke:none"
         id="path1028" /></g><g
       id="g1030"
       transform="translate(99.4917,737.3701)"
       style="fill:#b3b3b3;fill-opacity:1"><path
         d="M 0,0 -0.743,2.184 H -6.7 L -9.369,-8.507 h 7.826 l -0.789,2.39 -3.917,-0.053 1.49,6.17 z m -13.925,-8.507 1.882,0.052 3.127,10.639 h -2.631 l -1.438,-4.817 -1.432,4.817 h -2.582 l -3.12,-10.691 2.669,0.052 1.537,5.368 z M 39.39,10.039 38.104,9.838 C 40.277,-12.088 -0.9,-28.837 -11.895,-12.58 l 32.204,0.306 v 2.08 L -17.204,-10.3 c 0.35,-25.908 59.162,-9.34 56.594,20.339 m -5.006,5.524 1.144,0.798 C 23.085,24.517 -2.728,15.768 -10.609,4.072 h 4.111 C 3.266,14.759 21.2,23.121 34.384,15.563 M 9.604,-8.507 12.187,2.136 H 9.364 L 8.274,-2.539 5.201,-2.487 6.332,2.184 H 3.566 L 0.836,-8.507 h 2.822 l 0.899,3.926 H 7.725 L 6.981,-8.507 Z M 21.602,0 20.852,2.184 H 14.858 L 12.235,-8.507 h 7.833 L 19.266,-6.117 15.357,-6.17 16.842,0 Z"
         style="fill:#b3b3b3;fill-opacity:1;fill-rule:nonzero;stroke:none"
         id="path1032" /></g></g></svg>