<?xml version="1.0" encoding="UTF-8"?>
<svg id="svg3092" width="64" height="64" version="1.1" xmlns="http://www.w3.org/2000/svg">
 <g id="layer1" transform="translate(-176.63 -596.66)">
  <g id="g93" transform="matrix(1.128 0 0 1.128 139.28 565.67)" clip-rule="evenodd" fill="#b3b3b3" fill-rule="evenodd">
   <path id="path95" d="m40.749 50.652h5.688v-8.28h10.512v-3.168h4.896v11.448h4.968l-16.345 12.528v-4.68c-3.312-0.792-10.008-1.44-9.719-7.848zm15.695-0.792c-0.216 0-0.36 0.216-0.36 0.432s0.144 0.36 0.36 0.36 0.432-0.144 0.432-0.36-0.216-0.432-0.432-0.432zm0-1.152c-0.216 0-0.36 0.144-0.36 0.36s0.144 0.432 0.36 0.432 0.432-0.216 0.432-0.432-0.216-0.36-0.432-0.36zm0-1.224c-0.216 0-0.36 0.216-0.36 0.432s0.144 0.36 0.36 0.36 0.432-0.144 0.432-0.36-0.216-0.432-0.432-0.432zm0-1.151c-0.216 0-0.36 0.144-0.36 0.36s0.144 0.432 0.36 0.432 0.432-0.216 0.432-0.432c0-0.217-0.216-0.36-0.432-0.36zm0-1.225c-0.216 0-0.36 0.216-0.36 0.432s0.144 0.36 0.36 0.36 0.432-0.144 0.432-0.36-0.216-0.432-0.432-0.432zm0-1.152c-0.216 0-0.36 0.144-0.36 0.36s0.144 0.432 0.36 0.432 0.432-0.216 0.432-0.432-0.216-0.36-0.432-0.36zm0-1.224c-0.216 0-0.36 0.216-0.36 0.432s0.144 0.36 0.36 0.36 0.432-0.144 0.432-0.36-0.216-0.432-0.432-0.432zm-8.568 7.92h6.48v-0.792h-6.48zm10.008-7.344v5.472h2.592v-0.936h-1.728v-1.296h1.728v-0.936h-1.728v-1.296h1.728v-1.008h-1.728zm-10.008 5.4v0.792h6.48v-0.792zm0-1.224v0.792h6.48v-0.792zm0-1.151v0.792h6.48v-0.792zm0-1.225v0.864h6.48v-0.864zm0-1.152v0.792h6.48v-0.792zm0-1.224v0.864h6.48v-0.864z"/>
   <path id="path97" d="m54.932 64.332h21.024v5.688h-20.592c-0.648-2.376-2.088-3.312-3.096-3.815 1.08-0.433 2.088-1.297 2.664-1.873zm16.416 4.32c0.864 0 1.512-0.433 1.512-1.009 0-0.647-0.648-1.079-1.512-1.079-0.288 0-0.504 0.071-0.792 0.144v-0.144c0-0.36 0.36-0.648 0.792-0.648 0.36 0 0.576 0.144 0.72 0.36h0.792c-0.144-0.504-0.72-0.937-1.512-0.937s-1.44 0.433-1.44 1.08v1.224c0 0.577 0.648 1.009 1.44 1.009zm0-0.648c0.432 0 0.792-0.144 0.792-0.432s-0.36-0.504-0.792-0.504c-0.36 0-0.72 0.216-0.72 0.504s0.36 0.432 0.72 0.432zm-3.528-2.664c-0.792 0-1.44 0.433-1.44 1.08 0 0.576 0.648 1.008 1.44 1.008 0.288 0 0.576-0.071 0.792-0.144v0.144c0 0.36-0.36 0.648-0.792 0.648-0.288 0-0.576-0.145-0.72-0.36h-0.72c0.072 0.576 0.72 0.937 1.44 0.937 0.792 0 1.44-0.433 1.44-1.009v-1.224c0-0.648-0.648-1.08-1.44-1.08zm0 0.648c-0.432 0-0.72 0.216-0.72 0.432 0 0.288 0.288 0.504 0.72 0.504s0.72-0.216 0.72-0.504c1e-3 -0.216-0.288-0.432-0.72-0.432zm-3.672-0.648c-0.792 0-1.44 0.433-1.44 1.008 0 0.217 0.072 0.433 0.216 0.576-0.288 0.216-0.504 0.433-0.504 0.72 0 0.576 0.792 1.009 1.728 1.009s1.728-0.433 1.728-1.009c0-0.287-0.216-0.504-0.504-0.72 0.144-0.144 0.288-0.359 0.288-0.576 0-0.576-0.72-1.008-1.512-1.008zm0 1.8c-0.36 0-0.72 0.217-0.72 0.504 0 0.217 0.36 0.433 0.72 0.433 0.432 0 0.72-0.216 0.72-0.433 0-0.288-0.288-0.504-0.72-0.504zm0-1.08c-0.36 0-0.576 0.145-0.576 0.36s0.216 0.36 0.576 0.36 0.576-0.145 0.576-0.36-0.216-0.36-0.576-0.36zm-3.888-0.576c-0.072 0.288-0.576 0.575-1.152 0.647v0.504h1.152v2.088h1.008v-3.239zm-10.656 4.536h-2.664v-3.023c1.512 0.863 2.304 1.799 2.664 3.023z"/>
   <path id="path99" d="m77.541 50.652h4.032c0 1.296-1.296 2.376-2.52 3.312 0.36 0.072 0.648 0.432 0.648 0.792 0 0.288-0.144 0.504-0.36 0.648 0.504 0.144 0.864 0.576 0.864 1.08 0 0.576-0.288 1.008-0.792 1.151 0.216 0.145 0.36 0.433 0.36 0.648 0 0.432-0.36 0.792-0.792 0.792s-0.792-0.36-0.792-0.792c0-0.216 0.144-0.504 0.36-0.648-0.432-0.144-0.792-0.576-0.792-1.151 0-0.504 0.288-0.864 0.792-1.08-0.216-0.144-0.36-0.36-0.36-0.648h-0.072v0.072h-0.217c-2.088 0.504-9.504 3.672-3.744 7.92h-17.352l16.128-12.096-5.04-7.2v6.768h-5.328v-11.016h5.328v2.232l4.248-2.952 7.488 10.728zm1.295 3.528c-0.144 0.144-0.288 0.288-0.432 0.36 0 0.072-0.072 0.144-0.072 0.216 0 0.288 0.288 0.576 0.576 0.576 0.36 0 0.576-0.288 0.576-0.576s-0.216-0.576-0.576-0.576zm0.144 3.528c-0.288 0-0.576 0.288-0.576 0.576 0 0.359 0.288 0.576 0.576 0.576s0.576-0.217 0.576-0.576c0-0.288-0.288-0.576-0.576-0.576zm0-2.16c-0.576 0-1.008 0.36-1.008 0.936s0.432 1.08 1.008 1.08 1.008-0.504 1.008-1.08-0.432-0.936-1.008-0.936zm-7.704-12.168 2.16 5.472 0.648-0.504-0.504-1.296 0.72-0.576 1.08 0.936 0.648-0.432-4.248-3.96zm1.224 1.44 0.72 1.512 0.504-0.36zm-7.416 0.792c-0.432-0.288-0.936-0.576-0.936-1.008 0-0.36 0.36-0.72 0.792-0.72 0.36 0 0.72 0.36 0.72 0.72h0.72c-0.072-0.864-0.72-1.512-1.44-1.512-0.792 0-1.512 0.72-1.44 1.584 0 0.864 0.432 1.296 1.44 1.8 0.504 0.216 0.72 0.504 0.72 0.936s-0.36 0.792-0.72 0.792c-0.432 0-0.792-0.36-0.792-0.792h-0.648c0.072 0.936 0.648 1.584 1.44 1.584s1.368-0.648 1.44-1.584c0-0.936-0.288-1.296-1.296-1.8z"/>
   <path id="path101" d="m47.012 66.132c-0.792-0.359-1.08-2.664-0.36-4.32 0.144-0.216 0.504-0.359 0.72-0.144l2.736 3.313 20.664-15.768 1.008 1.224-20.592 15.911 1.8 1.513c-0.792 0.647-1.8 1.439-2.592 2.088-0.72-2.233-2.016-3.241-3.384-3.817z"/>
   <polygon id="polygon103" points="51.908 72.252 50.756 70.452 53.42 68.436 54.788 70.164"/>
   <path id="path105" d="m61.268 33.372c12.312 0 22.32 10.08 22.32 22.464 0 12.383-10.008 22.463-22.32 22.463-12.384 0-22.392-10.08-22.392-22.463 0-12.384 10.008-22.464 22.392-22.464zm0 0.288c-12.24 0-22.176 9.936-22.176 22.176s9.936 22.175 22.176 22.175 22.176-9.936 22.176-22.175c0-12.24-9.936-22.176-22.176-22.176z"/>
   <path id="path107" d="m61.268 33.372c12.312 0 22.32 10.08 22.32 22.464 0 12.383-10.008 22.463-22.32 22.463-12.384 0-22.392-10.08-22.392-22.463 0-12.384 10.008-22.464 22.392-22.464zm0 0.288c-12.24 0-22.176 9.936-22.176 22.176s9.936 22.175 22.176 22.175 22.176-9.936 22.176-22.175c0-12.24-9.936-22.176-22.176-22.176z"/>
   <path id="path109" d="m62.42 27.541v2.88h0.792l0.288-2.808c0.72 0 1.152 0.072 1.8 0.144l-0.288 2.88c0.288 0 0.576 0.072 0.792 0.072l0.648-2.736c0.648 0.072 1.08 0.216 1.8 0.36l-0.576 2.808c0.216 0 0.504 0.072 0.72 0.144l0.864-2.664c0.72 0.216 1.08 0.36 1.8 0.576l-0.864 2.664c0.216 0.072 0.504 0.216 0.72 0.288l1.152-2.592c0.648 0.288 1.008 0.432 1.656 0.792l-1.08 2.52c0.216 0.144 0.504 0.288 0.72 0.36l1.368-2.376c0.648 0.288 1.008 0.504 1.584 0.864l-1.368 2.448c0.288 0.144 0.504 0.288 0.72 0.432l1.584-2.232c0.576 0.36 0.936 0.576 1.512 1.008l-1.584 2.304c0.216 0.216 0.432 0.36 0.648 0.504l1.8-2.088c0.576 0.432 0.864 0.72 1.368 1.224l-1.8 2.088c0.216 0.216 0.36 0.432 0.576 0.576l2.088-1.872c0.504 0.576 0.72 0.864 1.224 1.368l-2.088 1.944c0.216 0.144 0.36 0.36 0.576 0.576l2.232-1.656c0.432 0.576 0.648 0.936 1.08 1.512l-2.232 1.656c0.144 0.216 0.288 0.504 0.432 0.72l2.448-1.44c0.36 0.648 0.576 1.008 0.864 1.584l-2.376 1.44c0.144 0.216 0.288 0.504 0.36 0.72l2.592-1.152c0.288 0.648 0.432 1.008 0.72 1.656l-2.52 1.152c0.072 0.288 0.216 0.504 0.288 0.792l2.664-0.864c0.216 0.648 0.36 1.008 0.576 1.728l-2.664 0.864c0.072 0.216 0.216 0.576 0.288 0.864l2.664-0.576c0.144 0.72 0.288 1.08 0.36 1.8l-2.664 0.576c0.072 0.288 0.072 0.576 0.144 0.864l2.736-0.288c0.072 0.72 0.144 1.08 0.216 1.8l-2.736 0.36v0.792h2.736c0.072 0.36 0.072 0.576 0.072 0.936v0.864l-2.808 0.072v0.792l2.736 0.287c-0.072 0.721-0.144 1.08-0.216 1.801l-2.736-0.217c-0.072 0.288-0.072 0.576-0.144 0.792l2.664 0.576c-0.072 0.721-0.144 1.152-0.36 1.8l-2.664-0.504c-0.072 0.288-0.144 0.504-0.288 0.792l2.664 0.864c-0.216 0.72-0.288 1.08-0.576 1.729l-2.664-0.792c-0.072 0.288-0.216 0.504-0.288 0.792l2.52 1.151c-0.288 0.648-0.432 1.008-0.792 1.656l-2.52-1.152c-0.072 0.217-0.216 0.504-0.36 0.721l2.376 1.367c-0.288 0.648-0.504 1.009-0.864 1.584l-2.448-1.367c-0.144 0.216-0.288 0.504-0.432 0.72l2.232 1.584c-0.36 0.648-0.648 0.936-1.08 1.512l-2.232-1.584c-0.216 0.216-0.36 0.433-0.576 0.576l2.088 1.872c-0.432 0.576-0.72 0.864-1.224 1.368l-2.088-1.8c-0.216 0.144-0.36 0.359-0.576 0.575l1.872 2.017c-0.504 0.504-0.864 0.792-1.368 1.224l-1.872-2.016c-0.216 0.144-0.432 0.288-0.648 0.504l1.656 2.304c-0.576 0.433-0.864 0.648-1.512 1.08l-1.656-2.304c-0.216 0.144-0.432 0.288-0.72 0.432l1.44 2.448c-0.576 0.36-0.936 0.576-1.584 0.936l-1.44-2.447c-0.216 0.071-0.504 0.216-0.72 0.359l1.152 2.521c-0.648 0.288-1.008 0.504-1.656 0.72l-1.224-2.52c-0.216 0.071-0.504 0.216-0.72 0.287l0.864 2.664c-0.648 0.217-1.08 0.36-1.728 0.576l-0.936-2.664c-0.216 0.072-0.504 0.145-0.72 0.145l0.576 2.808c-0.72 0.145-1.08 0.288-1.8 0.36l-0.648-2.736c-0.216 0-0.504 0.072-0.792 0.072l0.288 2.88c-0.648 0.072-1.08 0.144-1.8 0.144l-0.288-2.808h-0.792v2.88h-1.872v-2.88h-0.792l-0.288 2.808c-0.72 0-1.152-0.071-1.872-0.144l0.36-2.88c-0.288 0-0.576-0.072-0.864-0.072l-0.576 2.734c-0.72-0.072-1.08-0.216-1.8-0.36l0.576-2.808c-0.216 0-0.504-0.072-0.792-0.145l-0.864 2.664c-0.648-0.216-1.08-0.359-1.728-0.576l0.864-2.664c-0.216-0.071-0.504-0.216-0.72-0.287l-1.152 2.592c-0.648-0.288-1.08-0.433-1.728-0.792l1.152-2.521c-0.216-0.144-0.504-0.288-0.72-0.359l-1.368 2.376c-0.648-0.288-1.008-0.504-1.584-0.864l1.368-2.448c-0.216-0.144-0.504-0.288-0.72-0.432l-1.584 2.231c-0.648-0.359-0.936-0.575-1.512-1.008l1.656-2.304c-0.216-0.145-0.432-0.36-0.648-0.504l-1.872 2.089c-0.576-0.432-0.864-0.72-1.368-1.224l1.872-2.089c-0.216-0.144-0.504-0.432-0.648-0.575l-2.088 1.872c-0.504-0.576-0.792-0.864-1.224-1.368l2.088-1.872c-0.216-0.216-0.36-0.433-0.576-0.648l-2.232 1.656c-0.432-0.576-0.648-0.936-1.08-1.512l2.232-1.656c-0.144-0.216-0.288-0.504-0.432-0.72l-2.448 1.439c-0.36-0.647-0.576-1.008-0.936-1.584l2.448-1.439c-0.144-0.217-0.288-0.504-0.432-0.721l-2.52 1.152c-0.288-0.648-0.432-1.008-0.72-1.656l2.52-1.151c-0.144-0.288-0.216-0.504-0.288-0.792l-2.664 0.863c-0.216-0.647-0.36-1.008-0.576-1.728l2.664-0.864c-0.072-0.216-0.216-0.576-0.288-0.864l-2.664 0.576c-0.216-0.72-0.288-1.08-0.36-1.8l2.664-0.576c-0.072-0.288-0.144-0.576-0.144-0.864l-2.736 0.288c-0.072-0.72-0.144-1.08-0.216-1.8l2.736-0.288c0-0.288 0-0.576-0.072-0.864h-2.736v-0.936-0.864h2.736c0.072-0.216 0.072-0.576 0.072-0.864l-2.736-0.288c0.072-0.72 0.072-1.08 0.216-1.8l2.736 0.288c0-0.288 0.072-0.648 0.144-0.864l-2.736-0.576c0.144-0.72 0.216-1.152 0.432-1.8l2.664 0.576 0.216-0.864-2.592-0.864c0.216-0.72 0.288-1.08 0.576-1.728l2.592 0.864c0.144-0.288 0.216-0.576 0.36-0.864l-2.52-1.152c0.288-0.648 0.432-1.008 0.72-1.656l2.52 1.152c0.144-0.216 0.288-0.504 0.432-0.72l-2.448-1.367c0.36-0.648 0.576-1.008 0.936-1.584l2.376 1.368c0.144-0.216 0.36-0.504 0.504-0.72l-2.232-1.584c0.36-0.648 0.576-0.936 1.08-1.512l2.232 1.656c0.144-0.216 0.36-0.504 0.504-0.648l-2.016-1.872c0.432-0.576 0.72-0.864 1.224-1.368l2.088 1.872c0.144-0.216 0.36-0.432 0.576-0.648l-1.872-2.016c0.504-0.504 0.792-0.792 1.368-1.224l1.872 2.088c0.216-0.216 0.432-0.36 0.648-0.504l-1.584-2.232c0.504-0.432 0.864-0.648 1.44-1.08l1.656 2.16 0.648-0.432-1.368-2.448c0.576-0.36 0.936-0.576 1.584-0.936l1.368 2.52c0.288-0.144 0.504-0.288 0.792-0.36l-1.152-2.664c0.648-0.288 1.008-0.432 1.656-0.72l1.152 2.592c0.216-0.072 0.504-0.216 0.792-0.288l-0.864-2.664 1.728-0.576 0.864 2.664c0.288-0.072 0.576-0.144 0.792-0.144l-0.576-2.808c0.72-0.144 1.08-0.288 1.8-0.36l0.576 2.736c0.288 0 0.576-0.072 0.864-0.072l-0.36-2.88c0.72-0.072 1.152-0.144 1.872-0.144l0.288 2.808h0.792v-2.88c0.72 1e-3 1.152 1e-3 1.872 1e-3zm22.536 28.295c0-12.888-10.44-23.4-23.256-23.4h-0.216-0.216c-12.816 0-23.256 10.512-23.256 23.4 0 12.887 10.44 23.4 23.256 23.4h0.216 0.216c12.816 0 23.256-10.512 23.256-23.4z"/>
  </g>
 </g>
</svg>
