<?xml version="1.0" encoding="UTF-8"?>
<svg id="svg3200" width="64" height="64" version="1.1" xmlns="http://www.w3.org/2000/svg">
 <g id="layer1" transform="translate(-335.72 -407.43)">
  <g id="g6480" transform="matrix(1.4451 0 0 1.4451 235.27 308.4)">
   <path id="path4643" d="m78.663 81.726c-0.74412 1.9e-5 -1.3833 0.16362-1.9174 0.50549-0.53405 0.3419-0.98855 0.90647-1.3596 1.6908l-0.49678 1.8651h10.528l0.0087-0.02613h3.0155l-0.0087 0.02613c7.3e-4 -0.0011 8e-3 0.0011 0.0087 0 0.31976-0.52053 0.67804-1.1033 1.0894-1.7431 0.41914-0.66365 0.89925-1.4334 1.438-2.3183h-12.306zm25.309 0-12.315 0.02613-1.0807 4.0352h14.99c0.15764-0.5883 0.2963-1.0844 0.50549-1.8651 0.0493-0.78431-0.10238-1.3489-0.45319-1.6908-0.35086-0.34187-0.90312-0.50547-1.6472-0.50549zm3.3467 0.02613-1.0807 4.0352h5.0898l1.0894-4.0352zm-33.345 6.5041c-0.07711 0.27813-0.16212 0.56448-0.26146 0.87153l-0.27018 1.0197c-0.03783 1.267 0.68191 1.9087 2.1701 1.9087h6.9723l-0.94998 3.4338h-8.1489l-2.5885 4.1311 8.4975-0.061 0.0087-0.0261 3.9045-0.061c1.4882 0 2.5574-0.63297 3.1985-1.8999l1.8825-7.0333h-0.06101c0.01078-0.0402 0.02408-0.073 0.03487-0.1133 0.03629-0.0603 0.05892-0.11663 0.06973-0.15688 0.04925-0.78431-0.10239-1.3489-0.4532-1.6908-0.14113-0.13752-0.31816-0.24026-0.52292-0.32246h-13.483zm15.662 0-3.0329 11.304h5.1334l1.011-3.765h-0.03487l1.1853-4.41h7.87l0.0261-0.0871c0.56993-0.10054 1.0595-0.32047 1.4729-0.66237 0.43348-0.34187 0.81437-0.84409 1.133-1.5078 0.0377-0.14077 0.0735-0.30705 0.12202-0.48806 0.0222-0.0827 0.0724-0.2633 0.10458-0.38347h-14.99zm15.662 0-3.0242 11.278h5.0724l3.0417-11.278z" color="#000000" fill="#b3b3b3" style="block-progression:tb;text-decoration-line:none;text-indent:0;text-transform:none"/>
  </g>
 </g>
</svg>
