<?xml version="1.0" encoding="UTF-8"?>
<svg id="svg3718" width="1880.2" height="706.81" version="1.1" viewBox="0 0 1880.2 706.81" xml:space="preserve" xmlns="http://www.w3.org/2000/svg"><defs id="defs3722"><clipPath id="clipPath3736"><path id="path3734" d="M 0,530.11 H 1410.152 V 0 H 0 Z"/></clipPath></defs><g id="g3726" transform="matrix(1.3333 0 0 -1.3333 0 706.81)"><path id="path3728" d="m0 0h1410.2v530.11h-1410.2z" fill="#373737"/><g id="g3730"><g id="g3732" clip-path="url(#clipPath3736)"><g id="g3738" transform="translate(295.31 303.26)"><path id="path3740" d="m0 0c10.108 0.776 19.549 3.012 28.29 6.715 8.757 3.703 15.954 9.076 21.59 16.086 5.629 7.033 8.454 16.396 8.454 28.095 0 17.554-5.814 31-17.467 40.378-11.638 9.363-25.029 14.044-40.153 14.044-20.969 0-36.798-6.91-47.457-20.713-10.691-13.803-15.821-31.224-15.435-52.209h-78.983c0.783 20.985 4.58 40.146 11.373 57.434 6.809 17.274 16.35 32.102 28.624 44.477 12.25 12.375 26.953 21.923 44.072 28.709 17.118 6.77 36.201 10.154 57.217 10.154 16.341 0 32.691-2.437 49.032-7.297 16.359-4.868 31.038-12.165 44.089-21.893 13.043-9.728 23.648-21.583 31.815-35.604 8.167-14.004 12.273-30.144 12.273-48.419 0-19.852-4.759-37.358-14.245-52.535-9.495-15.178-23.718-25.48-42.684-30.922v-1.172c22.484-5.062 40.114-15.953 52.924-32.692 12.794-16.738 19.184-36.775 19.184-60.112 0-21.411-4.186-40.478-12.563-57.216-8.384-16.746-19.57-30.735-33.592-42.039-14.012-11.272-30.183-19.843-48.497-25.665-18.306-5.815-37.396-8.75-57.24-8.75-22.987 0-43.909 3.315-62.813 9.922-18.889 6.645-34.966 16.287-48.203 28.973-13.252 12.67-23.461 28.142-30.667 46.44-7.219 18.291-10.619 39.283-10.223 63h78.985c0.38-10.892 2.135-21.287 5.271-31.201 3.121-9.914 7.616-18.476 13.468-25.666 5.855-7.189 13.161-12.942 21.949-17.218 8.78-4.263 19.221-6.398 31.309-6.398 18.733 0 34.548 5.714 47.419 17.158 12.887 11.443 19.323 27.054 19.323 46.844 0 15.534-3.106 27.373-9.3 35.517-6.211 8.159-13.966 14.06-23.306 17.763-9.34 3.68-19.557 5.814-30.635 6.389-11.086 0.59-21.683 0.893-31.774 0.893v58.73c8.934-0.776 18.46-0.776 28.576 0" fill="#1795d2"/></g><g id="g3742" transform="translate(688.23 423.48)"><path id="path3744" d="m0 0c46.192 0 91.941-18.687 125.51-51.277l8.96-8.688v70.104l-2.244 1.576c-38.39 26.924-80.725 40.004-129.42 40.004-124.63 0-226.03-95.404-226.03-212.67 0-115.53 101.4-209.51 226.03-209.51 45.485 0 91.414 14.192 129.36 39.951l2.306 1.575v69.887l-8.898-8.354c-34.725-32.629-80.094-51.339-124.45-51.339-90.312 0-166.61 72.984-166.61 159.38 0 86.383 75.778 159.37 165.48 159.37" fill="#fff"/></g><g id="g3746" transform="translate(823.42 344.11)"><path id="path3748" d="m0 0v-162.94l71.284 84.861z" fill="#1896d3"/></g><g id="g3750" transform="translate(1255.1 55.804)"><path id="path3752" d="m0 0-167.72 204.84 167.69 204.3h-88.953l-123-150.22-122.99 150.22h-88.945l167.69-204.3-167.73-204.84h88.075l123.9 150.92 123.91-150.92z" fill="#fff"/></g><g id="g3754" transform="translate(1288.5 81.602)"><path id="path3756" d="m0 0c3.112 0 8.578-0.586 8.578 3.408 0 2.585-3.408 3.056-6.109 3.056h-6.697v-6.464zm11.749-15.1h-4.227l-7.522 11.576h-4.228v-11.576h-3.528v25.087h10.931c4.521 0 8.928-1.229 8.928-6.637 0-4.933-3.467-6.758-7.93-6.874zm8.578 12.399c0 10.81-8.989 19.389-19.505 19.389-10.515 0-19.506-8.579-19.506-19.389 0-10.811 8.991-19.39 19.506-19.39 10.516 0 19.505 8.579 19.505 19.39m-42.535 0c0 12.747 10.167 22.913 23.03 22.913 12.867 0 23.031-10.166 23.031-22.913 0-12.748-10.164-22.914-23.031-22.914-12.863 0-23.03 10.166-23.03 22.914" fill="#fff"/></g></g></g></g></svg>
