<?xml version="1.0" encoding="UTF-8"?>
<svg id="svg2" width="601.58" height="270.28" version="1.0" viewBox="0 0 601.58 270.28" xmlns="http://www.w3.org/2000/svg">
 <defs id="defs12">
  <radialGradient id="radialGradient3175" cx="951.69" cy="2305.3" r="951.69" gradientTransform="matrix(1 0 0 1.2665 0 -321.15)" gradientUnits="userSpaceOnUse">
   <stop id="stop3171" stop-color="#ff8a00" offset="0"/>
   <stop id="stop3445" stop-color="#c24573" stop-opacity=".98039" offset=".71698"/>
   <stop id="stop3173" stop-color="#8500e7" stop-opacity=".96078" offset="1"/>
  </radialGradient>
  <linearGradient id="linearGradient3183" x1="170.66" x2="614.25" y1="110.17" y2="110.17" gradientUnits="userSpaceOnUse">
   <stop id="stop3179" stop-color="#da7000" offset="0"/>
   <stop id="stop3447" stop-color="#a63852" offset=".24528"/>
   <stop id="stop3181" stop-color="#7200a4" offset="1"/>
  </linearGradient>
  <radialGradient id="radialGradient3171" cx="951.69" cy="1205.3" r="951.69" gradientTransform="matrix(1 0 0 1.2665 0 -321.15)" gradientUnits="userSpaceOnUse">
   <stop id="stop3167" offset="0"/>
   <stop id="stop3169" stop-opacity="0" offset="1"/>
  </radialGradient>
 </defs>
 <g id="g3" transform="matrix(.1 0 0 .1 -1.1e-5 0)" fill="url(#radialGradient3175)" stroke="url(#radialGradient3171)">
  <g id="g5" transform="translate(20.615 -27.694)" fill="url(#radialGradient3175)" fill-rule="evenodd" stroke="url(#radialGradient3171)">
   <path id="path7" d="m931.07 1164.6 248.87-331.8 416.17 1338.3 286.65 267.1h-520.42l-270.28-262.22v-1033.1l-160.98 106.68-160.98-106.68v1033.1l-270.28 262.22h-520.42l286.65-267.1 416.17-1338.3 248.87 331.8z"/>
   <path id="path9" d="m931.07 27.694 224.04 720.47-63.341 76.009-160.7-337.84-160.7 337.84-63.341-76.009 224.04-720.47z"/>
  </g>
 </g>
 <path id="flowRoot2389" transform="translate(-6.9099 24.185)" d="m224.18 44.591c13.44 0 30.6 8.16 33.72 25.44 1.2 6.48 2.64 9.96 8.64 9.96 4.2 0 7.2-3.36 7.2-9.6 0-3.72-3.24-25.32-18.96-54.96-6.84-12.96-10.92-19.08-17.88-19.08-8.4 0-12.24 6.12-19.08 19.08-15.72 29.64-17.76 51.24-17.76 54.96 0 5.76 1.32 9.6 7.8 9.6 4.32 0 6.84-2.64 7.32-7.08 0.84-8.04 2.64-19.56 5.88-28.32h3.12m0.48-12c3.12-7.44 7.08-14.64 11.88-21.84 5.88 9.36 10.44 19.44 14.04 29.76l-0.24 0.24c-7.92-6.48-18.24-8.16-24.12-8.16h-1.56m76.316-30.48c0-4.32-2.28-7.8-7.2-7.8s-7.2 3.48-7.2 7.8v70.08c0 4.32 2.28 7.8 7.2 7.8s7.2-3.48 7.2-7.8v-70.08m46.361 29.52c3.84 0 6.96-2.04 6.96-6.48s-3.12-6.48-6.96-6.48h-10.56v-10.2c0-4.32-2.28-7.8-7.2-7.8s-7.2 3.48-7.2 7.8v10.2h-4.08c-3.96 0-7.08 2.04-7.08 6.48s3.12 6.48 7.08 6.48h4.08v25.92c0 22.08 8.4 22.08 26.64 22.08 6.48 0 9.72-2.16 9.72-6.84s-3.24-6.84-7.32-6.84h-7.68c-5.52 0-6.96-3.36-6.96-10.56v-23.76h10.56m68.961-5.88c0-4.32-2.28-7.8-7.2-7.8s-7.2 3.48-7.2 7.8v24.84c0 11.16-5.28 16.8-13.44 16.8-6.48 0-9.72-4.08-9.72-12.48v-29.16c0-4.32-2.28-7.8-7.2-7.8s-7.2 3.48-7.2 7.8v33c0 12.24 8.4 21.6 21.36 21.6 6.6 0 11.4-1.92 16.2-6.48 0 3 2.28 6.48 7.2 6.48s7.2-3.48 7.2-7.8v-46.8m40.517 53.88c13.56 0 23.64-6.12 23.64-20.64 0-25.32-37.8-16.08-37.8-24.36 0-2.88 3-3 5.16-3h21c3.84 0 6.96-2.04 6.96-6.48s-3.12-6.48-6.96-6.48h-20.16c-13.2 0-20.4 4.92-20.4 15.84 0 25.08 37.8 12 37.8 24.36 0 6.48-4.56 7.8-10.32 7.8h-21.6c-3.96 0-7.08 2.04-7.08 6.48s3.12 6.48 7.08 6.48h22.68m-216.56 67.32c-4.92-6-7.8-13.68-11.88-23.64-1.92-4.68-4.8-6.6-9.6-6.6-9.24 0-9.6 7.08-11.52 18.6-2.28 13.56-4.32 37.08-4.32 50.76 0 8.4 0.60001 13.92 7.44 13.92 6.72 0 7.68-4.56 7.68-10.2v-18.96c0-10.44 1.2-21.24 2.88-32.28h0.24c1.92 6.12 10.68 26.16 19.08 26.16s17.16-20.04 19.08-26.16h0.24c1.68 11.04 2.88 21.84 2.88 32.28v18.96c0 5.64 0.96001 10.2 7.68 10.2 6.84 0 7.44-5.52 7.44-13.92 0-13.68-2.04-37.2-4.32-50.76-1.92-11.52-2.28-18.6-11.52-18.6-4.8 0-7.68 1.92-9.6 6.6-4.08 9.96-6.96 17.64-11.88 23.64m98.359 52.68c3.84 0 6.96-2.04 6.96-6.48s-3.12-6.48-6.96-6.48h-15.48c-10.08 0-18.6-3-19.56-14.28h36.72c5.04 0 5.88-3 5.88-7.08 0-14.04-8.28-27.36-28.32-27.36-18.36 0-30.12 14.04-30.12 32.04 0 17.88 12 29.64 33.36 29.64h17.52m-34.08-38.04c1.68-7.2 7.68-11.64 13.32-11.64s11.64 4.44 13.2 11.64h-26.52m82.877-9.96c3.84 0 6.96-2.04 6.96-6.48s-3.12-6.48-6.96-6.48h-10.56v-10.2c0-4.32-2.28-7.8-7.2-7.8s-7.2 3.48-7.2 7.8v10.2h-4.08c-3.96 0-7.08 2.04-7.08 6.48s3.12 6.48 7.08 6.48h4.08v25.92c0 22.08 8.4 22.08 26.64 22.08 6.48 0 9.72-2.16 9.72-6.84s-3.24-6.84-7.32-6.84h-7.68c-5.52 0-6.96-3.36-6.96-10.56v-23.76h10.56m17.961 40.2c0 4.68 2.64 8.16 7.2 8.16s7.2-3.48 7.2-8.16v-26.28c0-11.04 3.48-13.92 10.56-13.92 5.16 0 8.28-2.16 8.28-6.72 0-4.08-2.16-6.96-7.44-6.96-6.72 0-11.28 2.88-12.24 9.48h-0.24l-0.24-3.72c-0.48-5.4-3.84-5.76-6.48-5.76-4.2 0-6.6 2.4-6.6 7.32v46.56m91.078-46.08c0-4.32-2.28-7.8-7.2-7.8s-7.2 3.48-7.2 7.8v24.84c0 11.16-5.28 16.8-13.44 16.8-6.48 0-9.72-4.08-9.72-12.48v-29.16c0-4.32-2.28-7.8-7.2-7.8s-7.2 3.48-7.2 7.8v33c0 12.24 8.4 21.6 21.36 21.6 6.6 0 11.4-1.92 16.2-6.48 0 3 2.28 6.48 7.2 6.48s7.2-3.48 7.2-7.8v-46.8m14.597 46.44c0 4.32 2.28 7.8 7.2 7.8s7.2-3.48 7.2-7.8v-24.48c0-11.28 5.16-16.8 11.52-16.8 8.04 0 9.72 6.36 9.72 14.64v26.64c0 4.32 2.28 7.8 7.2 7.8s7.2-3.48 7.2-7.8v-24.48c0-11.28 5.16-16.8 11.52-16.8 8.04 0 9.72 6.36 9.72 14.64v26.64c0 4.32 2.28 7.8 7.2 7.8s7.2-3.48 7.2-7.8v-32.64c0-12.24-8.4-21.6-21.36-21.6-7.92 0-14.16 4.2-19.32 9-5.52-6.84-9.84-9-16.8-9-5.88 0-11.04 2.4-15.24 6.48 0-3.36-2.04-6.48-6.48-6.48s-6.48 3.12-6.48 6.96v47.28" fill="url(#linearGradient3183)"/>
</svg>
