<?xml version="1.0" encoding="UTF-8"?>
<svg width="121.62" height="50.487" viewBox="0 0 121.62 50.487" xmlns="http://www.w3.org/2000/svg">
 <path d="M41.14 6.087h1.05c.902 0 1.22-.347 1.22-1.135 0-.78-.29-1.136-1.182-1.136H41.14v2.27zm-.01-3.003h1.07c.76 0 .929-.318.929-.995 0-.675-.216-1.023-.976-1.023H41.13v2.018zm-.61 3.725a.248.248 0 0 1-.244-.244V.588c0-.131.113-.244.244-.244h1.661c1.361 0 1.858.714 1.858 1.727 0 .675-.169 1.041-.788 1.303.629.179 1.08.667 1.08 1.624 0 1.286-.845 1.811-2.047 1.811H40.52m7.082-4.185c-.544 0-.881.282-.948 1.409h1.868c0-1.08-.244-1.409-.92-1.409zm.104 4.308c-1.23 0-1.924-.713-1.924-2.478 0-1.782.732-2.467 1.84-2.467 1.116 0 1.754.637 1.754 2.336v.169c0 .084-.066.15-.15.15h-2.58c.018 1.285.3 1.605 1.079 1.605.403 0 .666-.122.91-.292a.25.25 0 0 1 .347.048l.15.196a.243.243 0 0 1-.056.339c-.385.272-.78.394-1.37.394m3.548-.122a.249.249 0 0 1-.244-.245V2.351c0-.13.113-.242.244-.242h.14a.3.3 0 0 1 .291.242l.085.423c.347-.431.779-.75 1.323-.75.028 0 .066 0 .094.009.038.01.075.046.066.084l-.066.657a.137.137 0 0 1-.15.113c-.047-.01-.103-.01-.15-.01-.432 0-.723.16-1.07.48v3.208a.248.248 0 0 1-.244.244h-.32m3.691.001a.248.248 0 0 1-.244-.245V2.351c0-.13.112-.242.244-.242h.14a.3.3 0 0 1 .291.234l.075.347c.414-.413.882-.704 1.436-.704.675 0 1.136.347 1.136 1.145v3.434a.249.249 0 0 1-.244.244h-.32a.248.248 0 0 1-.243-.244V3.384c0-.535-.15-.685-.573-.685-.375 0-.797.263-1.135.563v3.303a.248.248 0 0 1-.244.244h-.32m9.162.123c-.9 0-1.765-.479-1.765-1.98V.588a.25.25 0 0 1 .244-.244h.376a.25.25 0 0 1 .244.244v4.214c0 .947.178 1.38.994 1.38.677 0 1.145-.34 1.417-.601V.588a.25.25 0 0 1 .244-.244h.376c.131 0 .244.113.244.244v5.978a.248.248 0 0 1-.244.244h-.15a.313.313 0 0 1-.3-.235l-.095-.366c-.365.366-.891.723-1.585.723m4.651-.122a.248.248 0 0 1-.244-.245V2.351c0-.13.113-.242.244-.242h.14a.3.3 0 0 1 .291.234l.076.347c.413-.413.881-.704 1.435-.704.676 0 1.136.347 1.136 1.145v3.434a.248.248 0 0 1-.244.244h-.32a.248.248 0 0 1-.243-.244V3.384c0-.535-.15-.685-.573-.685-.374 0-.797.263-1.135.563v3.303a.248.248 0 0 1-.244.244h-.319m5.612-5.573a.553.553 0 0 1-.554-.573c0-.328.244-.582.563-.582a.56.56 0 0 1 .573.582.566.566 0 0 1-.582.573zm-.142 5.573a.248.248 0 0 1-.243-.244V2.737l-.45-.076a.283.283 0 0 1-.245-.281v-.03c0-.13.113-.242.245-.242h1.013c.131 0 .244.112.244.242v4.214a.248.248 0 0 1-.244.244h-.32m3.79.002a.341.341 0 0 1-.32-.235L76.3 2.343a.176.176 0 0 1 .168-.234h.395a.32.32 0 0 1 .309.234l.732 2.458c.104.338.216.901.291 1.22h.01c.056-.281.178-.873.29-1.24l.732-2.438a.32.32 0 0 1 .31-.234h.347c.122 0 .207.112.17.234l-1.427 4.232a.34.34 0 0 1-.319.234h-.29m4.991-4.185c-.544 0-.882.282-.948 1.409h1.868c0-1.08-.244-1.409-.92-1.409zm.103 4.308c-1.23 0-1.923-.713-1.923-2.478 0-1.782.732-2.467 1.839-2.467 1.116 0 1.755.637 1.755 2.336v.169c0 .084-.066.15-.15.15h-2.58c.018 1.285.299 1.605 1.078 1.605.404 0 .666-.122.91-.292a.25.25 0 0 1 .347.048l.15.196a.242.242 0 0 1-.056.339c-.385.272-.778.394-1.37.394m3.549-.122a.248.248 0 0 1-.244-.245V2.351c0-.13.113-.242.244-.242h.14a.3.3 0 0 1 .291.242l.085.423c.347-.431.779-.75 1.323-.75.028 0 .066 0 .094.009.038.01.075.046.066.084l-.066.657a.138.138 0 0 1-.15.113c-.047-.01-.103-.01-.15-.01-.432 0-.723.16-1.07.48v3.208a.248.248 0 0 1-.244.244h-.319m4.595.123a2.853 2.853 0 0 1-1.36-.366.257.257 0 0 1-.086-.338l.104-.179a.239.239 0 0 1 .329-.094c.328.188.666.3 1.05.3.638 0 .836-.252.836-.693 0-.526-.244-.628-.995-.836-.657-.178-1.201-.525-1.201-1.454 0-.684.44-1.285 1.473-1.285.45 0 .789.074 1.089.196a.251.251 0 0 1 .122.329l-.085.188a.252.252 0 0 1-.328.132 1.72 1.72 0 0 0-.77-.16c-.506 0-.74.178-.74.58 0 .442.196.555.843.733.723.197 1.38.479 1.38 1.54 0 .975-.554 1.407-1.66 1.407M95.2 1.236a.553.553 0 0 1-.554-.573c0-.328.244-.582.563-.582a.56.56 0 0 1 .573.582.565.565 0 0 1-.582.573zm-.141 5.573a.249.249 0 0 1-.244-.244V2.737l-.45-.076a.282.282 0 0 1-.244-.281v-.03c0-.13.112-.242.244-.242h1.013c.132 0 .244.112.244.242v4.214a.248.248 0 0 1-.244.244h-.32m2.316-4.042a.249.249 0 0 1-.243-.245v-.17c0-.13.112-.242.243-.242h.291v-.967a.32.32 0 0 1 .235-.3l.337-.066a.192.192 0 0 1 .235.188v1.145h.723c.13 0 .244.112.244.242v.17a.25.25 0 0 1-.244.245h-.723v3.086c0 .3.122.432.385.432a.905.905 0 0 0 .29-.047.237.237 0 0 1 .292.16l.037.14a.265.265 0 0 1-.168.31 1.7 1.7 0 0 1-.517.085c-.637 0-1.126-.254-1.126-1.005V2.766h-.291m4.053 5.93c-.13.037-.262-.047-.3-.179l-.046-.178a.25.25 0 0 1 .168-.31c.582-.187.826-.44 1.06-1.22h-.009a.262.262 0 0 1-.244-.178l-1.332-4.288a.176.176 0 0 1 .169-.234h.394a.32.32 0 0 1 .31.234l.722 2.533c.103.376.216.929.281 1.286h.01c.066-.338.15-.826.29-1.286l.761-2.533a.339.339 0 0 1 .319-.234h.347c.123 0 .207.112.17.234l-1.484 4.617c-.422 1.267-.788 1.548-1.585 1.736m-59.229 8.847c.713 0 1.05-.385 1.05-1.83 0-1.454-.347-1.84-1.06-1.84-.713 0-1.05.377-1.05 1.83 0 1.445.347 1.84 1.06 1.84zm0 .638c-1.145 0-1.924-.713-1.924-2.478 0-1.764.76-2.467 1.905-2.467s1.933.703 1.933 2.467c0 1.765-.77 2.478-1.914 2.478m3.306-4.165a.25.25 0 0 1-.244-.245v-.17c0-.13.113-.242.244-.242h.272v-.751c0-1.08.554-1.4 1.248-1.4.272 0 .535.049.76.142.122.047.179.197.122.32l-.075.158a.293.293 0 0 1-.338.151 1.113 1.113 0 0 0-.356-.057c-.395 0-.554.198-.554.676v.76h.638c.132 0 .244.113.244.243v.17a.25.25 0 0 1-.244.245h-.638v3.8a.248.248 0 0 1-.244.243h-.319a.248.248 0 0 1-.244-.244v-3.8h-.272m7.164.319l-.328 1.117h1.576l-.31-1.117c-.281-1.004-.357-1.37-.45-1.868h-.019c-.094.517-.178.883-.47 1.868zm-1.727 3.726a.176.176 0 0 1-.168-.235l1.848-6.006a.341.341 0 0 1 .319-.234h.47c.14 0 .271.094.309.234l1.811 6.006c.028.122-.057.235-.179.235h-.46a.32.32 0 0 1-.309-.235l-.46-1.641h-1.998l-.48 1.641a.32.32 0 0 1-.309.235h-.394m7.974-.572c.667 0 .957-.244.957-1.755 0-1.51-.244-1.802-.881-1.802-.46 0-.78.235-1.118.554v2.542c.273.264.648.461 1.042.461zm-1.604 2.458a.248.248 0 0 1-.244-.244v-6.1c0-.13.112-.242.244-.242h.14a.31.31 0 0 1 .3.234l.075.3c.358-.394.808-.657 1.306-.657.9 0 1.604.507 1.604 2.44 0 1.765-.516 2.505-1.614 2.505-.517 0-.949-.234-1.249-.525v2.045a.247.247 0 0 1-.243.244h-.32m6.984-2.458c.666 0 .957-.244.957-1.755 0-1.51-.244-1.802-.882-1.802-.46 0-.778.235-1.117.554v2.542c.273.264.648.461 1.042.461zm-1.605 2.458a.248.248 0 0 1-.244-.245v-6.1c0-.13.112-.242.244-.242h.14a.31.31 0 0 1 .3.234l.076.3c.356-.394.807-.657 1.304-.657.9 0 1.605.507 1.605 2.44 0 1.765-.516 2.505-1.614 2.505-.516 0-.948-.234-1.248-.526v2.046a.248.248 0 0 1-.245.244h-.318m5.989-1.791c-.601 0-.854-.32-.854-1.145v-5.5c0-.13.112-.243.244-.243h.318a.25.25 0 0 1 .244.244v5.65c0 .233.103.328.329.328.038 0 .075 0 .103-.01.047 0 .094.028.103.076l.047.272a.245.245 0 0 1-.187.29 2.212 2.212 0 0 1-.347.038m2.605-5.668a.553.553 0 0 1-.554-.573c0-.328.244-.582.563-.582a.56.56 0 0 1 .572.582.565.565 0 0 1-.581.573zm-.141 5.573a.249.249 0 0 1-.245-.244v-3.828l-.45-.076a.282.282 0 0 1-.243-.281v-.03c0-.13.112-.242.243-.242h1.014c.131 0 .244.112.244.242v4.214a.248.248 0 0 1-.244.244h-.32m4.043-4.184c-.544 0-.882.282-.948 1.409h1.868c0-1.08-.244-1.409-.92-1.409zm.103 4.308c-1.229 0-1.924-.713-1.924-2.478 0-1.782.732-2.467 1.84-2.467 1.116 0 1.755.637 1.755 2.336v.169c0 .084-.066.15-.15.15h-2.581c.018 1.285.3 1.605 1.08 1.605.403 0 .666-.122.909-.292a.25.25 0 0 1 .348.048l.15.196a.243.243 0 0 1-.057.339c-.384.272-.779.394-1.37.394m4.856-.694c.46 0 .779-.188 1.116-.507V14.44c-.273-.264-.648-.508-1.042-.508-.666 0-.957.244-.957 1.755s.244 1.802.883 1.802zm-.141.694c-.901 0-1.605-.506-1.605-2.44 0-1.764.516-2.505 1.614-2.505.516 0 .948.281 1.248.573v-2.3a.25.25 0 0 1 .244-.244h.32a.25.25 0 0 1 .244.244v6.306a.248.248 0 0 1-.245.244h-.14a.32.32 0 0 1-.31-.234l-.066-.254c-.357.395-.807.61-1.304.61m7.903 0c-.665 0-1.294-.197-1.745-.507a.256.256 0 0 1-.075-.348l.123-.215c.075-.113.225-.15.328-.075.422.282.76.404 1.304.404.863 0 1.183-.394 1.183-1.061 0-.789-.442-1.013-1.23-1.313-1.07-.414-1.558-.845-1.558-1.924 0-1.107.695-1.671 1.82-1.671.592 0 .995.113 1.352.32.112.066.16.215.094.337l-.122.244a.245.245 0 0 1-.329.093 1.77 1.77 0 0 0-.948-.252c-.619 0-1.013.252-1.013.9 0 .658.254.846 1.033 1.146 1.003.385 1.792.779 1.792 2.073 0 .958-.478 1.849-2.009 1.849m5.374 0c-1.2 0-1.867-.789-1.867-2.478 0-1.792.713-2.467 1.876-2.467.451 0 .808.102 1.145.374a.233.233 0 0 1 .038.339l-.15.188a.251.251 0 0 1-.347.028 1.06 1.06 0 0 0-.713-.245c-.713 0-.986.31-.986 1.783 0 1.445.3 1.793 1.051 1.793.29 0 .488-.112.685-.272.103-.084.263-.076.347.028l.17.178a.231.231 0 0 1-.02.339c-.309.272-.694.412-1.229.412m3.671-5.696a.553.553 0 0 1-.553-.573c0-.328.244-.582.563-.582a.56.56 0 0 1 .572.582.566.566 0 0 1-.582.573zm-.14 5.573a.248.248 0 0 1-.245-.244v-3.828l-.45-.076a.283.283 0 0 1-.244-.281v-.03c0-.13.113-.242.244-.242h1.014c.13 0 .244.112.244.242v4.214a.248.248 0 0 1-.244.244h-.32m4.043-4.184c-.545 0-.882.282-.948 1.409h1.868c0-1.08-.245-1.409-.92-1.409zm.103 4.308c-1.23 0-1.924-.713-1.924-2.478 0-1.782.732-2.467 1.84-2.467 1.116 0 1.755.637 1.755 2.336v.169c0 .084-.066.15-.15.15h-2.581c.018 1.285.3 1.605 1.079 1.605.403 0 .666-.122.91-.292a.25.25 0 0 1 .347.048l.15.196c.075.104.057.264-.056.339-.385.272-.779.394-1.37.394m3.549-.122a.248.248 0 0 1-.244-.245v-4.214c0-.13.112-.242.244-.242h.14a.3.3 0 0 1 .292.234l.075.347c.412-.413.882-.704 1.435-.704.676 0 1.136.347 1.136 1.145v3.434a.248.248 0 0 1-.244.244h-.32a.248.248 0 0 1-.244-.244v-3.181c0-.535-.15-.685-.571-.685-.376 0-.798.263-1.136.563v3.303a.248.248 0 0 1-.244.244h-.319m6.585.123c-1.201 0-1.868-.789-1.868-2.478 0-1.792.714-2.467 1.877-2.467.451 0 .808.102 1.145.374a.232.232 0 0 1 .037.339l-.15.188a.25.25 0 0 1-.346.028 1.062 1.062 0 0 0-.714-.245c-.713 0-.985.31-.985 1.783 0 1.445.3 1.793 1.051 1.793.29 0 .488-.112.685-.272.103-.084.263-.076.347.028l.169.178a.231.231 0 0 1-.018.339c-.31.272-.695.412-1.23.412m4.351-4.308c-.544 0-.882.282-.948 1.409h1.868c0-1.08-.244-1.409-.92-1.409zm.103 4.308c-1.23 0-1.924-.713-1.924-2.478 0-1.782.732-2.467 1.84-2.467 1.117 0 1.755.637 1.755 2.336v.169c0 .084-.066.15-.15.15h-2.58c.017 1.285.3 1.605 1.078 1.605.404 0 .667-.122.91-.292a.25.25 0 0 1 .348.048l.15.196a.243.243 0 0 1-.057.339c-.384.272-.778.394-1.37.394m4.416 0a2.85 2.85 0 0 1-1.36-.366.256.256 0 0 1-.085-.338l.103-.179a.239.239 0 0 1 .329-.094c.328.188.665.3 1.05.3.639 0 .835-.252.835-.693 0-.526-.244-.628-.994-.836-.657-.178-1.201-.525-1.201-1.454 0-.684.441-1.285 1.473-1.285.45 0 .788.074 1.089.196a.251.251 0 0 1 .122.329l-.085.188a.253.253 0 0 1-.328.132 1.717 1.717 0 0 0-.77-.16c-.507 0-.741.178-.741.58 0 .442.197.555.844.733.723.197 1.38.479 1.38 1.54 0 .975-.554 1.407-1.661 1.407M17.4-.005c7.271 0 13.168 5.894 13.168 13.168 0 4.884-2.264 9.123-5.928 11.421-.071.045-.123.113-.123.203 0 .16.127.201.136.205 4.752 1.839 7.733 6.692 7.733 12.327 0 7.276-5.898 13.17-13.17 13.17L1.83 50.485A1.827 1.827 0 0 1 0 48.66V1.823C0 .813.818-.004 1.828-.004H17.4" fill="#697d91"/>
 <path d="M11.034 41.548a.438.438 0 0 1-.431-.432V30.558c0-.232.199-.43.431-.43h.663c.232 0 .432.198.432.43v4.677h4.11v-4.677c0-.232.2-.43.431-.43h.663c.232 0 .431.198.431.43v10.558a.439.439 0 0 1-.43.432h-.664a.438.438 0 0 1-.43-.432v-4.539h-4.11v4.54a.44.44 0 0 1-.433.43h-.663m-.044-21.231a.438.438 0 0 1-.43-.43V9.325a.44.44 0 0 1 .43-.434h6.352c.232 0 .432.201.432.433v.448c0 .232-.2.43-.432.43h-5.257v3.67h4.477a.44.44 0 0 1 .433.431v.449c0 .232-.2.43-.433.43h-4.477v4.702c0 .232-.198.43-.431.43h-.664" fill="#fac300"/>
</svg>
