<?xml version="1.0" encoding="UTF-8"?>
<svg id="svg2" width="434" height="202" version="1.1" viewBox="0 0 434 202" xml:space="preserve" xmlns="http://www.w3.org/2000/svg"><g id="g10" transform="matrix(1.3333 0 0 -1.3333 -165.45 622.89)"><g id="g12" transform="scale(.1)"><path id="path14" d="m4495.8 3156.7h-3255v1515h3255v-1515" fill="#fff"/><path id="path16" d="m1855.7 3930.4h204.3" fill="none" stroke="#cce5f5" stroke-linecap="round" stroke-width="50"/><path id="path18" d="m2162.2 4105.5-102.2-175" fill="none" stroke="#cce5f5" stroke-linecap="round" stroke-width="50"/><path id="path20" d="m2162.2 3755.5-102.16 174.96" fill="none" stroke="#cce5f5" stroke-linecap="round" stroke-width="50"/><path id="path22" d="m1918.1 3737.3h-177.7" fill="none" stroke="#cce5f5" stroke-linecap="round" stroke-width="50"/><path id="path24" d="m1651.5 3889.5 88.85-152.13" fill="none" stroke="#cce5f5" stroke-linecap="round" stroke-width="50"/><path id="path26" d="m1651.5 3585.2 88.83 152.13" fill="none" stroke="#cce5f5" stroke-linecap="round" stroke-width="50"/><path id="path28" d="m1918.1 4119.3h-177.7" fill="none" stroke="#cce5f5" stroke-linecap="round" stroke-width="50"/><path id="path30" d="m1651.5 4271.5 88.85-152.13" fill="none" stroke="#cce5f5" stroke-linecap="round" stroke-width="50"/><path id="path32" d="m1651.5 3967.2 88.83 152.14" fill="none" stroke="#cce5f5" stroke-linecap="round" stroke-width="50"/><path id="path34" d="m2510.6 4118.8c0 30.06-24.54 55.2-55.2 55.2h-67.48c-4.29 0-6.14-1.84-6.14-6.13v-110.4c0-4.29 1.85-6.13 6.14-6.13h67.48c30.66 0 55.2 25.15 55.2 55.21zm0 165.61c0 30.68-24.54 55.21-55.2 55.21h-67.48c-4.29 0-6.14-1.84-6.14-6.13v-104.28c0-4.3 1.85-6.13 6.14-6.13h67.48c30.66 0 55.2 24.53 55.2 55.2zm-55.2-282.16h-122.68c-4.3 0-6.13 1.84-6.13 6.14v374.17c0 4.29 1.83 6.14 6.13 6.14h122.68c67.48 0 110.41-42.95 110.41-110.42v-6.13c0-14.72-6.14-31.9-19.02-49.69-10.42-14.72-22.69-20.24-22.69-24.54 0-3.67 12.27-10.42 22.69-26.37 12.88-19.02 19.02-36.19 19.02-50.92v-9.2c0-67.46-42.33-109.18-110.41-109.18" fill="#0994d5"/><path id="path36" d="m2764.5 4218.2c-5.52 0-14.72 4.29-30.06 4.29-34.35 0-55.2-20.85-55.2-54.59v-159.48c0-4.3-1.84-6.14-6.13-6.14h-42.95c-4.3 0-6.13 1.84-6.13 6.14v263.76c0 4.28 1.83 6.13 6.13 6.13h36.81c4.29 0 6.14-1.85 6.14-6.13v-19.63c0-4.91 2.44-7.36 5.51-7.36 6.13 0 24.54 33.12 57.66 33.12 23.31 0 31.91-0.62 31.91-7.98v-45.99c0-3.68-1.23-6.14-3.69-6.14" fill="#0994d5"/><path id="path38" d="m2936.3 4109.6c0 3.67-2.44 6.13-6.13 6.13h-70.54c-15.34 0-26.99-11.66-26.99-26.99v-9.81c0-15.95 11.65-27.61 26.99-27.61h23.92c23.32 0 41.72 15.34 52.15 44.17l0.6 11.65zm49.08-107.35h-36.81c-4.29 0-6.13 1.84-6.13 6.14v7.97c0 4.29-1.84 6.74-4.29 6.74-9.21 0-26.38-20.85-54.6-20.85h-23.92c-48.46 0-81.58 32.5-81.58 76.68v3.68c0 44.16 33.12 76.05 81.58 76.05h70.54c4.3 0 6.13 1.85 6.13 6.15l-0.6 17.17c-1.23 31.28-23.31 53.98-55.22 53.98-13.49 0-25.76-5.52-33.12-13.5-13.49-14.72-19.01-24.54-22.7-24.54-1.22 0-2.44 0.62-3.67 1.23l-37.42 19.63c-2.45 1.23-3.67 2.46-3.67 4.91 0 4.91 7.97 20.24 27.59 37.41 17.17 15.33 41.71 23.31 72.99 23.31 66.87 0 109.8-41.09 110.42-102.43l0.61-80.98v-92.61c0-4.3-1.84-6.14-6.13-6.14" fill="#0994d5"/><path id="path40" d="m3270.6 4002.3h-42.92c-4.3 0-6.14 1.84-6.14 6.14v165.61c0 30.06-23.92 55.21-55.21 55.21-30.67 0-55.2-25.15-55.2-55.21v-165.61c0-4.3-1.84-6.14-6.13-6.14h-42.95c-4.3 0-6.13 1.84-6.13 6.14v263.76c0 4.28 1.83 6.13 6.13 6.13h36.81c4.29 0 6.14-1.85 6.14-6.13v-7.36c0-4.29 1.84-6.75 4.29-6.75 7.97 0 25.14 20.24 61.33 20.24 61.96 0 106.13-42.32 106.13-104.28v-165.61c0-4.3-1.85-6.14-6.15-6.14" fill="#0994d5"/><path id="path42" d="m3485.3 4174c0 30.06-24.55 55.21-55.22 55.21-31.28 0-55.2-25.15-55.2-55.21v-67.47c0-30.06 23.92-55.21 55.2-55.21 30.67 0 55.22 25.15 55.22 55.21zm49.06-171.75h-36.79c-4.3 0-6.13 1.84-6.13 6.14v7.36c0 4.29-1.86 6.74-4.3 6.74-7.99 0-25.77-20.24-61.36-20.24-61.94 0-106.11 42.33-106.11 104.28v67.47c0 60.11 43.55 104.28 104.27 104.28 30.68 0 48.46-20.24 57.07-20.24 2.44 0 4.29 2.46 4.29 6.75v117.77c0 4.29 1.84 6.14 6.14 6.14h42.92c3.7 0 6.14-1.85 6.14-6.14v-374.17c0-4.3-1.84-6.14-6.14-6.14" fill="#0994d5"/><path id="path44" d="m3751.5 4180.2c0 30.06-24.54 55.2-55.22 55.2-30.66 0-55.2-25.14-55.2-55.2v-79.74c0-30.06 23.93-55.22 55.2-55.22 30.68 0 55.22 25.16 55.22 55.22zm-55.22-184.02c-66.86 0-110.41 41.7-110.41 104.28v79.74c0 62.56 43.55 104.27 110.41 104.27 66.88 0 110.41-42.32 110.41-104.27v-79.74c0-62.58-43.53-104.28-110.41-104.28" fill="#0994d5"/><path id="path46" d="m3993.2 4218.2c-5.52 0-14.72 4.29-30.06 4.29-34.35 0-55.21-20.85-55.21-54.59v-159.48c0-4.3-1.84-6.14-6.13-6.14h-42.93c-4.3 0-6.14 1.84-6.14 6.14v263.76c0 4.28 1.84 6.13 6.14 6.13h36.79c4.3 0 6.14-1.85 6.14-6.13v-19.63c0-4.91 2.46-7.36 5.52-7.36 6.14 0 24.54 33.12 57.66 33.12 23.32 0 31.9-0.62 31.9-7.98v-45.99c0-3.68-1.22-6.14-3.68-6.14" fill="#0994d5"/><path id="path48" d="m4165.6 4218.2c-5.53 0-14.73 4.29-30.06 4.29-34.36 0-55.2-20.85-55.2-54.59v-159.48c0-4.3-1.85-6.14-6.13-6.14h-42.95c-4.3 0-6.13 1.84-6.13 6.14v263.76c0 4.28 1.83 6.13 6.13 6.13h36.8c4.29 0 6.15-1.85 6.15-6.13v-19.63c0-4.91 2.44-7.36 5.51-7.36 6.13 0 24.53 33.12 57.65 33.12 23.32 0 31.9-0.62 31.9-7.98v-45.99c0-3.68-1.21-6.14-3.67-6.14" fill="#0994d5"/><path id="path50" d="m2181.1 3739.5 107.26 183.7" fill="none" stroke="#81c3e8" stroke-linecap="round" stroke-width="50"/><path id="path52" d="m1855.7 4288.4 102.16-174.95" fill="none" stroke="#81c3e8" stroke-linecap="round" stroke-width="50"/><path id="path54" d="m2162.2 3732.9h-204.3" fill="none" stroke="#81c3e8" stroke-linecap="round" stroke-width="50"/><path id="path56" d="m1855.7 3908 102.16-174.96" fill="none" stroke="#81c3e8" stroke-linecap="round" stroke-width="50"/><path id="path58" d="m1855.7 3558 102.16 174.96" fill="none" stroke="#81c3e8" stroke-linecap="round" stroke-width="50"/><path id="path60" d="m1808.2 4304h-177.7" fill="none" stroke="#81c3e8" stroke-linecap="round" stroke-width="50"/><path id="path62" d="m1541.6 4456.2 88.83-152.14" fill="none" stroke="#81c3e8" stroke-linecap="round" stroke-width="50"/><path id="path64" d="m1541.6 4151.9 88.83 152.13" fill="none" stroke="#81c3e8" stroke-linecap="round" stroke-width="50"/><path id="path66" d="m1541.6 3771.4 88.83 152.13" fill="none" stroke="#81c3e8" stroke-linecap="round" stroke-width="50"/><path id="path68" d="m1808.2 3543.2h-177.7" fill="none" stroke="#81c3e8" stroke-linecap="round" stroke-width="50"/><path id="path70" d="m1541.6 3695.4 88.83-152.13" fill="none" stroke="#81c3e8" stroke-linecap="round" stroke-width="50"/><path id="path72" d="m1541.6 3391.1 88.83 152.14" fill="none" stroke="#81c3e8" stroke-linecap="round" stroke-width="50"/><path id="path74" d="m2438.7 3490.6h-17.09c-58.44 0-95.93 36.4-95.93 90.42v177.53c0 54.03 37.49 90.43 95.93 90.43h27.57c51.27 0 85.46-29.78 85.46-47.97 0-1.66-1.66-3.32-3.86-4.41l-23.16-11.58c-1.1-0.56-2.21-0.56-2.75-0.56-1.66 0-2.76 0.56-3.87 2.21-15.44 16-27.01 30.32-51.82 30.32h-27.57c-33.08 0-58.44-25.35-58.44-58.44v-177.53c0-33.08 25.91-58.99 58.44-58.99h17.09c31.98 0 58.99 26.47 58.99 58.99v44.11c0 3.31-2.2 5.5-5.51 5.5h-57.89c-3.86 0-5.51 1.66-5.51 5.52v20.95c0 3.87 1.65 5.52 5.51 5.52h95.38c3.31 0 5.51-1.65 5.51-5.52v-76.08c0-54.02-38.04-90.42-96.48-90.42" fill="#69b8e4"/><path id="path76" d="m2698.9 3700.7c-4.41 0-11.58 1.67-20.95 1.67-33.63 0-58.44-25.38-58.44-57.9v-142.79c0-3.87-1.66-5.52-5.52-5.52h-26.46c-3.86 0-5.51 1.65-5.51 5.52v232.67c0 3.85 1.65 5.5 5.51 5.5h20.4c3.86 0 5.51-1.65 5.51-5.5v-27.58c0-3.85 2.2-6.07 4.41-6.07 6.06 0 14.88 13.79 34.73 29.78 6.08 4.97 17.65 9.37 25.37 9.37h20.4c3.86 0 5.51-1.65 5.51-5.5v-28.12c0-4.42-1.1-5.53-4.96-5.53" fill="#69b8e4"/><path id="path78" d="m2873.1 3655.5c0 31.42-25.91 58.45-58.99 58.45-33.65 0-58.45-25.92-58.45-58.45v-74.43c0-31.98 25.36-58.99 58.45-58.99 33.08 0 58.99 27.01 58.99 58.99zm-58.99-164.85c-58.45 0-95.38 35.84-95.38 90.42v74.43c0 54.58 36.93 89.86 95.38 89.86 58.43 0 96.48-36.37 96.48-89.86v-74.43c0-54.02-38.05-90.42-96.48-90.42" fill="#69b8e4"/><path id="path80" d="m3139.3 3496.2h-20.4c-3.87 0-5.52 1.65-5.52 5.52v23.71c0 3.86-2.2 6.07-4.41 6.07-4.97 0-10.47-8.83-20.4-18.75-11.03-10.48-27.56-16.55-45.76-16.55-50.17 0-89.86 36.95-89.86 90.42v147.77c0 3.85 1.65 5.5 5.51 5.5h25.91c3.86 0 5.51-1.65 5.51-5.5v-147.77c0-31.97 25.91-58.99 58.44-58.99 34.19 0 59.55 26.46 59.55 58.99v147.77c0 3.85 1.65 5.5 5.51 5.5h25.92c3.86 0 5.51-1.65 5.51-5.5v-232.67c0-3.87-1.65-5.52-5.51-5.52" fill="#69b8e4"/><path id="path82" d="m3353.2 3650c0 31.43-25.91 58.44-59 58.44-33.62 0-58.44-25.91-58.44-58.44v-63.41c0-31.97 25.36-58.99 58.44-58.99 33.09 0 59 27.02 59 58.99zm11.02-128.47c-15.98-16.53-36.38-25.36-58.99-25.36-13.78 0-24.81 3.31-30.87 7.18-19.3 12.68-28.68 27-34.74 27-2.21 0-3.86-2.75-3.86-6.6v-146.12c0-3.85-1.66-5.51-5.51-5.51h-26.47c-3.86 0-5.51 1.66-5.51 5.51v356.73c0 3.85 1.65 5.5 5.51 5.5h20.4c3.87 0 5.52-1.65 5.52-5.5v-22.07c0-3.29 2.2-6.05 4.4-6.05 3.87 0 8.28 5.51 16.55 12.67 12.68 10.49 22.05 20.95 48.51 20.95 51.28 0 91.52-36.93 91.52-89.86v-63.41c0-23.7-9.37-46.86-26.46-65.06" fill="#69b8e4"/><path id="path84" d="m3720.3 3496.2h-180.84c-3.86 0-5.51 1.65-5.51 5.52v335.76c0 3.87 1.65 5.52 5.51 5.52h25.91c3.87 0 5.52-1.65 5.52-5.52v-304.4c0-3.86 1.65-5.52 5.51-5.52h143.9c3.87 0 5.51-2.2 5.51-5.51v-20.4c0-3.87-1.64-5.52-5.51-5.52" fill="#69b8e4"/><path id="path86" d="m3947.4 3496.2h-180.84c-3.87 0-5.52 1.65-5.52 5.52v335.76c0 3.87 1.65 5.52 5.52 5.52h25.91c3.86 0 5.51-1.65 5.51-5.52v-304.4c0-3.86 1.66-5.52 5.52-5.52h143.9c3.86 0 5.51-2.2 5.51-5.51v-20.4c0-3.87-1.65-5.52-5.51-5.52" fill="#69b8e4"/><path id="path88" d="m4169 3539.2c0-17.65-33.62-48.52-85.46-48.52h-17.09c-58.43 0-95.92 36.4-95.92 90.42v177.53c0 54.03 37.49 90.43 95.92 90.43h17.09c50.74 0 86.02-29.78 86.02-47.97 0-1.66-1.65-3.32-3.87-4.41l-23.15-11.58c-1.11-0.56-2.2-0.56-2.76-0.56-1.65 0-2.19 0.56-3.85 2.21-16.55 16-28.68 30.32-52.39 30.32h-17.09c-33.08 0-58.43-25.35-58.43-58.44v-177.53c0-33.08 25.9-58.99 58.43-58.99h17.09c12.69 0 27.03 5.51 35.84 13.78 12.13 11.58 17.09 19.85 20.4 19.85 0.56 0 1.65 0 2.76-0.54l23.15-11.59c2.77-1.1 3.31-2.2 3.31-4.41" fill="#69b8e4"/><path id="path90" d="m4190.1 3903.3h-1901.7c-11.02 0-19.98 8.96-19.98 19.99 0 3.22 0 3.22-96.7 170.13l-2.89 4.99h-202.44l-2.88-4.97-94.9-162.55-0.86-1.5c-7.48-13.79-15.26-20.76-23.16-20.76h-214.14c-6.18 0-11.8 3.92-13.99 9.75l-0.29 0.79-0.44 0.74-87.09 149.14c-2.03 3.46-2.6 7.52-1.57 11.38 1.03 3.89 3.49 7.12 6.93 9.13 2.32 1.35 4.93 2.07 7.56 2.07 5.31 0 10.28-2.85 12.95-7.44l82.16-140.62 2.89-4.95h198.89l2.9 5.22c1.95 3.46 68.57 117.38 103.51 177.11l-0.06-0.15c0.04 0 0.25 0.32 0.46 0.63l0.04 0.06 0.71 0.96c0.38 0.51 0.73 0.98 1.15 1.42l0.1 0.11 0.69 0.56c0.4 0.38 0.79 0.78 1.25 1.07l0.11 0.06 1.04 0.61c0.44 0.27 0.88 0.56 1.34 0.77 0.31 0.14 0.69 0.25 1.06 0.36l1.42 0.49c0.55 0.13 1.09 0.19 1.61 0.26 0.61 0.1 1.03 0.16 1.45 0.16l216.37 0.1c10.94 0 18.42-9.83 20.19-13.3l97.45-166.85 2.89-4.97h1895.9c11.02 0 19.99-8.98 19.99-20.01s-8.97-19.99-19.99-19.99" fill="#fbc108"/><path id="path92" d="m2173.6 4118.4h-214.72c-0.42-0.04-0.84-0.07-1.27-0.08l-0.33-0.07-0.65-0.09-0.2-0.08-0.14-0.04-0.57-0.2-0.16-0.11-0.65-0.38-0.37-0.34-0.32-0.28-0.29-0.39-0.5-0.67-0.47-0.71-0.05-0.07c-28.34-48.44-100.35-171.58-102.84-175.99l-5.74-10.17-11.75-0.13h-198.76l-5.79 9.91-82.14 140.61c-1.35 2.31-3.66 2.49-4.34 2.49-0.87 0-1.71-0.23-2.5-0.69-1.47-0.86-2.06-2.13-2.3-3.04s-0.34-2.3 0.51-3.76l87.11-149.18 0.84-1.46 0.6-1.58c0.58-1.52 2.13-3.3 4.63-3.3h214.14c1.4 0 6.55 1.12 14.38 15.53 0.41 0.76 0.76 1.38 1.01 1.8l94.9 162.55 5.79 9.92h213.93l5.78-9.98s23.83-41.15 47.68-82.37c50.35-87.08 50.35-87.08 50.35-92.79 0-5.51 4.5-9.99 10.01-9.99h1901.7c5.51 0 9.99 4.48 9.99 9.99 0 5.52-4.48 10.01-9.99 10.01h-1901.6l-5.79 9.92-97.18 166.38-0.28 0.48-0.26 0.5c-0.62 1.22-5.35 7.85-11.28 7.85zm0 20c15.7 0 26.01-12.73 29.09-18.74l97.18-166.39h1890.2c16.55 0 29.99-13.42 29.99-30.01 0-16.56-13.44-29.99-29.99-29.99h-1901.7c-16.58 0-30.01 13.43-30.01 29.99 0 0.54-95.34 165.14-95.34 165.14h-190.92l-94.91-162.56c-2.16-3.69-13.24-27.24-32.65-27.24h-214.14c-10.71 0-19.78 6.79-23.35 16.25l-87.09 149.15c-6.98 11.92-2.94 27.24 8.97 34.19 3.97 2.32 8.31 3.42 12.59 3.42 8.59 0 16.96-4.44 21.6-12.4l82.14-140.61h187.28c0.36 0.81 103.65 177.39 103.65 177.39 0.17 0.3 0.42 0.54 0.6 0.84 0.36 0.54 0.76 1.06 1.15 1.58 0.61 0.8 1.21 1.59 1.9 2.29 0.41 0.44 0.87 0.81 1.3 1.2 0.76 0.68 1.51 1.34 2.33 1.92 0.53 0.37 1.1 0.67 1.66 1.01 0.8 0.47 1.59 0.94 2.43 1.32 0.7 0.32 1.42 0.54 2.14 0.79 0.79 0.27 1.56 0.54 2.37 0.74 0.79 0.17 1.59 0.27 2.39 0.38 0.83 0.11 1.64 0.22 2.48 0.25 0.29 0.01 0.57 0.09 0.88 0.09h215.74" fill="#00a650"/></g></g></svg>
