<svg xmlns="http://www.w3.org/2000/svg" width="731.303" height="360.3" viewBox="0 0 731.30277 360.30037"><g transform="translate(-223.797 -245.045)"><circle cx="871.461" cy="356.042" r="35.626" fill="#e95420"/><path d="M847.235 351.284a4.756 4.756 0 1 0 0 9.514 4.757 4.757 0 1 0 0-9.514zm33.961 21.618a4.756 4.756 0 1 0 4.755 8.237 4.756 4.756 0 0 0-4.755-8.237zm-23.629-16.86c0-4.7 2.334-8.854 5.906-11.368l-3.478-5.825a20.7 20.7 0 0 0-8.543 12.012 6.674 6.674 0 0 1 2.461 5.181 6.676 6.676 0 0 1-2.461 5.18c1.283 4.98 4.382 9.23 8.543 12.013l3.478-5.826a13.873 13.873 0 0 1-5.906-11.367zm13.893-13.895c7.258 0 13.213 5.564 13.838 12.661l6.776-.1c-.332-5.239-2.621-9.943-6.139-13.402a6.663 6.663 0 0 1-5.703-.462 6.664 6.664 0 0 1-3.254-4.716 20.709 20.709 0 0 0-5.52-.75 20.57 20.57 0 0 0-9.156 2.139l3.305 5.923a13.829 13.829 0 0 1 5.853-1.293zm0 27.788c-2.093 0-4.074-.465-5.853-1.292l-3.305 5.923a20.57 20.57 0 0 0 9.156 2.14c1.914 0 3.762-.266 5.52-.752a6.668 6.668 0 0 1 3.254-4.716 6.664 6.664 0 0 1 5.703-.462 20.584 20.584 0 0 0 6.139-13.401l-6.778-.1c-.623 7.096-6.578 12.66-13.836 12.66zm9.734-30.757a4.754 4.754 0 0 0 6.496-1.738 4.757 4.757 0 0 0-1.74-6.497 4.754 4.754 0 1 0-4.756 8.235z" fill="#fff"/></g><path d="M159.265 204.476c-3.621.906-8.397 1.865-14.335 2.885-5.938 1.018-12.81 1.525-20.613 1.525-6.784 0-12.497-.99-17.134-2.967-4.64-1.979-8.372-4.779-11.196-8.398-2.828-3.619-4.864-7.89-6.107-12.81-1.247-4.92-1.867-10.376-1.867-16.37v-49.536h15.777v46.144c0 10.746 1.697 18.436 5.09 23.071 3.392 4.64 9.103 6.957 17.134 6.957 1.696 0 3.448-.059 5.259-.172 1.809-.109 3.505-.254 5.09-.424 1.583-.17 3.024-.34 4.325-.508 1.299-.17 2.23-.365 2.8-.594v-74.475h15.776v85.672zm38.508-81.77c1.92-1.242 4.835-2.544 8.737-3.9 3.902-1.357 8.396-2.036 13.486-2.036 6.333 0 11.96 1.131 16.88 3.392 4.919 2.264 9.075 5.43 12.468 9.501 3.394 4.071 5.964 8.935 7.72 14.59 1.752 5.655 2.629 11.874 2.629 18.66 0 7.125-1.047 13.544-3.14 19.255-2.093 5.711-5.062 10.545-8.906 14.504-3.846 3.961-8.481 7.016-13.911 9.162-5.428 2.146-11.536 3.223-18.321 3.223-7.354 0-13.855-.508-19.51-1.525-5.656-1.02-10.292-2.035-13.91-3.055V78.09l15.776-2.713v47.33h.002zm0 70.575c1.583.453 3.817.875 6.7 1.27 2.885.398 6.474.598 10.773.598 8.48 0 15.268-2.803 20.356-8.398 5.089-5.6 7.634-13.543 7.634-23.836 0-4.52-.454-8.763-1.356-12.724-.907-3.957-2.375-7.378-4.411-10.263-2.036-2.884-4.666-5.146-7.89-6.787-3.224-1.638-7.1-2.459-11.62-2.459-4.301 0-8.258.737-11.875 2.205-3.621 1.473-6.392 3-8.312 4.581v55.813zm149.965 11.195c-3.623.906-8.397 1.865-14.337 2.885-5.938 1.018-12.808 1.525-20.61 1.525-6.786 0-12.5-.99-17.136-2.967-4.64-1.979-8.372-4.779-11.196-8.398-2.828-3.619-4.863-7.89-6.106-12.81-1.247-4.92-1.867-10.376-1.867-16.37v-49.536h15.778v46.144c0 10.746 1.696 18.436 5.089 23.071 3.394 4.64 9.104 6.957 17.135 6.957 1.696 0 3.449-.059 5.26-.172 1.808-.109 3.505-.254 5.089-.424 1.583-.17 3.024-.34 4.327-.508 1.298-.17 2.23-.365 2.798-.594v-74.475h15.778l-.002 85.672zm22.73-83.126c3.62-.904 8.425-1.866 14.42-2.885 5.994-1.017 12.893-1.525 20.697-1.525 7.012 0 12.834.99 17.473 2.968 4.637 1.98 8.34 4.75 11.11 8.312 2.772 3.563 4.722 7.834 5.855 12.81 1.129 4.978 1.697 10.462 1.697 16.456v49.536h-15.777v-46.145c0-5.427-.368-10.062-1.104-13.909-.736-3.843-1.95-6.956-3.646-9.33-1.696-2.376-3.96-4.1-6.784-5.175-2.83-1.074-6.336-1.61-10.52-1.61-1.696 0-3.452.058-5.26.17-1.811.112-3.534.255-5.173.425a64.224 64.224 0 0 0-4.41.593c-1.303.228-2.236.397-2.8.508v74.474h-15.778V121.35zm107.724-2.544h33.42v13.232h-33.42v40.714c0 4.412.338 8.058 1.019 10.941.678 2.887 1.694 5.146 3.053 6.787a10.946 10.946 0 0 0 5.09 3.477c2.035.68 4.41 1.021 7.125 1.021 4.86 0 8.709-.537 11.535-1.613 2.824-1.072 4.75-1.836 5.768-2.289l3.394 12.895c-1.584.791-4.385 1.811-8.396 3.053-4.016 1.242-8.565 1.865-13.658 1.865-5.991 0-10.938-.762-14.842-2.29-3.901-1.526-7.041-3.815-9.414-6.87-2.377-3.055-4.047-6.814-5.006-11.283-.963-4.465-1.442-9.64-1.442-15.522V94.21l15.778-2.714v27.312h-.004zm119.257 85.67c-3.618.906-8.397 1.865-14.334 2.885-5.938 1.018-12.81 1.525-20.612 1.525-6.785 0-12.498-.99-17.133-2.967-4.642-1.979-8.371-4.779-11.197-8.398-2.828-3.619-4.863-7.89-6.107-12.81-1.246-4.92-1.867-10.376-1.867-16.37v-49.536h15.779v46.144c0 10.746 1.695 18.436 5.088 23.071 3.394 4.64 9.104 6.957 17.136 6.957 1.696 0 3.446-.059 5.26-.172 1.807-.109 3.504-.254 5.088-.424 1.584-.17 3.025-.34 4.326-.508 1.299-.17 2.23-.365 2.799-.594v-74.475h15.777v85.672h-.003z"/><path d="M120.51 256.982c0 3.102-.487 5.801-1.462 8.098-.975 2.301-2.343 4.215-4.1 5.748-1.761 1.531-3.86 2.684-6.296 3.447-2.438.766-5.121 1.148-8.047 1.148-1.462 0-2.993-.078-4.597-.234-1.604-.156-3.013-.395-4.231-.705v-34.9c1.219-.348 2.628-.6 4.23-.756a46.925 46.925 0 0 1 4.598-.236c2.926 0 5.608.385 8.047 1.15 2.437.766 4.535 1.914 6.296 3.447 1.757 1.533 3.125 3.45 4.1 5.746.975 2.3 1.463 4.982 1.463 8.047zm-25.182 14.994c.21.035.739.105 1.595.21.853.103 2.22.155 4.1.155 2.612 0 4.896-.355 6.846-1.07 1.95-.71 3.587-1.732 4.912-3.057 1.32-1.322 2.315-2.934 2.978-4.832.66-1.896.992-4.03.992-6.4 0-2.367-.333-4.492-.992-6.373-.662-1.88-1.656-3.482-2.978-4.807-1.324-1.324-2.961-2.344-4.912-3.059-1.95-.713-4.232-1.07-6.845-1.07-1.881 0-3.247.055-4.101.158-.854.103-1.385.174-1.595.207v29.938zm30.554-10.396c0-2.369.339-4.432 1.019-6.189.679-1.76 1.568-3.23 2.664-4.418 1.099-1.182 2.353-2.06 3.763-2.637a11.466 11.466 0 0 1 4.362-.86c3.309 0 5.946 1.077 7.915 3.235 1.967 2.164 2.952 5.488 2.952 9.98a11.918 11.918 0 0 1-.103 1.621h-18.966c.104 3.307.923 5.852 2.457 7.627 1.53 1.775 3.97 2.664 7.312 2.664 1.848 0 3.31-.174 4.39-.52 1.08-.349 1.862-.646 2.353-.89l.626 2.926c-.49.28-1.404.61-2.743.992-1.342.383-2.917.574-4.73.574-2.368 0-4.388-.35-6.061-1.045-1.672-.695-3.048-1.672-4.127-2.926-1.08-1.254-1.863-2.744-2.351-4.467-.49-1.724-.732-3.61-.732-5.667zm19.173-2.143c-.068-2.82-.73-5.016-1.983-6.58-1.255-1.57-3.03-2.355-5.33-2.355-1.221 0-2.308.244-3.266.732a8.29 8.29 0 0 0-2.507 1.96 9.108 9.108 0 0 0-1.672 2.847 11.642 11.642 0 0 0-.707 3.396h15.465zm16.655 16.144c-1.148-.035-2.15-.184-3.003-.445-.854-.26-1.566-.658-2.142-1.199-.574-.539-1.012-1.236-1.307-2.092-.297-.852-.444-1.924-.444-3.213v-33.436l3.397-.629v33.961c0 .836.078 1.508.236 2.012.155.506.39.904.704 1.201.312.295.723.514 1.229.652.504.141 1.105.262 1.803.367l-.472 2.821zm9.859-35.631c0 .802-.244 1.437-.73 1.907-.49.471-1.081.705-1.777.705s-1.29-.234-1.774-.705c-.488-.47-.732-1.105-.732-1.908 0-.8.244-1.436.732-1.906.485-.469 1.078-.705 1.774-.705a2.47 2.47 0 0 1 1.777.705c.486.47.73 1.105.73 1.906zm-.784 35.161h-3.396V248.1h3.396v27.012zm16.61-3.656a74.206 74.206 0 0 0 2.253-5.146c.769-1.932 1.51-3.934 2.228-6.008.716-2.072 1.38-4.162 1.99-6.27.61-2.107 1.127-4.084 1.547-5.932h3.396a124.035 124.035 0 0 1-2.103 7.314 160.623 160.623 0 0 1-2.444 7.053 131.654 131.654 0 0 1-2.682 6.637 283.451 283.451 0 0 1-2.708 6.008h-3.166a142.355 142.355 0 0 1-2.734-6.008 146.509 146.509 0 0 1-2.655-6.637 157.991 157.991 0 0 1-2.445-7.053 123.93 123.93 0 0 1-2.103-7.314h3.604c.418 1.848.936 3.822 1.545 5.932a131.047 131.047 0 0 0 1.992 6.27 134.33 134.33 0 0 0 2.229 6.008 73.393 73.393 0 0 0 2.256 5.146zm14.148-9.875c0-2.369.34-4.432 1.019-6.189.679-1.76 1.567-3.23 2.664-4.418 1.097-1.182 2.35-2.06 3.763-2.637a11.47 11.47 0 0 1 4.362-.86c3.308 0 5.947 1.077 7.915 3.235 1.968 2.164 2.953 5.488 2.953 9.98 0 .28-.01.56-.027.836-.018.28-.044.541-.078.785H205.15c.104 3.307.92 5.852 2.455 7.627 1.532 1.775 3.97 2.664 7.314 2.664 1.845 0 3.309-.174 4.389-.52 1.079-.349 1.862-.646 2.35-.89l.629 2.926c-.49.28-1.403.61-2.743.992-1.344.383-2.918.574-4.73.574-2.37 0-4.388-.35-6.06-1.045-1.671-.695-3.047-1.672-4.126-2.926-1.082-1.254-1.864-2.744-2.352-4.467-.492-1.724-.734-3.61-.734-5.667zm19.174-2.143c-.071-2.82-.73-5.016-1.985-6.58-1.255-1.57-3.031-2.355-5.33-2.355-1.22 0-2.307.244-3.265.732a8.31 8.31 0 0 0-2.51 1.96 9.105 9.105 0 0 0-1.67 2.847 11.64 11.64 0 0 0-.705 3.396h15.465zm19.079-11.859c1.114 0 2.168.088 3.162.26.99.178 1.678.352 2.062.523l-.678 2.926c-.28-.139-.844-.287-1.698-.443-.854-.156-1.976-.234-3.37-.234-1.462 0-2.637.104-3.525.312-.888.208-1.472.383-1.75.521v23.668h-3.396v-25.758c.87-.383 2.07-.773 3.605-1.176 1.528-.398 3.394-.599 5.588-.599zm7.448 14.002c0-2.369.34-4.432 1.019-6.189.68-1.76 1.568-3.23 2.666-4.418 1.098-1.182 2.352-2.06 3.762-2.637a11.47 11.47 0 0 1 4.362-.86c3.31 0 5.948 1.077 7.916 3.235 1.967 2.164 2.95 5.488 2.95 9.98a11.25 11.25 0 0 1-.103 1.621H250.85c.104 3.307.922 5.852 2.455 7.627 1.534 1.775 3.972 2.664 7.315 2.664 1.846 0 3.31-.174 4.389-.52 1.079-.348 1.863-.646 2.352-.89l.626 2.926c-.488.28-1.401.61-2.741.992-1.342.383-2.92.574-4.73.574-2.368 0-4.388-.35-6.06-1.045-1.673-.695-3.05-1.672-4.13-2.926-1.077-1.254-1.862-2.744-2.35-4.467-.49-1.724-.733-3.61-.733-5.667zm19.176-2.143c-.07-2.82-.731-5.016-1.985-6.58-1.254-1.57-3.031-2.355-5.33-2.355-1.22 0-2.306.244-3.265.732a8.301 8.301 0 0 0-2.507 1.96 9.11 9.11 0 0 0-1.673 2.847 11.74 11.74 0 0 0-.706 3.396h15.466zm31.775 14.838c-1.011.35-2.3.68-3.867.992-1.566.312-3.554.471-5.957.471-1.983 0-3.787-.322-5.406-.967-1.62-.645-3.014-1.574-4.18-2.797-1.168-1.217-2.074-2.695-2.717-4.438-.646-1.742-.966-3.709-.966-5.902 0-2.057.269-3.949.81-5.672.538-1.723 1.332-3.21 2.376-4.467a10.801 10.801 0 0 1 3.84-2.926c1.517-.696 3.249-1.043 5.2-1.043 1.775 0 3.316.252 4.625.756 1.306.506 2.253.982 2.846 1.438v-14.523l3.396-.627v39.705zm-3.396-21.262a11.197 11.197 0 0 0-1.175-.783c-.47-.279-1.02-.54-1.646-.785a13.575 13.575 0 0 0-2.038-.602 10.922 10.922 0 0 0-2.3-.234c-1.671 0-3.072.297-4.204.887-1.132.594-2.046 1.387-2.744 2.38-.696.991-1.202 2.16-1.514 3.497a18.682 18.682 0 0 0-.47 4.262c0 3.553.888 6.277 2.665 8.176 1.775 1.898 4.126 2.848 7.052 2.848 1.672 0 3.02-.08 4.05-.234 1.027-.156 1.802-.322 2.324-.498v-18.914zm27.687-3.293c.595-.453 1.543-.932 2.849-1.438 1.309-.504 2.848-.756 4.625-.756 1.948 0 3.683.348 5.196 1.043a10.795 10.795 0 0 1 3.84 2.926c1.048 1.256 1.839 2.744 2.379 4.467.54 1.725.81 3.615.81 5.672 0 2.193-.322 4.16-.967 5.902-.644 1.742-1.55 3.223-2.715 4.44a11.708 11.708 0 0 1-4.181 2.794c-1.621.645-3.424.967-5.408.967-2.403 0-4.39-.156-5.956-.47-1.566-.313-2.855-.646-3.865-.993v-39.078l3.395-.629-.002 15.153zm0 22.203c.523.176 1.298.34 2.326.498 1.027.154 2.377.234 4.049.234 2.927 0 5.277-.949 7.054-2.848 1.777-1.899 2.666-4.625 2.666-8.176a18.68 18.68 0 0 0-.472-4.262c-.313-1.338-.818-2.506-1.515-3.498-.698-.992-1.612-1.785-2.743-2.379-1.133-.59-2.535-.887-4.207-.887-.801 0-1.564.078-2.298.234-.731.156-1.411.357-2.038.602a11.592 11.592 0 0 0-2.825 1.568l.003 18.914zm33.272 3.762a134.327 134.327 0 0 1-3.3-6.643 128.88 128.88 0 0 1-2.99-6.969 128.542 128.542 0 0 1-2.543-7.049 90.922 90.922 0 0 1-1.98-6.928h3.604a77.868 77.868 0 0 0 1.46 5.41 122.057 122.057 0 0 0 2.01 5.982 141.303 141.303 0 0 0 2.479 6.322 89.166 89.166 0 0 0 2.959 6.37 150.372 150.372 0 0 0 2.062-6.099 145.326 145.326 0 0 0 1.663-5.715 210.874 210.874 0 0 0 1.479-5.822c.476-1.982.96-4.133 1.456-6.449h3.397a226.743 226.743 0 0 1-3.822 14.748c-1.414 4.775-2.96 9.143-4.635 13.1-.662 1.566-1.342 2.916-2.042 4.051-.7 1.131-1.48 2.061-2.334 2.793a8.342 8.342 0 0 1-2.99 1.621c-1.138.348-2.476.521-4.014.521-.875 0-1.671-.104-2.388-.312-.718-.209-1.163-.365-1.34-.47l.682-2.82c.14.103.53.251 1.18.44a7.063 7.063 0 0 0 2.016.287c.978 0 1.858-.104 2.646-.31a5.674 5.674 0 0 0 2.12-1.07c.629-.507 1.196-1.16 1.702-1.964.505-.797.992-1.804 1.463-3.025zm44.564.211c-2.335 0-4.502-.42-6.503-1.256a14.789 14.789 0 0 1-5.226-3.656c-1.482-1.602-2.647-3.578-3.502-5.932-.854-2.35-1.28-5.04-1.28-8.07 0-3.029.462-5.723 1.386-8.072.922-2.35 2.15-4.326 3.685-5.93a15.208 15.208 0 0 1 5.329-3.63 16.667 16.667 0 0 1 6.32-1.23c1.358 0 2.596.088 3.71.262 1.114.174 2.09.393 2.927.652a20.68 20.68 0 0 1 2.142.783c.592.262 1.045.496 1.357.705l-1.147 3.084c-.871-.523-1.977-1.037-3.317-1.54-1.344-.507-3.005-.76-4.99-.76-2.265 0-4.24.384-5.93 1.15a11.69 11.69 0 0 0-4.26 3.24c-1.147 1.392-2.011 3.046-2.585 4.96-.575 1.918-.86 4.041-.86 6.375 0 2.402.285 4.572.86 6.506.574 1.932 1.419 3.578 2.533 4.936a11.154 11.154 0 0 0 4.104 3.135c1.618.73 3.474 1.098 5.564 1.098 2.297 0 4.22-.217 5.77-.652 1.55-.436 2.726-.879 3.526-1.332l.992 3.03c-.244.175-.662.374-1.254.601-.593.227-1.341.463-2.246.703-.907.244-1.95.443-3.133.604-1.186.156-2.51.236-3.972.236zm24.578-28.422c1.774 0 3.28.254 4.519.758 1.235.506 2.237 1.201 3.005 2.088.766.891 1.322 1.943 1.67 3.164.349 1.22.524 2.541.524 3.97v17.032a15.27 15.27 0 0 1-1.518.338c-.66.123-1.428.254-2.298.393-.871.141-1.838.252-2.9.34a40.387 40.387 0 0 1-3.264.131c-1.43 0-2.743-.156-3.944-.47-1.203-.313-2.25-.81-3.135-1.489a7.052 7.052 0 0 1-2.091-2.61c-.505-1.06-.76-2.36-.76-3.894 0-1.463.277-2.717.838-3.762a7.11 7.11 0 0 1 2.353-2.586c1.008-.682 2.21-1.178 3.604-1.49 1.394-.314 2.908-.47 4.545-.47.487 0 1 .026 1.542.077.538.053 1.06.123 1.566.211.505.086.939.174 1.308.26.365.088.616.166.758.234v-1.674c0-.938-.07-1.852-.211-2.74a5.979 5.979 0 0 0-.914-2.402c-.47-.715-1.132-1.289-1.984-1.725-.854-.438-1.977-.654-3.37-.654-1.983 0-3.467.141-4.44.42-.973.28-1.69.504-2.142.678l-.472-2.979c.595-.279 1.506-.539 2.744-.783 1.236-.245 2.724-.366 4.467-.366zm.314 25.182c1.32 0 2.479-.045 3.474-.13a23.632 23.632 0 0 0 2.534-.34v-9.509c-.384-.174-.993-.355-1.83-.549-.835-.189-1.986-.289-3.45-.289-.833 0-1.704.062-2.61.186a7.533 7.533 0 0 0-2.507.783 5.162 5.162 0 0 0-1.881 1.645c-.487.697-.73 1.621-.73 2.77 0 1.012.165 1.863.495 2.561a4.11 4.11 0 0 0 1.41 1.672c.61.418 1.343.723 2.194.914.853.19 1.82.286 2.9.286zm17.156-23.616c1.01-.277 2.367-.592 4.072-.94 1.707-.347 3.796-.522 6.27-.522 2.055 0 3.77.297 5.147.89 1.375.593 2.475 1.438 3.29 2.532.818 1.098 1.403 2.414 1.75 3.945.35 1.533.523 3.223.523 5.066v15.1h-3.395v-14c0-1.914-.133-3.537-.394-4.859s-.697-2.402-1.307-3.238a5.06 5.06 0 0 0-2.402-1.803c-.994-.367-2.24-.549-3.736-.549-1.602 0-2.984.086-4.154.262-1.167.172-1.923.33-2.271.471v23.72h-3.396v-26.073h.004zm51.956 12.594c0 2.123-.306 4.057-.914 5.797-.61 1.742-1.463 3.225-2.561 4.44a11.7 11.7 0 0 1-3.894 2.85c-1.497.68-3.152 1.017-4.964 1.017-1.812 0-3.466-.338-4.963-1.018a11.686 11.686 0 0 1-3.893-2.85c-1.097-1.217-1.95-2.697-2.56-4.439-.61-1.74-.915-3.674-.915-5.797 0-2.125.305-4.06.916-5.8.607-1.743 1.462-3.23 2.559-4.47a11.548 11.548 0 0 1 3.893-2.873c1.497-.68 3.15-1.02 4.963-1.02 1.812 0 3.467.34 4.964 1.02a11.562 11.562 0 0 1 3.894 2.873c1.098 1.238 1.95 2.727 2.56 4.47.61 1.74.915 3.675.915 5.8zm-3.604 0c0-3.383-.784-6.07-2.351-8.072-1.568-2.006-3.692-3.008-6.377-3.008-2.681 0-4.806 1.002-6.372 3.008-1.567 2.002-2.352 4.69-2.352 8.072 0 3.377.783 6.06 2.352 8.043 1.566 1.984 3.69 2.98 6.372 2.98 2.685 0 4.809-.996 6.377-2.98 1.566-1.984 2.35-4.666 2.35-8.043zm10.134-12.594c1.01-.277 2.367-.592 4.075-.94 1.705-.347 3.795-.522 6.269-.522 2.056 0 3.77.297 5.146.89s2.474 1.438 3.292 2.532c.818 1.098 1.404 2.414 1.75 3.945.349 1.533.522 3.223.522 5.066v15.1h-3.396v-14c0-1.914-.13-3.537-.393-4.859-.262-1.322-.697-2.402-1.307-3.238a5.059 5.059 0 0 0-2.403-1.803c-.991-.367-2.236-.549-3.734-.549-1.603 0-2.985.086-4.153.262-1.167.172-1.925.33-2.271.471v23.72h-3.396V249.04h-.001zm32.853-9.09c0 .802-.245 1.437-.732 1.907-.49.471-1.08.705-1.776.705s-1.288-.234-1.774-.705c-.49-.47-.732-1.105-.732-1.908 0-.8.243-1.436.732-1.906a2.462 2.462 0 0 1 1.774-.705c.696 0 1.287.236 1.776.705.487.47.732 1.105.732 1.906zm-.783 35.161h-3.396V248.1h3.396v27.012zm19.176.574c-2.09 0-3.938-.33-5.538-.99-1.603-.662-2.934-1.61-3.996-2.852-1.062-1.232-1.872-2.715-2.43-4.438-.557-1.727-.836-3.63-.836-5.723 0-2.123.287-4.059.863-5.8.574-1.74 1.399-3.237 2.479-4.493a10.971 10.971 0 0 1 3.918-2.898c1.532-.68 3.257-1.02 5.173-1.02 1.462 0 2.83.121 4.1.365 1.272.244 2.258.561 2.954.941l-.89 2.924a10.888 10.888 0 0 0-2.351-.834c-.871-.209-2.036-.314-3.501-.314-2.996 0-5.268.97-6.816 2.9-1.55 1.934-2.325 4.676-2.325 8.23 0 1.604.176 3.073.522 4.415.349 1.342.914 2.49 1.697 3.447.783.96 1.794 1.707 3.029 2.246 1.235.54 2.743.811 4.52.811 1.463 0 2.69-.164 3.685-.496.992-.33 1.715-.619 2.168-.86l.73 2.925c-.627.35-1.611.688-2.951 1.02a17.59 17.59 0 0 1-4.204.494zm20.836-28.211c1.778 0 3.282.254 4.52.758 1.236.506 2.237 1.201 3.005 2.088.767.891 1.322 1.943 1.673 3.164.348 1.22.52 2.541.52 3.97v17.032c-.347.104-.853.217-1.515.338-.661.123-1.43.254-2.3.393a40.518 40.518 0 0 1-6.165.471c-1.427 0-2.741-.156-3.942-.47-1.202-.313-2.25-.81-3.138-1.489a7.072 7.072 0 0 1-2.087-2.61c-.505-1.06-.76-2.36-.76-3.894 0-1.463.279-2.717.838-3.762a7.101 7.101 0 0 1 2.35-2.586c1.01-.682 2.213-1.178 3.605-1.49 1.394-.314 2.907-.47 4.545-.47.488 0 1.003.026 1.542.077.54.053 1.062.123 1.566.211.505.086.94.174 1.308.26.364.088.615.166.757.234v-1.674c0-.938-.07-1.852-.208-2.74a6.01 6.01 0 0 0-.915-2.402c-.47-.715-1.132-1.289-1.984-1.725-.854-.438-1.98-.654-3.372-.654-1.982 0-3.466.141-4.438.42-.98.28-1.691.504-2.144.678l-.471-2.979c.593-.279 1.506-.539 2.745-.783 1.234-.245 2.723-.366 4.465-.366zm.314 25.182a40.81 40.81 0 0 0 3.475-.13 23.505 23.505 0 0 0 2.533-.34v-9.509c-.382-.174-.991-.355-1.83-.549-.834-.189-1.982-.289-3.446-.289-.837 0-1.707.062-2.612.186a7.513 7.513 0 0 0-2.507.783 5.176 5.176 0 0 0-1.883 1.645c-.487.697-.731 1.621-.731 2.77 0 1.012.167 1.863.497 2.561a4.105 4.105 0 0 0 1.41 1.672c.61.418 1.342.723 2.195.914.852.19 1.818.286 2.899.286zm23.938 2.925c-1.147-.035-2.15-.184-3.005-.445-.853-.26-1.565-.658-2.143-1.199-.573-.539-1.013-1.236-1.306-2.092-.296-.852-.444-1.924-.444-3.213v-33.436l3.396-.629v33.961c0 .836.079 1.508.236 2.012.157.506.393.904.706 1.201.312.295.722.514 1.228.652.505.141 1.104.262 1.803.367l-.471 2.821z" fill="#888"/><path fill="none" d="M0 0h731.303v360.3H0z"/></svg>