<?xml version="1.0" encoding="UTF-8"?>
<svg id="svg3922" width="614.4" height="218.11" version="1.1" viewBox="0 0 614.4 218.11" xmlns="http://www.w3.org/2000/svg">
 <g id="g3950" transform="translate(.94498 .48413)">
  <path id="path3956" d="m0 109.06v-109.06h614.4v218.11h-614.4z" fill="#fdfcfb"/>
  <path id="path3954" d="m71.232 215.38c-11.263-1.3716-22.661-5.071-29.91-9.7078-2.6162-1.6736-2.5865-1.7715 1.3017-4.2849 19.025-12.298 46.361-13.519 67.304-3.0069 3.2956 1.6542 7.5519 4.3574 8.3049 5.2743 0.71523 0.87094 0.34672 1.134-5.913 4.2214-12.542 6.186-28.292 9.0624-41.088 7.504zm49.152-16.88c-3.558-2.6598-12.279-7.0811-17.28-8.7608-18.488-6.209-40.055-4.8786-56.832 3.5058-3.9395 1.9688-8.3771 4.6784-10.301 6.2902-0.597 0.50003-1.4008 0.90914-1.7863 0.90914-1.2727 0-11.912-8.8231-11.912-9.8785 0-1.3493 15.737-9.6843 23.04-12.203 10.957-3.7786 21.494-5.5646 32.832-5.5646 16.63 0 32.509 4.0128 46.848 11.838 4.855 2.6497 9.792 5.85 9.792 6.3473 0 0.98607-9.8748 9.8696-10.925 9.8281-0.22178-9e-3 -1.7856-1.0494-3.4752-2.3124zm16.224-18.475c-1.9345-1.2536-2.976-2.1757-2.976-2.6349 0-0.38849 0.6048-3.3198 1.344-6.5141s1.344-6.0539 1.344-6.3547c0-0.30085-0.57597-0.78765-1.2799-1.0818-4.3355-1.8115-19.229-16.582-31.113-30.857-13.558-16.285-25.115-33.664-32.728-49.214-1.4597-2.9814-2.8467-5.4208-3.0823-5.4208-0.66973 0-2.7762 5.1533-3.7671 9.216-0.61868 2.5365-1.3741 9.7534-1.3741 13.128 0 2.0726-0.15749 3.7684-0.34999 3.7684-0.63101 0-7.793-9.3083-11.818-15.36-4.8039-7.2222-8.9595-15.31-10.694-20.814l-0.69039-2.1902 1.1135-1.6498c1.8729-2.7749 12.738-13.362 18.069-17.607 4.5247-3.6027 14.376-10.878 20.78-15.347 1.3163-0.91848 2.4936-1.5696 2.6162-1.447s-0.29408 2.3577-0.92605 4.9668c-1.6021 6.6144-1.9714 9.4958-1.9708 15.377 0.0015 14.975 5.6069 26.463 19.449 39.864 6.8808 6.6609 17.228 15.519 17.751 15.196 0.16623-0.10274 0.53369-1.7066 0.81657-3.564 0.65466-4.2987 1.6008-7.0884 3.245-9.5679 1.2928-1.9496 4.3162-4.7533 5.1257-4.7533 0.23146 0 0.93867 1.085 1.5716 2.4112 1.5044 3.1522 3.8892 6.2622 9.6454 12.578 10.374 11.383 13.434 16.383 16.004 26.15 0.97178 3.6937 1.0474 4.533 1.0507 11.66 3e-3 5.8241-0.15962 8.4822-0.67157 11-1.5456 7.6006-4.0934 14.897-7.8245 22.408-2.6797 5.3947-4.6561 8.6479-5.231 8.6108-0.24871-0.0161-1.7914-0.8971-3.4282-1.9578zm-122.99-0.88661c-3.7767-5.9039-8.0174-16.055-9.5918-22.961-4.1102-18.028-0.5203-43.106 8.0721-56.388 0.93979-1.4528 1.9425-2.6414 2.2282-2.6414s1.1087 0.7344 1.8289 1.632c2.3079 2.8764 9.6435 10.271 13.603 13.713 9.1517 7.9545 18.354 14.105 29.295 19.579 5.3652 2.6845 12.346 5.7799 13.036 5.7799 0.23071 0 0.46368-2.6954 0.58911-6.816 0.16148-5.3045 0.39626-7.5358 1.0587-10.062 0.9009-3.4352 2.0975-6.5461 2.518-6.5461 0.13864 0 2.2689 1.944 4.7338 4.32 11.014 10.616 26.303 23.778 43.237 37.222 4.9925 3.9634 5.9953 4.9219 5.1492 4.9219-0.27993 0-4.0006-1.4069-8.2681-3.1265s-7.9912-3.0374-8.2748-2.9286c-0.28364 0.10884-2.0462 2.6516-3.9167 5.6506s-3.6459 5.5466-3.9452 5.6615-2.3488-0.24338-4.5546-0.79608c-2.2057-0.55269-4.3551-1.0049-4.7765-1.0049-1.0911 0-1.3554-0.72809-2.2999-6.336-0.4624-2.7456-0.9676-5.5968-1.1227-6.336l-0.28195-1.344-13.592-0.10099c-7.4757-0.0555-13.721 0.0308-13.878 0.192-0.15701 0.16114-0.75203 3.1442-1.3223 6.629-0.57025 3.4848-1.1836 6.4966-1.3629 6.693-0.28579 0.31286-8.2311 2.1063-9.4364 2.1301-0.25007 5e-3 -2.0486-2.5126-3.9967-5.5944s-3.7738-5.6923-4.057-5.801c-0.53774-0.20635-2.0508 0.35467-11.268 4.1778-14.781 6.131-13.824 5.6589-13.824 6.8213 0 0.58228 0.15974 1.5597 0.35497 2.172 0.8489 2.6624 2.4022 10.171 2.2085 10.676-0.32827 0.85546-3.543 2.5834-5.2262 2.8092-1.4872 0.19948-1.5322 0.16872-2.9178-1.9974zm420.11-2.4588c-3.0598-0.88944-4.2726-1.564-6.642-3.6943-1.3446-1.209-2.4369-2.6981-3.3828-4.612-1.201-2.43-1.4244-3.3086-1.5929-6.2619-0.1597-2.8014-0.045-3.9321 0.62178-6.1273 3.5713-11.758 19.183-15.39 27.653-6.4337 6.0429 6.3895 6.0743 16.261 0.0718 22.607-4.3018 4.5486-10.694 6.2762-16.729 4.5218zm9.3317-5.6454c4.0438-2.0151 6.0866-5.9372 5.753-11.045-0.289-4.4246-2.3607-7.519-6.2446-9.3277-3.4956-1.6278-7.8449-0.97988-10.884 1.6214-4.687 4.0119-5.0364 12.074-0.7205 16.624 2.9979 3.1606 8.1898 4.0736 12.096 2.1271zm-172.16 5.1388c-0.1052-0.27415-0.14602-7.3237-0.0907-15.666l0.10054-15.167 7.4564-0.10452c8.4521-0.11847 10.389 0.22354 13.137 2.3194 0.90706 0.69184 2.0738 2.0984 2.6175 3.1556 0.82848 1.6109 0.98085 2.421 0.98017 5.2118-7.6e-4 3.0056-0.10594 3.4753-1.1632 5.1931-1.2416 2.0174-3.9222 4.0762-6.2559 4.8048-0.77665 0.24249-3.5721 0.54954-6.2121 0.68234l-4.8 0.24144-0.384 9.6-2.5973 0.11366c-1.8601 0.0814-2.6516-0.0278-2.7886-0.38477zm15.398-15.392c2.0663-1.0746 2.9669-2.3958 3.1291-4.5904 0.1141-1.5438-0.0326-2.3082-0.62318-3.2483-1.3332-2.1219-2.7276-2.592-7.7184-2.6019l-4.416-9e-3 -0.10727 5.3464c-0.0804 4.0082 0.0157 5.4317 0.384 5.6872 0.7787 0.54029 8.0646 0.0851 9.3517-0.58431zm14.931 15.374c-0.10146-0.26443-0.13924-7.306-0.0839-15.648l0.10054-15.167 5.1739-0.22686 0.20212 26.339 16.128 0.384 0.19877 1.728c0.3819 3.32 1.2549 3.072-10.816 3.072-8.2304 0-10.762-0.11163-10.904-0.48078zm25.407 0.17202c-0.10495-0.16981 1.0128-3.0642 2.4838-6.432 9.9174-22.705 10.738-24.523 11.212-24.824 0.25599-0.16268 1.3686-0.29843 2.4726-0.30166 2.3605-7e-3 2.391 0.027 4.6574 5.1781 6.7524 15.347 11.191 25.733 11.191 26.184 0 0.42167-0.59965 0.51325-2.7813 0.42475l-2.7812-0.11282-1.376-3.2204c-0.75682-1.7712-1.6983-3.456-2.0921-3.744-0.85181-0.62285-12.853-0.7587-13.975-0.15819-0.37555 0.20098-1.259 1.713-1.9632 3.36-0.70423 1.647-1.4436 3.2106-1.643 3.4746-0.4036 0.53436-5.0898 0.6828-5.406 0.17124zm20.274-12.212c0.33408-0.1282 0.60741-0.38898 0.60741-0.57953 0-0.19054-0.79863-2.2024-1.7747-4.4709-0.9761-2.2685-2.0212-4.7004-2.3224-5.4042-0.42581-0.99494-0.66079-1.1859-1.0559-0.85794-0.27953 0.23198-1.4979 2.7743-2.7075 5.6496-1.7442 4.1461-2.0921 5.2958-1.6814 5.5561 0.58904 0.37328 8.009 0.46206 8.9345 0.1069zm25.423 11.93c-0.13167-0.34313-0.2394-6.2257-0.2394-13.072v-12.449h-4.3886c-5.0906 0-5.5989-0.25567-5.5896-2.8114 3e-3 -0.88251 0.14454-1.823 0.31401-2.09 0.24018-0.37838 3.0542-0.46305 12.762-0.384l12.454 0.10141 0.11797 2.0708c0.0649 1.139-0.0576 2.2464-0.27222 2.461s-1.4773 0.3656-2.806 0.33554c-1.3287-0.0301-3.3662 0.0721-4.5278 0.22697l-2.112 0.28163-0.384 25.728-2.5446 0.11247c-2.0631 0.0912-2.5899-6e-3 -2.784-0.51141zm21.504 0c-0.35555-0.92658-0.27871-29.857 0.0808-30.423 0.23981-0.37774 2.8243-0.46323 11.61-0.384l11.302 0.10191v4.608l-17.28 0.384-0.11013 4.0006c-0.081 2.942 0.0207 4.0836 0.384 4.3141 0.27176 0.17244 3.8288 0.31618 7.9044 0.31941l7.4103 6e-3 -0.22864 4.8-15.36 0.384-0.384 12.288-2.5446 0.11246c-2.0631 0.0912-2.5899-6e-3 -2.784-0.51141zm67.904 0.11016c-0.10149-0.26443-0.13924-7.306-0.084-15.648l0.10054-15.167 8.5102-0.10326c7.8773-0.0956 8.6721-0.0427 10.687 0.71137 4.2884 1.6045 6.432 4.6297 6.4732 9.1356 0.0376 4.1015-2.1946 7.6311-5.771 9.1254-0.70176 0.29321-1.2759 0.66193-1.2759 0.81938 0 0.15744 1.7111 2.7039 3.8024 5.6588s3.7228 5.5022 3.6254 5.6606-1.4328 0.288-2.9675 0.288c-3.2956 0-2.9302 0.30406-7.5161-6.2544l-3.165-4.5264-6.6432 0.22078-0.0944 4.416c-0.13709 6.4094-8e-3 6.144-2.9969 6.144-1.6485 0-2.5636-0.16385-2.6852-0.48078zm17.082-16.238c1.9645-1.1503 2.7746-2.48 2.7746-4.5542 0-2.1124-0.73363-3.4049-2.4676-4.3474-1.0126-0.55039-2.2101-0.67707-6.4284-0.67999l-5.184-3e-3 -0.10799 4.9619c-0.0805 3.7021 0.0169 5.0476 0.384 5.2991 0.27061 0.18547 2.5735 0.27872 5.1175 0.20723 3.7414-0.10513 4.8714-0.27395 5.9119-0.88314zm15.565 16.256c-0.10518-0.27415-0.146-7.3237-0.0907-15.666l0.10054-15.167 5.8582-0.22262 4.5568 7.1193c2.5062 3.9156 4.7521 7.1193 4.9908 7.1193 0.23873 0 2.3529-2.9999 4.6981-6.6664s4.5113-6.8715 4.8135-7.1223c0.34003-0.28222 1.5504-0.41242 3.176-0.34165l2.6266 0.11433v31.104l-5.1716 0.22681-0.10218-10.45c-0.0693-7.0823-0.23639-10.494-0.51863-10.588-0.22902-0.0763-2.3712 2.8038-4.7604 6.4002s-4.5524 6.5388-4.8072 6.5388c-0.25475 0-2.4148-2.9376-4.8-6.528-2.3853-3.5904-4.4815-6.528-4.6582-6.528-0.17679 0-0.36741 4.7088-0.42359 10.464l-0.10218 10.464-2.5973 0.11366c-1.8601 0.0814-2.6516-0.0278-2.7886-0.38477zm65.674-14.125c-20.415-0.19263-20.736-0.20756-20.736-0.96366 0-0.76177 0.28865-0.76879 35.567-0.86598 36.536-0.10065 37.023-0.0831 36.123 1.3008-0.35163 0.54062-23.854 0.78456-50.954 0.52887zm-375.62-0.61841c-0.12975-0.33812 5e-3 -0.76747 0.30005-0.95412 0.30018-0.19008 16.183-0.34196 36.105-0.34525 30.678-5e-3 35.633 0.071 36.033 0.5533 0.25524 0.30755 0.3526 0.73955 0.21635 0.96-0.16923 0.27383-11.681 0.40082-36.333 0.40082-32.733 0-36.107-0.0571-36.321-0.61475zm156.29-33.754c-1.3058-0.28385-3.1202-0.85326-4.032-1.2654-1.9092-0.86287-4.9218-2.997-4.9218-3.4865 0-0.18272 0.6792-1.0888 1.5093-2.0136l1.5093-1.6814 1.2747 0.74802c4.1113 2.4127 5.4607 2.8826 8.3017 2.8914 4.2067 0.0129 5.8369-1.0851 5.8369-3.9312 0-2.1936-1.8351-3.4102-7.104-4.71-3.8636-0.95309-7.1115-2.5269-8.512-4.1247-3.462-3.9497-1.856-10.921 3.0646-13.303 2.7879-1.3496 5.4416-1.655 8.9934-1.0349 3.1112 0.54315 7.5331 2.4859 7.9134 3.4768 0.21532 0.56112-1.964 4.0516-2.5297 4.0516-0.21309 0-1.5251-0.56008-2.9156-1.2446-1.9802-0.97486-3.1341-1.2752-5.3237-1.3858-2.7599-0.13937-2.8127-0.124-4.1429 1.2062-1.4091 1.4091-1.6274 2.3095-0.93068 3.8387 0.59059 1.2962 2.1469 2.1024 6.4173 3.3245 5.1358 1.4697 7.5707 2.5863 8.8721 4.0686 1.5298 1.7424 2.0943 3.6876 1.8505 6.3766-0.39436 4.349-3.0356 7.1085-7.9 8.2534-2.6551 0.62493-4.1565 0.61357-7.2308-0.0547zm92.518 0.0233c-2.8491-0.69015-5.4534-2.4203-6.9146-4.5938-2.237-3.3272-2.421-4.6342-2.307-16.38l0.10229-10.536 2.405-0.11445c1.7088-0.08132 2.4561 0.02984 2.5816 0.384 0.0971 0.27415 0.23013 4.9913 0.29549 10.482 0.11374 9.557 0.15725 10.063 1.0169 11.833 1.2188 2.5099 3.2356 3.8153 6.229 4.0318 3.9054 0.28249 6.4526-1.1211 7.8952-4.3504 0.58203-1.3029 0.71336-3.074 0.88232-11.899l0.19852-10.368 2.264-0.11683c1.2452-0.06426 2.4254 0.04454 2.6226 0.24177 0.2049 0.20493 0.35101 4.698 0.34091 10.485-0.0196 11.228-0.27022 12.888-2.433 16.116-2.8733 4.2882-9.1111 6.2544-15.179 4.7845zm35.929-0.0106c-4.5926-1.2649-8.2193-4.1457-10.212-8.112-2.0745-4.1281-2.4767-7.8745-1.3008-12.115 0.90881-3.2775 2.2296-5.4938 4.5898-7.7014 3.775-3.5311 9.1107-5.1231 14.093-4.205 4.12 0.75914 9.03 3.3816 9.03 4.823 0 0.64546-2.6385 3.683-3.1992 3.683-0.24821 0-1.2696-0.5818-2.2698-1.2929-7.4254-5.2792-16.803-0.27149-16.803 8.9729 0 6.4197 4.3963 11.148 10.347 11.128 2.7711-9e-3 4.6059-0.67179 7.3344-2.6483l1.6721-1.2113 3.4681 3.4682-1.2836 1.3243c-3.5202 3.6319-10.251 5.3236-15.466 3.8872zm60.936 0.0478c-4.3667-1.1378-7.1572-3.5494-8.6978-7.517-0.75732-1.9503-0.84775-3.0456-1.0079-12.21-0.0968-5.537-0.0641-10.513 0.0725-11.057 0.24004-0.95635 0.33615-0.98613 2.8288-0.8767l2.5804 0.11328 0.19591 10.56c0.10779 5.808 0.34933 10.906 0.5368 11.328 1.366 3.0779 4.0519 4.7847 7.5233 4.7808 3.1455-3e-3 5.2752-1.2251 6.6183-3.7961l1.0617-2.0323 6e-3 -10.036c4e-3 -5.5199 0.14857-10.261 0.32298-10.536 0.22019-0.34716 1.0691-0.46449 2.7781-0.384l2.461 0.11591 0.11478 9.6c0.0724 6.0563-0.0464 10.45-0.32179 11.904-0.8746 4.6157-3.8442 8.2838-7.7417 9.5627-2.6982 0.88536-6.9396 1.1039-9.3313 0.48072zm-343.7-0.73223c-0.10147-0.26443-0.13925-7.306-0.084-15.648l0.10055-15.167 2.264-0.11683c1.2452-0.06426 2.3974 0.02216 2.5604 0.192 0.31382 0.32698 0.5956 16.537 0.44759 25.749l-0.0879 5.472h-2.508c-1.6544 0-2.5708-0.16365-2.6926-0.48078zm13.824 0c-0.10147-0.26443-0.13925-7.306-0.0839-15.648l0.1005-15.167h5.3282l7.7039 10.052c4.2372 5.5285 7.9199 10.145 8.1839 10.26 0.37687 0.16346 0.48126-1.9137 0.48588-9.6678 3e-3 -5.4318 0.14857-10.101 0.32296-10.376 0.2202-0.34716 1.0691-0.46449 2.7781-0.384l2.461 0.11591v31.104h-4.8042l-7.9659-10.342c-4.3812-5.6881-8.1819-10.411-8.4459-10.496-0.37612-0.12071-0.48 2.1382-0.48 10.438v10.592h-2.7c-1.8081 0-2.761-0.15882-2.8846-0.48078zm35.712 0c-0.10147-0.26443-0.13924-7.306-0.084-15.648l0.1006-15.167h23.04v4.608l-8.5344 0.10332c-8.2209 0.0995-8.5502 0.13291-8.9656 0.90893-0.48302 0.90254-0.35736 6.9863 0.1549 7.5 0.17541 0.17588 3.7178 0.40618 7.872 0.51178l7.5531 0.192v4.608l-15.473 0.20765-0.25042 0.99776c-0.13774 0.54876-0.2327 3.094-0.21102 5.6562 0.0216 2.5621 0.0301 4.9608 0.0187 5.3304-0.0175 0.5693-0.40394 0.672-2.5287 0.672-1.6544 0-2.5708-0.16365-2.6925-0.48078zm29.575 0.0177c-0.1052-0.27415-0.14602-7.3237-0.0907-15.666l0.10054-15.167 8.5102-0.10326c7.8773-0.09558 8.6721-0.04267 10.687 0.71137 4.3391 1.6234 6.3383 4.5203 6.3383 9.1839 0 4.2652-1.5972 6.9381-5.28 8.8364-0.8976 0.46265-1.632 0.96719-1.632 1.1212s1.6416 2.5851 3.648 5.4024 3.648 5.3523 3.648 5.6332c0 0.38151-0.76013 0.51079-3.0033 0.51079h-3.0033l-3.7447-5.376-3.7446-5.376h-6.8344l-0.10683 5.28-0.10684 5.28-2.5973 0.11366c-1.8601 0.0814-2.6516-0.0278-2.7886-0.38477zm17.365-16.416c1.9779-1.206 2.5423-2.3871 2.335-4.8866-0.31387-3.7849-2.4655-4.8262-9.6022-4.647l-4.328 0.10865-0.10715 5.088-0.10714 5.088 5.2911-2e-3c4.5671-1e-3 5.4591-0.10382 6.5183-0.74966zm12.789 16.406c0-0.27853 1.622-4.2173 3.6043-8.7528 1.9824-4.5355 4.8453-11.098 6.362-14.582 3.6427-8.3695 3.419-8.064 5.9051-8.064 1.1164 0 2.3152 0.216 2.664 0.48 0.34886 0.264 2.3496 4.4544 4.4461 9.312s5.0409 11.658 6.5431 15.112c1.5022 3.4539 2.7312 6.4347 2.7312 6.624 0 0.18928-1.2808 0.34414-2.8462 0.34414h-2.8462l-1.4474-3.492c-1.0764-2.5968-1.6821-3.5812-2.3628-3.84-1.0011-0.3806-12.066-0.47459-13.411-0.11391-0.61104 0.1639-1.2371 1.1626-2.3436 3.7388l-1.5099 3.5151-2.7444 0.11282c-2.0728 0.0852-2.7444-0.0111-2.7444-0.39357zm20.129-12.048c0.33408-0.1282 0.60747-0.517 0.60755-0.864 1.7e-4 -0.8008-3.7936-9.6702-4.4363-10.372-0.5882-0.64197-0.53893-0.72793-3.1964 5.576-2.1294 5.0514-2.2077 5.3479-1.4875 5.6385 0.69324 0.27973 7.7928 0.29744 8.5126 0.0212zm54.555 12.059c-0.10218-0.27371-0.22941-6.1137-0.28272-12.978l-0.0969-12.48-4.3926-0.10926c-2.5257-0.0628-4.6139-0.29292-4.9133-0.5414-0.35311-0.29305-0.48423-1.1231-0.40738-2.5787l0.11329-2.1465h25.344l0.11797 2.0708c0.0661 1.1591-0.0685 2.258-0.30547 2.496-0.23666 0.23761-2.4062 0.50987-4.918 0.61717l-4.4945 0.192-0.384 25.728-2.5973 0.11366c-1.8601 0.0814-2.65-0.0276-2.7831-0.384zm21.492-0.0184c-0.10149-0.26443-0.13923-7.306-0.0839-15.648l0.10053-15.167 8.256-0.11119c8.9919-0.1211 10.412 0.07965 13.237 1.8717 4.2323 2.6841 5.5017 8.9887 2.6978 13.399-1.0796 1.6983-1.8798 2.403-3.9352 3.4658-0.8976 0.46412-1.632 0.96986-1.632 1.1239 0 0.15401 1.6416 2.5851 3.648 5.4024s3.648 5.3523 3.648 5.6332c0 0.38137-0.75851 0.51079-2.9936 0.51079h-2.9936l-3.7776-5.376-3.7775-5.376h-3.379c-2.885 0-3.4085 0.0982-3.5812 0.672-0.1112 0.3696-0.193 2.4864-0.18178 4.704 0.0111 2.2176 4e-3 4.3344-0.0157 4.704-0.0303 0.56772-0.42528 0.672-2.5442 0.672-1.6544 0-2.5708-0.16365-2.6925-0.48078zm17.09-16.216c1.9088-0.98709 2.7028-2.3669 2.7028-4.697 0-1.7818-0.16005-2.2498-1.0863-3.176-1.4922-1.4922-3.3692-1.922-8.4042-1.9245-5.5509-3e-3 -5.4319-0.19892-4.8326 7.9659l0.17618 2.4h5.1725c3.8157 0 5.4608-0.14908 6.2715-0.56833zm90.639 4.2477c0-6.8467-0.10487-12.722-0.23309-13.056-0.19116-0.49813-0.93381-0.60835-4.128-0.61265-5.7156-8e-3 -5.6804 0.0102-5.544-2.828l0.11305-2.3508 12.454-0.10141c9.7079-0.07905 12.522 0.0056 12.762 0.384 0.16946 0.26698 0.31078 1.2075 0.314 2.09 9e-3 2.5558-0.49897 2.8114-5.5895 2.8114h-4.3886v12.449c0 6.8467-0.10487 12.722-0.23309 13.056-0.18133 0.47259-0.82061 0.60741-2.88 0.60741h-2.6469zm55.68-3.2779v-15.762h8.3783c10.026 0 11.481 0.30087 14.326 2.9624 4.9026 4.5858 3.6508 12.791-2.4242 15.89-0.80533 0.41084-1.4642 0.93497-1.4642 1.1647s1.6416 2.7353 3.648 5.5679 3.648 5.3195 3.648 5.5264c0 0.21416-1.3152 0.37629-3.0524 0.37629h-3.0524l-7.539-10.56h-6.9002l-0.384 10.368-5.184 0.22709zm17.171-1.0428c4.1661-1.9769 3.4346-8.137-1.1116-9.3611-0.79687-0.21458-3.4835-0.34143-5.9703-0.28188l-4.5214 0.10827-0.10883 4.5856c-0.0599 2.5221-0.0219 4.8117 0.0839 5.088 0.311 0.81046 9.8681 0.6963 11.628-0.1389zm15.346 16.519c-0.37136-0.37135-0.31457-30.175 0.0586-30.763 0.23985-0.37786 2.8626-0.46319 11.802-0.384l11.494 0.10182 0.11827 1.8538c0.19066 2.9889 0.32041 2.9462-8.9503 2.9462-6.5306 0-8.2512 0.10754-8.6085 0.53803-0.28585 0.3444-0.40643 1.7609-0.33504 3.936l0.11151 3.398 15.36 0.384v4.608l-7.3739 0.192c-4.5545 0.11859-7.5334 0.35198-7.7912 0.61043-0.25832 0.25898-0.37494 1.7953-0.30609 4.032l0.11121 3.6136 17.664 0.384v4.608l-11.546 0.10153c-6.3506 0.0558-11.664-0.0162-11.808-0.16zm-236.9-48.732c-2.927-0.70942-4.7362-1.672-7.0464-3.7491-3.3358-2.9992-5.1412-7.271-5.1412-12.165 0-4.7917 1.4963-8.4819 4.7377-11.684 2.3676-2.3392 5.3322-3.8456 8.8402-4.492 4.594-0.84648 10.543 0.69746 13.661 3.5456 1.3446 1.2281 1.3113 1.4071-0.66453 3.5727-1.4632 1.6038-1.5839 1.6292-2.8833 0.60706-5.9818-4.7053-13.846-3.0007-16.846 3.651-1.1923 2.6442-1.1864 6.8987 0.0131 9.6 2.8658 6.4534 10.448 8.331 16.291 4.0341 0.86314-0.63476 1.847-1.1541 2.1864-1.1541 0.79263 0 3.0717 2.3401 3.0717 3.154 0 0.77225-2.3472 2.662-4.8393 3.8961-3.5658 1.7658-7.3537 2.1598-11.381 1.1837zm-248.75-2.9538c-2.5391-3.3992-6.361-10.821-7.6562-14.868-3.1862-9.9549-3.2403-22.205-0.14119-32.016 2.3955-7.5832 6.8804-15.022 12.434-20.623 4.6707-4.7109 5.166-4.5203 2.3019 0.88618-7.161 13.517-7.1555 21.517 0.0238 35.134 3.1889 6.0483 4.3192 8.9402 4.9326 12.62 0.97243 5.8339-1.435 12.623-6.9883 19.708-1.003 1.2796-1.9848 2.3266-2.1819 2.3266s-1.4232-1.4256-2.7247-3.168zm295.5 2.0176c-0.32717-0.6327-1.6453-3.6999-2.9292-6.816-6.9411-16.847-9.4924-23.307-9.3173-23.59 0.32068-0.51888 5.385-0.37523 5.8044 0.16464 0.20505 0.264 1.4342 3.2448 2.7314 6.624 4.754 12.384 6.1769 15.744 6.6674 15.744 0.29038 0 1.5106-2.6444 2.9237-6.336 1.3339-3.4848 3.3259-8.5824 4.4268-11.328l2.0015-4.992 2.7732-0.11282c3.3317-0.13554 3.3615-0.05692 1.5881 4.188-1.5986 3.8264-6.9226 16.742-9.2332 22.399-1.0303 2.5226-2.0885 4.7231-2.3515 4.8901-0.263 0.16701-1.3809 0.30631-2.4843 0.30954-1.8426 0.0054-2.0546-0.0879-2.601-1.1445zm-23.825 0.28559c-0.10147-0.26443-0.13925-7.306-0.0839-15.648l0.10049-15.167 2.592-0.11354c2.1294-0.09328 2.5928-0.0076 2.5967 0.48 3e-3 0.32645 5e-3 7.1599 5e-3 15.186s-2e-3 14.851-5e-3 15.168c-6e-3 0.75535-4.9175 0.84519-5.2053 0.09522zm48.007 0.01766c-0.10517-0.27414-0.14599-7.3237-0.0907-15.666l0.10053-15.167h5.376v31.104l-2.5973 0.11366c-1.8601 0.08141-2.6516-0.0278-2.7886-0.38478zm14.015-0.01091c-0.0307-1.3733-0.0522-29.77-0.023-30.36 0.03-0.60383 0.3562-0.67543 2.626-0.576l2.592 0.11354 0.20482 13.056c0.11267 7.1808 0.24227 13.096 0.288 13.144 0.0457 0.04851 3.6688 0.13492 8.0512 0.192l7.968 0.10379v4.608l-10.848 0.10198c-8.5428 0.08031-10.85-0.0012-10.859-0.384zm-251.13-14.694c-0.38139-0.45954-0.38139-0.69246 0-1.152 0.42174-0.50817 8.7671-0.576 70.864-0.576 38.712 0 70.659 0.10489 70.993 0.23308 0.78567 0.30149 0.78567 1.5363 0 1.8378-0.33407 0.1282-32.281 0.23308-70.993 0.23308-62.096 0-70.442-0.06783-70.864-0.576zm284.26 0.32168c-0.68341-0.27575-0.59478-1.5395 0.12741-1.8166 0.79407-0.30471 140.46-0.30471 141.25 0 0.78566 0.30149 0.78566 1.5363 0 1.8378-0.72672 0.27888-140.68 0.25786-141.38-0.02124z" fill="#f49128"/>
  <path id="path3952" d="m70.251 215.24c-10.774-1.3822-21.881-5.0532-28.929-9.5615-2.6162-1.6736-2.5865-1.7715 1.3017-4.2849 20.859-13.484 51.717-13.484 72.576 0 3.2454 2.098 3.6638 2.6017 2.7826 3.3508-2.1281 1.8091-10.898 5.7466-16.862 7.5709-10.168 3.1102-21.244 4.1596-30.87 2.9248zm50.133-16.717c-3.4497-2.5598-11.255-6.7022-15.436-8.1924-16.06-5.7239-33.877-5.9536-50.043-0.64528-5.6945 1.8698-11.022 4.4867-16.292 8.0034-2.9844 1.9913-4.4348 2.744-4.9933 2.5915-1.4841-0.40497-11.347-8.8572-11.347-9.724 0-1.3286 14.932-9.2478 22.574-11.972 18.15-6.4703 37.763-7.5509 56.338-3.1042 6.3943 1.5307 14.116 4.3445 20.147 7.3416 6.1052 3.0341 13.445 7.5253 13.45 8.2302 7e-3 0.93402-9.9149 9.8063-10.922 9.7664-0.22178-9e-3 -1.7856-1.0417-3.4752-2.2955zm-106.68-19.243c-1.9696-3.0808-5.7609-10.839-7.1062-14.541-2.9079-8.0028-4.3018-16.031-4.2887-24.7 0.019524-12.942 2.6352-25.959 7.113-35.396 1.6857-3.5528 4.2555-7.488 4.8899-7.488 0.27902 0 1.5127 1.207 2.7415 2.6821 3.0132 3.6173 11.891 12.194 16.364 15.809 7.5591 6.1088 16.051 11.583 25.279 16.295 5.4474 2.7816 12.962 6.0315 13.518 5.8462 0.21684-0.0723 0.42427-2.8678 0.49343-6.6502 0.09641-5.2728 0.28866-7.1863 1.0014-9.9677 0.89328-3.4856 2.1074-6.7339 2.5171-6.7339 0.12317 0 2.4189 2.104 5.1016 4.6756 10.308 9.8807 20.65 18.859 37.422 32.486 9.5113 7.7278 11.274 9.3029 10.414 9.3029-0.13325 0-3.7421-1.4086-8.0196-3.1301-4.2776-1.7216-8.0311-3.0327-8.3412-2.9137s-2.0755 2.6629-3.9231 5.653c-1.8476 2.9902-3.599 5.5287-3.892 5.6411-0.29301 0.11244-2.3284-0.24528-4.523-0.79493-2.1947-0.54966-4.3604-0.99937-4.8127-0.99937-1.1334 0-1.4014-0.80943-2.5233-7.6206-0.5338-3.2409-1.0672-6.0489-1.1853-6.24-0.26359-0.4265-27.311-0.4716-27.574-0.046-0.10247 0.16581-0.65361 3.1466-1.2247 6.624-0.57114 3.4774-1.1852 6.4832-1.3645 6.6795-0.28402 0.31092-8.2258 2.1058-9.4246 2.1301-0.24359 5e-3 -2.0414-2.5123-3.9951-5.5938s-3.7847-5.692-4.0688-5.801c-0.53931-0.20695-2.0491 0.35267-11.269 4.1771-14.213 5.8954-13.824 5.71-13.829 6.5906-3e-3 0.4554 0.62348 3.455 1.392 6.6659 0.76856 3.2108 1.3 6.0917 1.1809 6.402-0.32988 0.85967-3.3298 2.4728-5.1354 2.7615l-1.6078 0.25705zm420.19-2.5703c-4.7018-1.2276-8.3233-4.2842-10.487-8.8516-1.1292-2.3833-1.2039-2.8093-1.1863-6.7674 0.0242-5.4735 0.83182-7.674 4.0968-11.164 9.486-10.141 26.269-5.1345 28.386 8.4673 1.308 8.4016-3.8872 16.273-12.164 18.428-2.8786 0.7498-5.4729 0.71607-8.6461-0.11241zm9.1592-5.6688c2.4592-1.2255 4.4556-3.4955 5.294-6.0195 0.85767-2.5822 0.59758-7.1641-0.53122-9.3582-4.1192-8.0067-15.232-7.7514-18.964 0.43563-1.8364 4.0296-0.91664 9.6295 2.1048 12.815 2.9979 3.1606 8.1898 4.0736 12.096 2.1271zm-172.1 5.011c-0.30864-0.8043-0.31462-29.486-6e-3 -30.29 0.20139-0.52482 1.2327-0.60685 7.584-0.60326 7.8959 4e-3 9.9316 0.33947 12.536 2.063 5.6916 3.7665 5.5386 13.459-0.2706 17.143-2.6051 1.6521-3.9411 1.9735-9.3304 2.2446l-4.8 0.24144-0.384 9.6-2.5446 0.11247c-2.0631 0.0912-2.5899-6e-3 -2.784-0.51141zm15.363-15.267c0.66124-0.34433 1.6548-1.1639 2.208-1.8213 1.955-2.3234 1.0465-6.4114-1.7613-7.9249-0.99888-0.53844-2.1939-0.68373-5.681-0.69064l-4.416-9e-3 -0.10727 5.3464c-0.0804 4.0092 0.0156 5.431 0.384 5.6848 0.82561 0.56878 8.0198 0.11937 9.3735-0.58555zm14.909 15.378c-0.10146-0.26443-0.13924-7.306-0.0839-15.648l0.10054-15.167h4.992l0.384 26.112 8.064 0.21171c4.4352 0.11644 8.1072 0.24604 8.16 0.288 0.0528 0.042 0.096 1.1131 0.096 2.3803v2.304h-10.764c-8.2663 0-10.807-0.11156-10.949-0.48078zm25.459 0.25889c-0.26561-0.26562 0.29265-1.6135 7.5314-18.184 3.0845-7.061 5.8265-12.977 6.0934-13.146 0.26683-0.16939 1.3884-0.31062 2.4923-0.31385 1.6934-5e-3 2.1007 0.13688 2.6056 0.90749 0.55661 0.8495 1.5503 3.0735 7.4839 16.751 1.237 2.8512 3.0388 6.9964 4.0042 9.2116s1.7552 4.2532 1.7552 4.5288c0 0.37653-0.69176 0.47315-2.7808 0.38839l-2.7808-0.11282-1.4778-3.4547c-0.81279-1.9001-1.6782-3.5822-1.9232-3.7381s-3.4262-0.28606-7.0694-0.28929c-7.7012-7e-3 -7.3742-0.15202-9.1162 4.047-0.60857 1.4669-1.2683 2.8831-1.4662 3.1471-0.3615 0.48245-4.9079 0.70172-5.3515 0.25811zm20.222-12.299c0.33408-0.1282 0.60321-0.4306 0.59808-0.672-0.017-0.79846-4.5231-10.808-4.8521-10.778-0.42025 0.0383-2.0537 3.3225-3.7869 7.6139-1.0854 2.6875-1.2734 3.4876-0.8783 3.7381 0.57778 0.36643 8.0068 0.44761 8.9193 0.0975zm25.423 11.93c-0.13167-0.34313-0.2394-6.2072-0.2394-13.031 0-10.96-0.0709-12.435-0.60741-12.641-0.33407-0.12819-2.4756-0.23308-4.7589-0.23308-3.4314 0-4.1919-0.10536-4.3846-0.60741-0.33236-0.8661-0.27752-3.3361 0.0868-3.91 0.24018-0.37838 3.0542-0.46305 12.762-0.384l12.454 0.10141v4.608l-4.4748 0.10787c-3.0992 0.0747-4.6027 0.26189-4.8907 0.60892-0.27513 0.33152-0.45013 4.7777-0.51717 13.14l-0.10133 12.639-2.5446 0.11247c-2.0631 0.0912-2.5899-6e-3 -2.784-0.51141zm21.504 0c-0.35555-0.92658-0.27871-29.857 0.0808-30.423 0.23981-0.37774 2.8243-0.46323 11.61-0.384l11.302 0.10191v4.608l-17.28 0.384v8.448l15.36 0.384v4.608l-15.36 0.384-0.384 12.288-2.5446 0.11247c-2.0631 0.0912-2.5899-6e-3 -2.784-0.51141zm67.904 0.11016c-0.10149-0.26443-0.13924-7.306-0.084-15.648l0.10054-15.167h18.048l2.2002 1.0804c3.7681 1.8503 5.4461 4.686 5.3916 9.1111-0.0457 3.7108-1.9295 6.7142-5.2522 8.3736-0.96998 0.48443-1.7636 1.0121-1.7636 1.1726s1.6416 2.5969 3.648 5.4143 3.648 5.3523 3.648 5.6332c0 0.37857-0.72818 0.51079-2.8131 0.51079-3.3111 0-2.9007 0.3405-7.5202-6.24l-3.1674-4.512h-6.8513v4.7686c0 2.6227-0.10488 5.0419-0.23309 5.376-0.29806 0.77677-5.0588 0.88942-5.3515 0.12663zm17.178-16.183c1.9119-0.92074 2.7031-2.241 2.7031-4.5104 0-2.1808-0.7344-3.491-2.4922-4.4465-1.0126-0.55039-2.2101-0.67707-6.4284-0.67999l-5.184-3e-3 -0.10799 4.9619c-0.0805 3.7021 0.0169 5.0476 0.384 5.2991 0.27061 0.18547 2.5656 0.2753 5.1 0.19964 3.4072-0.10172 4.9774-0.31547 6.0255-0.82023zm15.469 16.2c-0.10518-0.27415-0.146-7.3237-0.0907-15.666l0.10054-15.167 5.835-0.2222 4.5698 7.1191c2.5134 3.9155 4.7645 7.1191 5.0024 7.1191 0.23796 0 2.3515-2.9999 4.6967-6.6664s4.5113-6.8715 4.8135-7.1223c0.34003-0.28222 1.5504-0.41242 3.176-0.34165l2.6266 0.11433v31.104l-5.184 0.22709v-10.578c0-8.6359-0.0954-10.578-0.51959-10.578-0.28578 0-2.4712 2.9376-4.8564 6.528-2.3853 3.5904-4.5453 6.528-4.8 6.528-0.25475 0-2.4148-2.9376-4.8-6.528-2.3853-3.5904-4.4815-6.528-4.6582-6.528-0.17679 0-0.36741 4.7088-0.42359 10.464l-0.10218 10.464-2.5973 0.11366c-1.8601 0.0814-2.6516-0.0278-2.7886-0.38477zm-143.82-97.774c-7.2274-1.887-11.866-8.0847-11.88-15.873-0.0184-10.293 9.0997-17.886 19.307-16.077 3.0105 0.53353 6.3716 2.04 8.0644 3.6144 1.2395 1.1529 1.1155 1.5981-1.0168 3.6492l-1.3522 1.3008-2.0393-1.3379c-2.634-1.7282-4.1545-2.2245-6.8006-2.2199-5.8334 0.01018-10.182 4.7685-10.173 11.132 5e-3 3.7293 1.0927 6.3072 3.6192 8.5788 3.823 3.4372 9.3128 3.4767 13.79 0.09907 0.72743-0.54883 1.6007-0.99787 1.9407-0.99787 0.79344 0 3.0727 2.3396 3.0727 3.154 0 1.4787-5.3166 4.587-8.9985 5.2609-3.0365 0.55579-4.5325 0.49939-7.533-0.28401zm47.205-0.53725c-1.487-2.7784-12.566-30.463-12.298-30.731 0.56867-0.56868 5.5051-0.16376 5.8685 0.48138 0.17844 0.3168 2.2114 5.4144 4.5178 11.328 2.5427 6.5196 4.3926 10.752 4.6994 10.752 0.29695 0 1.4294-2.3801 2.7405-5.76 1.229-3.168 3.2293-8.2656 4.4452-11.328l2.2108-5.568 2.763-0.11282c2.4432-0.09977 2.7629-0.03314 2.7622 0.576 0 0.98067-12.243 30.566-12.792 30.916-0.25033 0.15917-1.3562 0.29204-2.4576 0.29528-1.6802 0.0049-2.0761-0.1316-2.4597-0.84842zm-23.97-0.01048c-0.10147-0.26443-0.13925-7.306-0.0839-15.648l0.10049-15.167h4.992l0.20062 31.296h-2.5124c-1.6578 0-2.5751-0.16353-2.6968-0.48078zm48 0c-0.10149-0.26443-0.13923-7.306-0.0839-15.648l0.10049-15.167 2.461-0.11591c1.7091-0.08049 2.5579 0.03683 2.7781 0.384 0.36138 0.5697 0.45239 29.491 0.0958 30.42-0.29806 0.77677-5.0588 0.88942-5.3515 0.12663zm14.21 0.0061c-0.10276-0.26778-0.14158-7.3121-0.0863-15.654l0.10054-15.167h4.992l0.20483 13.056c0.11267 7.1808 0.24227 13.096 0.288 13.144 0.0457 0.04851 3.6688 0.13491 8.0512 0.192l7.968 0.10379v4.608l-10.666 0.10209c-8.3339 0.07977-10.707-0.0043-10.853-0.38478z" fill="#17355c"/>
 </g>
</svg>
