<svg xmlns="http://www.w3.org/2000/svg" width="289.712" height="151.3" viewBox="0 0 289.71249 151.3"><path d="M147.623-.005c-23.208 0-42.02 18.815-42.02 42.018 0 23.209 18.812 42.022 42.02 42.022 23.206 0 42.016-18.813 42.016-42.022 0-23.203-18.81-42.018-42.016-42.018m0 69.06c-14.934 0-27.041-12.106-27.041-27.039 0-14.932 12.107-27.041 27.04-27.041 14.932 0 27.042 12.109 27.042 27.041 0 14.933-12.11 27.038-27.041 27.038M81.231 20.478L70.616 31.095l11.84 11.158-11.747 11.07L81.32 63.938l21.684-21.684L81.23 20.478" fill="#5e398d"/><path d="M42.194 84.509c-10.474 0-19.977-3.636-28.237-10.82C4.692 65.592 0 54.92 0 41.973 0 30.48 4.25 20.496 12.63 12.298 20.925 4.138 31.049-.004 42.707-.004c11.565 0 21.622 4.188 29.876 12.44L61.621 23.4c-5.32-5.315-11.505-7.901-18.914-7.901-7.551 0-13.838 2.575-19.22 7.865-5.373 5.261-7.982 11.345-7.982 18.61 0 8.392 2.829 14.942 8.638 20.018 5.423 4.713 11.328 7.014 18.051 7.014 7.677 0 14.04-2.568 19.457-7.847l10.824 11.106c-8.338 8.125-18.525 12.244-30.28 12.244" fill="#d3d5d7"/><path d="M50.608 147.014c4.514 0 8.957-3.199 8.957-9.634 0-6.439-4.443-9.636-8.957-9.636-4.478 0-8.918 3.197-8.918 9.636 0 6.435 4.44 9.634 8.918 9.634m0-23.521c7 0 13.584 5.15 13.584 13.887 0 8.766-6.584 13.92-13.584 13.92-6.998 0-13.548-5.154-13.548-13.92 0-8.736 6.55-13.887 13.548-13.887m24.699 27.246v-26.685h4.515v22.393h12.232v4.292H75.307m27.217 0v-26.685h4.516v22.393h12.232v4.292h-16.748m34.927-10.876h8.128l-4.065-10.913-4.063 10.913zm9.708 4.174H135.87l-2.482 6.699h-4.782l10.385-26.68h5.233l10.386 26.68h-4.929l-2.522-6.699m28.222 2.862c2.713 0 4.48-1.465 4.48-3.838 0-2.295-1.545-3.913-4.329-3.913h-4.74v7.75h4.59zm-.487-11.553c2.633 0 4.216-1.506 4.216-3.726 0-2.257-1.583-3.728-4.329-3.728h-3.99v7.454h4.103zm.602-11.292c5.12 0 8.128 3.014 8.128 7.188 0 2.824-1.658 4.931-3.95 5.76 2.822.752 4.777 3.198 4.777 6.362 0 4.289-3.31 7.375-8.276 7.375h-9.861v-26.685h9.182m33.719 22.96c4.514 0 8.955-3.199 8.955-9.634 0-6.439-4.441-9.636-8.955-9.636-4.48 0-8.919 3.197-8.919 9.636 0 6.435 4.439 9.634 8.919 9.634m0-23.521c6.999 0 13.586 5.15 13.586 13.887 0 8.766-6.587 13.92-13.586 13.92-7.003 0-13.55-5.154-13.55-13.92 0-8.736 6.548-13.887 13.55-13.887m63.339 16.37h8.127l-4.062-10.913-4.065 10.913zm9.71 4.174h-11.292l-2.482 6.699h-4.784l10.386-26.68h5.232l10.388 26.68h-4.928l-2.52-6.699m-259.132-2.686c-1.407 3.778-4.819 5.663-8.277 5.663-4.478 0-8.92-3.199-8.92-9.634 0-6.439 4.442-9.636 8.92-9.636 3.47 0 6.89 1.896 8.29 5.697h4.806c-1.647-6.322-7.224-9.948-13.096-9.948-6.999 0-13.548 5.153-13.548 13.887 0 8.766 6.55 13.92 13.548 13.92 5.864 0 11.434-3.618 13.09-9.949h-4.813m221.766-4.936c2.783 0 4.4-1.621 4.4-4.062 0-2.488-1.807-4.104-4.59-4.104h-5.237v8.166h5.426zm-1.545 3.99h-3.882v10.536h-4.553V124.26h10.617c5.154 0 8.355 3.575 8.355 8.094 0 3.798-2.107 6.697-5.832 7.602l6.4 10.986h-5.117l-5.989-10.536" fill="#5e398d"/></svg>