<?xml version="1.0" encoding="UTF-8"?>
<!DOCTYPE svg  PUBLIC '-//W3C//DTD SVG 1.1//EN'  'http://www.w3.org/Graphics/SVG/1.1/DTD/svg11.dtd'>
<svg id="图层_1" width="258.46px" height="113.1px" enable-background="new 0 0 258.458 113.098" version="1.1" viewBox="0 0 258.46 113.1" xml:space="preserve" xmlns="http://www.w3.org/2000/svg">
		<path d="m96.124 52.002c1.624 0 1.636-1.453 1.635-1.6-3e-3 -0.549-0.011-4.127-0.011-4.68 0-1.574-1.599-1.599-1.599-1.599s-31.114-0.023-33.12-0.023c-3.174 0-3.124-3.074-3.124-3.074-0.042-0.199 2e-3 -3.205 0-3.205h31.528c8.753 0 7.866-6.305 7.866-6.305v-6.244s0.854-11.088-11.007-11.088h-26.562c-12.07 0-11.251 10.938-11.251 10.938 0 5.926 3e-3 8.043 3e-3 15.838 0 11.041 11.046 10.992 11.046 10.992m26.768-21.987c-1.007 0-28.391 2e-3 -28.391 2e-3s6e-3 -4.082 6e-3 -4.702c0-1.603 1.52-3.173 3.17-3.177 1.53-6e-3 22.1 0 23.686 0 1.43 0 3.086 1.601 3.078 3.15-5e-3 1.229-0.023 1.981-0.023 3.152-1e-3 1e-3 -1e-3 1.575-1.526 1.575z" fill="#00B9EF"/>
		<path d="m45.706 0c-0.676 4e-3 -5.607 4e-3 -6.281 0 0 0-1.578 0-1.578 1.625 0 0.131-8e-3 12.56-8e-3 12.56-6.634-2e-3 -13.506 2e-3 -20.41 0-14.83-8e-3 -17.441 12.835-17.429 18.93 0.016 6.094 2.667 18.863 17.663 18.848s15.416 0.019 21.764 0.019c7.863 0 7.872-7.832 7.872-7.832v-42.572c0-1.578-1.593-1.578-1.593-1.578zm-7.889 42.586s0.026 1.539-1.575 1.539c-1.718 0-10.105 0.019-15.259 2e-3 -5.156-0.016-11.477-1.147-11.48-10.91-4e-3 -9.768 7.021-11.118 11.406-11.118 4.383 0 16.9 0.018 16.9 0.018s8e-3 19.069 8e-3 20.469z" fill="#00B9EF"/>
		<path d="m212.76 9.455h-6.305c-0.869 0-1.576-0.705-1.576-1.574v-6.305c0-0.869 0.707-1.576 1.576-1.576h6.305c0.869 0 1.574 0.707 1.574 1.576v6.305c0 0.869-0.705 1.574-1.574 1.574z" fill="#00B9EF"/>
		<path d="m212.76 52.002h-6.305c-0.869 0-1.576-0.705-1.576-1.576v-34.666c0-0.87 0.707-1.575 1.576-1.575h6.305c0.869 0 1.574 0.705 1.574 1.575v34.666c0 0.871-0.705 1.576-1.574 1.576z" fill="#00B9EF"/>
		<path d="m242.7 14.193c-11.576-0.014-25.213-4e-3 -25.213-4e-3v36.213c0 0.713 0.457 1.768 1.887 1.586 1.541-4e-3 3.961-0.012 5.504-0.019 2.172 0.31 2.108-1.594 2.108-1.594l-0.046-28.289s11.529-0.014 15.747-0.014c0.263 0 6.364 0.119 6.364 7.867l-0.047 20.487c0 0.873 0.705 1.58 1.578 1.58l6.301-6e-3c0.869 0 1.574-0.707 1.574-1.574v-21.206c1e-3 -8.73-4.181-15.011-15.757-15.027z" fill="#00B9EF"/>
		<path d="m37.815 42.668c-0.021 0.314-0.191 1.457-1.573 1.457-1.718 0-10.105 0.019-15.259 2e-3 -5.156-0.016-11.48-1.147-11.48-10.91 0-10.129 7.021-11.118 11.404-11.118 0 0-25.353-0.562-18.396 20.85 2.068 5.729 7.703 9.023 15.152 9.016 9.137-0.01 8.131 0 11.083 9e-3 5.103-3e-3 9.069-4.222 9.069-9.306z" fill="#004EA2"/>
		<path d="m156.03 66.164c0.678-2e-3 5.604-2e-3 6.277 0 0 0 1.574 0 1.574-1.627 0-0.129 6e-3 -12.557 6e-3 -12.557 6.635 4e-3 13.506-2e-3 20.41 0 14.83 6e-3 17.439-12.836 17.428-18.935-0.014-6.092-2.666-18.858-17.662-18.844-14.998 0.012-15.406-0.02-21.754-0.02-7.861 0-7.859 7.83-7.859 7.83v42.571c0 1.582 1.58 1.582 1.58 1.582zm7.877-42.588s-0.024-1.535 1.576-1.535c1.717 0 10.105-0.021 15.26-4e-3 5.156 0.016 11.478 1.148 11.479 10.912 5e-3 9.764-7.021 11.115-11.405 11.115-4.383 0-16.902-0.017-16.902-0.017s-8e-3 -19.07-8e-3 -20.471z" fill="#00B9EF"/>
		<path d="m96.149 44.125s-29.135-0.024-33.02-0.024c-3.246 0-3.225-3.074-3.225-3.074s-0.725 10.977 8.83 10.977h27.389c1.699 0 1.602-1.576 1.602-1.576s0-3.174 0-4.698c1e-3 -1.533-1.576-1.605-1.576-1.605z" fill="#004EA2"/>
		<path d="m148.12 52.002c1.625 0 1.636-1.453 1.636-1.6-3e-3 -0.549-0.011-4.127-0.011-4.68 0-1.574-1.6-1.599-1.6-1.599s-31.114-0.023-33.118-0.023c-3.174 0-3.126-3.074-3.126-3.074-0.04-0.199 3e-3 -3.205 0-3.205h31.528c8.755 0 7.867-6.305 7.867-6.305v-6.244s0.854-11.088-11.004-11.088h-26.563c-12.071 0-11.252 10.938-11.252 10.938 0 5.926 3e-3 8.043 3e-3 15.838 0 11.041 11.045 10.992 11.045 10.992m26.769-21.987c-1.008 0-28.394 2e-3 -28.394 2e-3s7e-3 -4.082 7e-3 -4.702c0-1.603 1.521-3.173 3.17-3.177 1.531-6e-3 22.102 0 23.686 0 1.431 0 3.086 1.601 3.078 3.15-5e-3 1.229-0.022 1.981-0.022 3.152-1e-3 1e-3 -1e-3 1.575-1.525 1.575z" fill="#00B9EF"/>
		<path d="m148.15 44.125s-29.134-0.024-33.02-0.024c-3.245 0-3.226-3.074-3.226-3.074s-0.724 10.977 8.832 10.977h27.387c1.701 0 1.602-1.576 1.602-1.576s0-3.174 0-4.698c0-1.533-1.575-1.605-1.575-1.605z" fill="#004EA2"/>
		<path d="m198.19 36.359c-1.609-8.732-9.557-12.469-9.557-12.469l-0.121 0.02c2.172 1.521 3.711 4.23 3.712 9.039 5e-3 9.764-7.021 11.115-11.405 11.115-4.383 0-16.902-0.017-16.902-0.017s-4e-3 -9.379-8e-3 -15.684h-2e-3v23.617c6.629 4e-3 21.055-0.021 21.379-0.039l-6e-3 0.016c3.225 4e-3 6.172-1.213 6.172-1.213 7.108-4.539 7.402-10.775 6.738-14.385z" fill="#004EA2"/>
		<path d="m212.76 14.184h-6.305s7.879 6.75 7.879 20.606v-19.03c0-0.871-0.705-1.576-1.574-1.576z" fill="#004EA2"/>
		<path d="m206.46 9.455h6.305c0.191 0 0.373-0.047 0.541-0.106-7.366-0.914-8.422-7.574-8.422-7.574v6.106c-1e-3 0.869 0.706 1.574 1.576 1.574z" fill="#004EA2"/>
		<path d="m243.33 22.133c1.623 0.234 5.721 1.457 5.721 7.81l-0.047 20.488c-2e-3 0.872 0.705 1.579 1.576 1.579l6.301-6e-3c0.869 0 1.574-0.707 1.574-1.573v-16.736c0-10.23-15.125-11.562-15.125-11.562z" fill="#004EA2"/>
	<g fill="#00B9EF">
		<path d="m203.43 95.393h-3.092v11.438c0 3.084-0.776 5.215-4.157 5.215h-7.92c-3.193 0-3.193-3.61-0.103-3.61h5.969c1.359 0 1.789-1.248 1.789-2.343v-10.7h-7.758c-3.092 0-3.092-3.613 0-3.613h7.758v-9.133h-7.758c-3.092 0-3.092-3.613 0-3.613h7.758v-3.922c0-3.023 4.422-3.031 4.422 0v3.922h17.615v-3.922c0-3.021 4.424-3.016 4.424 0v3.922h12.765c3.067 0 3.067 3.572 0 3.572h-12.765v7.506h7.383c4.773 0 5.49 6.254 2.301 7.947l-8.052 4.274 11.614 6.16c2.72 1.447 0.938 4.605-1.778 3.16l-13.687-7.277-13.666 7.254c-2.754 1.447-4.486-1.703-1.82-3.121l11.639-6.176-8.038-4.274c-3.138-1.67-3.146-7.947 2.323-7.947h7.357v-7.506h-17.615v9.174h3.092c3.063-1e-3 3.063 3.613 0 3.613zm8.559-1.67c-1.746-5e-3 -2.066 1.106-0.375 2.006l8.545 4.553c2.844-1.518 5.688-3.031 8.53-4.551 1.513-0.773 1.298-2.01-0.416-2.01l-16.284 2e-3z"/>
		<path d="m120.53 95.408c5.33-0.102 5.778 6.988 0.194 8.615l-5.65 1.646 9.683 2.836c2.575 0.756 1.552 4.224-1.047 3.461l-15.083-4.418-15.068 4.394c-2.62 0.764-3.567-2.719-1.004-3.467l9.641-2.81-5.973-1.643c-4.998-1.574-5.604-8.691 1.064-8.615h5.847l17.396 1e-3zm-21.589 3.201c-2.18 0-2.211 1.688-0.689 2.131l10.475 3.023 10.457-3.05c1.582-0.463 1.513-2.098-0.375-2.104h-19.868z"/>
		<path d="m157.27 74.857h-22.436c-3.006 0-3.006 3.61 0 3.61h9.473v6.521h-9.473c-2.957 2e-3 -2.939 3.609 0 3.609h9.473v4.045l-10.229 8.996c-2.313 2.034-0.022 5.192 2.612 2.872l7.616-6.68v12.492c0 3.012 4.439 3.008 4.424 0v-12.49l7.085 6.191 17.085-4e-3 6e-3 6.305c0 3.059 4.414 3.055 4.414 0v-6.305h5.235c3.079-2e-3 3.071-3.795 0-3.795h-5.235v-23.584c0-3.076-4.414-2.938-4.414-9e-3v4.595l-13.578-6.388v3.713l13.578 6.445-6e-3 7.043-13.572-7.047v3.809l13.578 7.212-6e-3 4.211-15.508 2e-3 -8.662-7.584v-4.045h8.539v-3.609h-8.539v-6.521h8.539v-3.61h1e-3z"/>
		<path d="m34.079 100.16c-2.596 3.783-6.122 9.076-7.678 11.381-1.555 2.306-4.773 0.404-3.234-1.877l7.338-10.869v-4.412c-2.363-1.95-4.613-3.811-6.979-5.762-2.054-1.742 0.4-4.229 2.498-2.539l8.143 6.664c0.298 0.258 0.363 0.479 0.363 0.902v5.42c0.012 0.44-0.263 0.815-0.451 1.092z"/>
		<path d="m69.515 78.469v6.773h-4.82v-6.773h4.82zm4.455 10.244v-10.238c0-2.5-2.182-3.615-4.096-3.609l-26.934-3e-3c-2.912 0.147-4.141 1.77-4.166 3.604v10.244h12.491c0.683 0 1.243-0.481 1.243-1.067v-9.177h7.756v9.187c0 0.586 0.56 1.059 1.242 1.059h12.464zm-30.735-3.471v-6.773h4.852v6.773h-4.852zm14.965 17.735c4.506 2.244 11.807 5.803 13.818 6.879 2.01 1.08 4.229-1.912 1.951-3.049l-15.768-7.863v-2.357h13.986c2.307-0.016 2.31-3.471 0-3.469h-13.985v-5.41c0-2.653-3.669-2.641-3.669 0.012v5.398h-13.842c-2.482-8e-3 -2.552 3.463 0 3.469h13.842v2.355c-5.172 2.567-13.169 6.572-15.624 7.789-2.395 1.19-0.508 4.283 1.951 3.055l13.673-6.813v8.168c0 2.616 3.69 2.604 3.69 0l-0.023-8.164z"/>
		<path d="m120.13 89.266v-3.478h6.114c2.852-0.063 2.832-3.611 0-3.611h-6.114v-3.692c2.047-0.017 3.221 6e-3 6.114-4e-3 2.895-0.013 2.874-3.623 0-3.629l-16.071 6e-3c0.023-2.721-4.412-2.705-4.412 0h-16.544c-3.122 0.035-4.169 1.293-4.169 3.617v19.588l-7.483 11.121c-1.511 2.213 1.863 4.061 3.364 1.854l7.928-11.787c0.066-0.098 0.21-0.313 0.253-0.408 0.054-0.122 0.126-0.206 0.126-0.346l0.01-12.709h8.287v6.648h18.184c3.378-0.073 4.467-1.073 4.413-3.17zm-4.414-7.089h-13.761v-3.692h13.761v3.692zm0 5.696c0.123 0.732-0.521 1.332-1.547 1.256h-12.214v-3.34h13.761v2.084zm-18.184-5.696h-8.287v-3.692h8.287v3.692z"/>
		<path d="m26.364 75.479c2.52 2.059 5.771 4.75 7.912 6.512s-0.216 4.471-2.438 2.654c-2.223-1.816-5.721-4.759-7.904-6.545-2.181-1.789 0.27-4.383 2.43-2.621z"/>
		<rect x="170.07" y="71.758" width=".112" height=".037"/>
	</g>
</svg>
