<svg xmlns="http://www.w3.org/2000/svg" height="256.35" viewBox="0 0 413.22501 256.35001" width="413.23"><defs><clipPath id="a"><path d="M0 0h331v206H0V0z"/></clipPath></defs><g clip-path="url(#a)" transform="matrix(1.25 0 0 -1.25 0 257.5)"><path d="M213.12 205.8h-12.777v-19.254h59.64V205.8H213.12m0-35.38h-12.777v-19.25h59.64v19.25H213.12m0-35.94h-12.777v-19.25h59.64v19.25H213.12M317.8 205.8h-46.864v-19.254h59.641V205.8H317.8m-34.08-35.38h-12.782v-19.25h59.641v19.25H283.72m0-35.94h-12.782v-19.25h59.641v19.25H283.72M.156 186.55v-71.317h19.449v90.77H.156V186.55m72.465-51.86H33.723v-19.454h58.351v19.454H72.621m4.375 16.59h15.078v19.453H53.172v15.817h38.902v19.453H33.723V151.28h43.273m24.804-36.05h60.937v49.664h-27.875v-16.859h8.426v-13.351h-22.039v51.863h41.488V206H101.8v-90.77m70.01 18.81h18.801v-18.805H171.81v18.805zM0 78.004h4.355V55.395H0v22.609zm17.246-3.719v-18.89h-4.355v18.89h-5.86v3.719h16.074v-3.719h-5.859m20.199-19.262c-1.605 0-3.215.168-4.621.539l.27 4.051c1.269-.433 3.078-.801 4.722-.801 2.211 0 3.918.903 3.918 2.981 0 4.32-9.48 2.344-9.48 9.777 0 4.02 3.184 6.801 8.609 6.801 1.274 0 2.746-.168 4.086-.402l-.234-3.821c-1.274.372-2.68.606-4.055.606-2.512 0-3.781-1.141-3.781-2.746 0-4.055 9.512-2.547 9.512-9.613 0-4.254-3.383-7.372-8.946-7.372m23.082.372c0 .769.032 2.078.2 2.945l-.032.035c-1.007-1.977-2.914-3.352-5.66-3.352-3.754 0-4.957 2.415-4.957 5.329v11.687h4.254V61.391c0-1.743.469-2.782 2.074-2.782 2.18 0 3.852 2.481 3.852 5.395v8.035h4.289V55.395h-4.02m16.516 13.464c-2.246 0-3.586-2.613-3.586-5.461v-4.621c.672-.203 1.375-.3 2.246-.3 2.41 0 4.188 1.539 4.188 5.66 0 3.113-.907 4.722-2.848 4.722zM75.602 55.16c-.805 0-1.442.031-2.145.133V47.32h-4.285v24.719h3.984c0-.805-.031-1.906-.168-2.777h.067c.937 1.941 2.715 3.113 5.226 3.113 3.953 0 6.098-2.848 6.098-7.77 0-5.793-3.016-9.445-8.777-9.445M95.77 68.859c-2.247 0-3.586-2.613-3.586-5.461v-4.621c.671-.203 1.375-.3 2.246-.3 2.41 0 4.183 1.539 4.183 5.66 0 3.113-.902 4.722-2.843 4.722zM94.328 55.16c-.805 0-1.441.031-2.144.133V47.32h-4.286v24.719h3.985c0-.805-.035-1.906-.168-2.777h.066c.938 1.941 2.715 3.113 5.227 3.113 3.953 0 6.097-2.848 6.097-7.77 0-5.793-3.015-9.445-8.777-9.445m19.292 13.598c-1.91 0-3.785-1.473-3.785-4.891 0-3.414 1.238-5.156 3.719-5.156 2.109 0 3.714 1.707 3.714 5.09 0 3.215-1.136 4.957-3.648 4.957zm-.437-13.699c-4.723 0-7.77 2.445-7.77 8.375 0 5.191 3.449 8.941 8.508 8.941 4.722 0 7.769-2.613 7.769-8.34 0-5.223-3.515-8.976-8.507-8.976m20.877 13.129c-3.082.636-4.621-1.372-4.621-5.997v-6.796h-4.29v16.644h4.055c0-.836-.101-2.176-.305-3.348h.071c.801 2.11 2.41 3.954 5.289 3.719l-.199-4.222m9.14-13.129c-3.683 0-4.824 1.339-4.824 5.226v8.438h-2.879v3.316h2.848v5.125l4.285 1.141v-6.266h4.055v-3.316h-4.055v-7.301c0-2.145.504-2.746 1.976-2.746.704 0 1.473.101 2.079.269v-3.449a14.79 14.79 0 0 0-3.485-.437m32.05 18.253a16.742 16.742 0 0 1-5.996 1.141c-4.453 0-7.672-2.816-7.672-7.871 0-4.789 2.613-7.605 7.203-7.605 1.07 0 2.008.136 2.879.402v7.871h4.355V56.465c-2.246-.903-5.023-1.406-7.738-1.406-7.168 0-11.422 4.218-11.422 11.121 0 7.097 4.825 12.156 12.66 12.156 2.247 0 4.457-.402 6.399-.973l-.668-4.051m14.24-5.124c-3.082.636-4.621-1.372-4.621-5.997v-6.796h-4.289v16.644h4.055c0-.836-.102-2.176-.305-3.348h.07c.801 2.11 2.41 3.954 5.289 3.719l-.199-4.222m9.61.57c-1.906 0-3.785-1.473-3.785-4.891 0-3.414 1.242-5.156 3.719-5.156 2.109 0 3.719 1.707 3.719 5.09 0 3.215-1.141 4.957-3.653 4.957zm-.433-13.699c-4.723 0-7.77 2.445-7.77 8.375 0 5.191 3.45 8.941 8.504 8.941 4.727 0 7.774-2.613 7.774-8.34 0-5.223-3.52-8.976-8.508-8.976m22.413.336c0 .769.035 2.078.199 2.945l-.031.035c-1.004-1.977-2.914-3.352-5.66-3.352-3.75 0-4.957 2.415-4.957 5.329v11.687h4.254V61.391c0-1.743.468-2.782 2.074-2.782 2.18 0 3.851 2.481 3.851 5.395v8.035h4.29V55.395h-4.02m16.52 13.464c-2.243 0-3.582-2.613-3.582-5.461v-4.621c.668-.203 1.371-.3 2.242-.3 2.414 0 4.187 1.539 4.187 5.66 0 3.113-.906 4.722-2.847 4.722zm-1.44-13.699c-.801 0-1.437.031-2.14.133V47.32h-4.289v24.719h3.988c0-.805-.035-1.906-.168-2.777h.066c.938 1.941 2.711 3.113 5.223 3.113 3.953 0 6.098-2.848 6.098-7.77 0-5.793-3.016-9.445-8.778-9.445M0 9.395v22.609h12.293v-3.652H4.355v-5.559h7.536v-3.551H4.355v-6.129h7.938V9.395H0m16.48 24.449h4.289V9.395H16.48v24.449zm15.411-10.582c-1.778 0-3.016-1.309-3.25-3.317h6.129c.066 2.075-1.071 3.317-2.879 3.317zm7-6.231H28.574c-.035-3.113 1.508-4.625 4.59-4.625 1.641 0 3.414.371 4.856 1.039l.402-3.312c-1.777-.703-3.887-1.074-5.961-1.074-5.293 0-8.242 2.648-8.242 8.507 0 5.09 2.812 8.844 7.804 8.844 4.856 0 7-3.316 7-7.437 0-.571-.035-1.239-.132-1.942m10.05-7.937c-4.621 0-7.503 2.41-7.503 8.07 0 5.191 2.714 9.176 8.609 9.176 1.137 0 2.344-.164 3.414-.465l-.434-3.719c-.906.332-1.941.602-3.015.602-2.711 0-4.086-2.008-4.086-5.156 0-2.848 1.105-4.79 3.953-4.79 1.141 0 2.379.235 3.281.704l.336-3.653c-1.141-.433-2.781-.769-4.555-.769m13.829-.035c-3.684 0-4.825 1.339-4.825 5.226v8.438h-2.879v3.316h2.844v5.125l4.289 1.141v-6.266h4.055v-3.316h-4.055v-7.301c0-2.145.504-2.746 1.977-2.746a8.2 8.2 0 0 1 2.078.269V9.496a14.781 14.781 0 0 0-3.484-.437m15.878 13.129c-3.082.636-4.625-1.372-4.625-5.997V9.395h-4.285v16.644h4.051c0-.836-.098-2.176-.301-3.348h.067c.804 2.11 2.414 3.954 5.293 3.719l-.2-4.222m2.981-12.793v16.644h4.289V9.395h-4.289zm2.144 18.789a2.622 2.622 0 0 0-2.644 2.613c0 1.406 1.172 2.578 2.644 2.578 1.473 0 2.68-1.141 2.68-2.578 0-1.442-1.207-2.613-2.68-2.613m13.098-19.09c-4.621 0-7.504 2.41-7.504 8.07 0 5.191 2.715 9.176 8.61 9.176 1.136 0 2.343-.164 3.418-.465l-.438-3.719c-.902.332-1.941.602-3.016.602-2.711 0-4.086-2.008-4.086-5.156 0-2.848 1.106-4.79 3.954-4.79 1.14 0 2.379.235 3.281.704l.336-3.653c-1.14-.433-2.782-.769-4.559-.769m16.483 7.668c-4.52 0-5.528-1.305-5.528-2.645 0-1.07.738-1.777 1.977-1.777 2.109 0 3.551 2.012 3.551 4.019v.403zm.336-7.367c0 .968.035 1.941.167 2.812l-.035.035c-.8-1.879-2.843-3.183-5.324-3.183-3.016 0-4.758 1.707-4.758 4.386 0 3.989 3.953 6.098 9.614 6.098v.902c0 1.743-.836 2.649-3.247 2.649-1.507 0-3.519-.504-4.925-1.305l-.368 3.582a18.195 18.195 0 0 0 5.961 1.039c5.36 0 6.868-2.18 6.868-5.797V13.68c0-1.34.031-2.914.097-4.285h-4.05m8.644 24.449h4.285V9.395h-4.285v24.449zm16.25-24.449v22.609h12.293v-3.652h-7.937v-5.559h7.535v-3.551h-7.535v-6.129h7.937V9.395H138.58m26.7 0v10.652c0 1.742-.468 2.777-2.043 2.777-2.179 0-3.886-2.476-3.886-5.39V9.395h-4.286v16.644h4.051c0-.769-.066-2.074-.234-2.945l.031-.035c1.008 1.976 2.949 3.351 5.664 3.351 3.75 0 4.953-2.414 4.953-5.328V9.395h-4.25m15.54 13.898c-2.043 0-3.281-1.238-3.281-3.016 0-1.839 1.203-2.98 3.281-2.98 1.942 0 3.215 1.105 3.215 2.949 0 1.91-1.207 3.047-3.215 3.047zm1.641-14.27h-3.684c-.972-.535-1.507-1.437-1.507-2.375 0-1.543 1.406-2.445 3.55-2.445 2.813 0 4.289 1.172 4.289 2.746 0 1.207-.804 2.074-2.648 2.074zM180.184.922c-4.422 0-7.133 1.672-7.133 4.922 0 1.742 1.172 3.316 2.547 4.019-1.008.5-1.645 1.371-1.645 2.543 0 1.207.805 2.449 1.977 2.883-1.641.836-2.477 2.613-2.477 4.656 0 3.516 2.645 6.465 7.535 6.465 1.106 0 1.977-.168 2.914-.371h5.625v-3.348h-2.242c.5-.468.836-1.273.836-2.211 0-3.683-2.578-6.097-7.199-6.097-.57 0-1.207.035-1.641.137-.539-.235-.804-.672-.804-1.075 0-.769.636-1.039 2.578-1.039h2.578c3.617 0 5.695-1.672 5.695-4.886 0-3.618-3.586-6.598-9.144-6.598m12.596 8.473v16.644h4.285V9.395h-4.285zm2.145 18.789c-1.477 0-2.649 1.171-2.649 2.613 0 1.406 1.172 2.578 2.649 2.578 1.472 0 2.679-1.141 2.679-2.578 0-1.442-1.207-2.613-2.679-2.613M211.91 9.395v10.652c0 1.742-.468 2.777-2.043 2.777-2.175 0-3.883-2.476-3.883-5.39V9.395h-4.289v16.644h4.055c0-.769-.066-2.074-.234-2.945l.031-.035c1.004 1.976 2.949 3.351 5.66 3.351 3.75 0 4.957-2.414 4.957-5.328V9.395h-4.254m15.41 13.867c-1.773 0-3.011-1.309-3.246-3.317h6.129c.067 2.075-1.074 3.317-2.883 3.317zm7-6.231h-10.312c-.035-3.113 1.504-4.625 4.586-4.625 1.64 0 3.418.371 4.855 1.039l.403-3.312c-1.774-.703-3.883-1.074-5.961-1.074-5.293 0-8.239 2.648-8.239 8.507 0 5.09 2.813 8.844 7.805 8.844 4.856 0 7-3.316 7-7.437 0-.571-.035-1.239-.137-1.942m10.22 6.231c-1.773 0-3.012-1.309-3.246-3.317h6.129c.066 2.075-1.074 3.317-2.883 3.317zm7-6.231h-10.312c-.035-3.113 1.504-4.625 4.586-4.625 1.64 0 3.418.371 4.855 1.039l.402-3.312c-1.773-.703-3.882-1.074-5.961-1.074-5.293 0-8.238 2.648-8.238 8.507 0 5.09 2.813 8.844 7.805 8.844 4.855 0 7-3.316 7-7.437 0-.571-.035-1.239-.137-1.942m12.63 5.157c-3.082.636-4.621-1.372-4.621-5.997V9.395h-4.289v16.644h4.054c0-.836-.101-2.176-.304-3.348h.066c.805 2.11 2.414 3.954 5.293 3.719l-.199-4.222m2.98-12.793v16.644h4.29V9.395h-4.29zm2.145 18.789c-1.473 0-2.645 1.171-2.645 2.613 0 1.406 1.172 2.578 2.645 2.578 1.477 0 2.68-1.141 2.68-2.578 0-1.442-1.203-2.613-2.68-2.613M286.28 9.395v10.652c0 1.742-.468 2.777-2.043 2.777-2.175 0-3.886-2.476-3.886-5.39V9.395h-4.286v16.644h4.051c0-.769-.066-2.074-.234-2.945l.035-.035c1.004 1.976 2.945 3.351 5.66 3.351 3.75 0 4.957-2.414 4.957-5.328V9.395h-4.254m15.54 13.898c-2.043 0-3.281-1.238-3.281-3.016 0-1.839 1.207-2.98 3.281-2.98 1.946 0 3.215 1.105 3.215 2.949 0 1.91-1.203 3.047-3.215 3.047zm1.645-14.27h-3.688c-.968-.535-1.507-1.437-1.507-2.375 0-1.543 1.41-2.445 3.55-2.445 2.817 0 4.289 1.172 4.289 2.746 0 1.207-.804 2.074-2.644 2.074zM301.188.922c-4.422 0-7.137 1.672-7.137 4.922 0 1.742 1.172 3.316 2.547 4.019-1.004.5-1.645 1.371-1.645 2.543 0 1.207.809 2.449 1.981 2.883-1.645.836-2.481 2.613-2.481 4.656 0 3.516 2.645 6.465 7.535 6.465 1.106 0 1.977-.168 2.914-.371h5.625v-3.348h-2.242c.504-.468.836-1.273.836-2.211 0-3.683-2.578-6.097-7.199-6.097-.57 0-1.207.035-1.641.137-.535-.235-.804-.672-.804-1.075 0-.769.636-1.039 2.578-1.039h2.582c3.617 0 5.691-1.672 5.691-4.886 0-3.618-3.582-6.598-9.14-6.598" fill="#050301"/></g></svg>