<?xml version="1.0" encoding="UTF-8"?>
<svg id="Calque_1" width="841.89px" height="305.98px" enable-background="new 0 0 841.89 305.984" space="preserve" version="1.1" viewBox="0 0 841.89 305.98" xmlns="http://www.w3.org/2000/svg">
 <link id="dark-mode" href="" rel="stylesheet" type="text/css"/>
 <style id="dark-mode-custom-style" type="text/css"/>
 <g id="g456" fill="#363736">
  <path id="path458" d="m65.912 176.91c1.185 5.19 3.001 9.671 5.446 13.451 2.446 3.779 5.558 6.745 9.337 8.894 3.78 2.149 8.188 3.223 13.229 3.223 10.226 0 19.342-3.334 27.345-10.005l2.668 2.002-4.892 12.449c-3.707 2.817-8.152 5.079-13.339 6.78-5.19 1.703-12.005 2.557-20.454 2.557-7.264 0-14.155-1-20.675-3-6.524-2.002-12.266-5.299-17.23-9.894-4.968-4.593-8.892-10.411-11.783-17.452-2.889-7.038-4.334-15.451-4.334-25.234 0-9.633 1.296-18.008 3.891-25.123 2.59-7.114 6.186-13.041 10.781-17.786 4.593-4.742 10.041-8.299 16.342-10.671 6.297-2.369 13.152-3.557 20.564-3.557 14.673 0 25.901 4.302 33.682 12.895 7.782 8.598 11.671 20.753 11.671 36.46v4.67c0 1.333-0.076 2.223-0.223 2.667h-63.806c0 5.929 0.592 11.489 1.78 16.674zm28.346-53.357c-2.446-6.669-6.56-10.003-12.34-10.003-3.261 0-6.002 1.111-8.226 3.334s-4.002 5.079-5.335 8.56c-1.334 3.484-2.334 7.412-3.002 11.783-0.667 4.373-1.077 8.708-1.223 13.006h34.238c-0.299-11.117-1.667-20.009-4.112-26.68z"/>
  <path id="path460" d="m211.42 145.34c4.37-12.895 8.705-25.862 13.006-38.906 1.628 0.297 3.185 0.555 4.668 0.777 1.48 0.223 2.962 0.334 4.446 0.334 1.48 0 2.964-0.111 4.446-0.334 1.48-0.222 3.113-0.48 4.891-0.777-2.373 5.78-5.262 12.487-8.669 20.12-3.412 7.634-7.004 16.006-10.782 25.122-3.78 9.115-7.636 18.897-11.562 29.346-3.928 10.449-7.596 21.231-11.004 32.348-2.078-0.299-4.079-0.445-6.002-0.445h-12.006c-1.929 0-3.929 0.146-6.002 0.445-2.967-8.448-6.264-17.786-9.894-28.014-3.633-10.226-7.226-20.266-10.783-30.123-3.557-9.856-6.892-19.082-10.003-27.68-3.113-8.595-5.708-15.636-7.782-21.12 3.114 0.297 6.114 0.555 9.005 0.777 2.89 0.223 5.742 0.334 8.558 0.334 2.815 0 5.594-0.111 8.337-0.334 2.741-0.222 5.521-0.48 8.337-0.777 4.002 13.044 8.04 26.011 12.117 38.906 4.076 12.895 8.261 25.865 12.562 38.906h0.444c4.74-13.04 9.297-26.01 13.672-38.905z"/>
  <path id="path462" d="m254.11 136.9c3.036-7.41 7.076-13.596 12.117-18.563 5.036-4.964 10.855-8.671 17.452-11.117 6.593-2.445 13.375-3.668 20.342-3.668 17.341 0 30.753 4.892 40.24 14.674 9.483 9.781 14.229 23.047 14.229 39.795 0 9.043-1.334 17.196-4.001 24.456-2.668 7.265-6.413 13.45-11.228 18.563-4.818 5.114-10.56 8.932-17.23 11.449-6.669 2.519-14.006 3.779-22.009 3.779-6.669 0-13.228-0.889-19.675-2.668-6.448-1.777-12.266-4.78-17.453-9.003-5.19-4.224-9.375-9.744-12.561-16.563-3.189-6.815-4.78-15.19-4.78-25.122 0-9.928 1.517-18.599 4.557-26.012zm66.586-12.561c-3.261-7.188-8.671-10.783-16.229-10.783-6.82 0-12.193 4.001-16.119 12.005-3.929 8.003-5.892 20.529-5.892 37.572 0 6.226 0.369 12.005 1.112 17.34 0.741 5.336 1.964 9.97 3.668 13.896 1.703 3.928 3.926 7.003 6.67 9.227 2.74 2.223 6.186 3.334 10.337 3.334 14.229 0 21.343-17.413 21.343-52.245 1e-3 -13.04-1.632-23.155-4.89-30.346z"/>
  <path id="path464" d="m381.39 82.651c-0.299-12.151-0.744-24.456-1.334-36.905 1.924 0.299 4.369 0.555 7.336 0.778 2.962 0.223 6.076 0.334 9.337 0.334 3.258 0 6.372-0.111 9.337-0.334 2.964-0.223 5.41-0.479 7.336-0.778-0.594 12.449-1.038 24.754-1.334 36.905-0.299 12.154-0.445 25.493-0.445 40.018v14.451c0 14.528 0.146 27.866 0.445 40.018 0.296 12.155 0.74 24.233 1.334 36.239-1.927-0.299-4.373-0.445-7.336-0.445h-18.674c-2.967 0-5.413 0.146-7.336 0.445 0.59-12.006 1.035-24.084 1.334-36.239 0.296-12.152 0.445-25.49 0.445-40.018v-14.451c0-14.525-0.149-27.864-0.445-40.018z"/>
  <path id="path466" d="m446.08 51.97c3.41-3.408 7.562-5.112 12.454-5.112s9.038 1.705 12.448 5.112c3.408 3.412 5.113 7.559 5.113 12.451 0 4.891-1.705 9.042-5.113 12.449-3.41 3.413-7.557 5.114-12.448 5.114s-9.044-1.702-12.454-5.114c-3.409-3.407-5.11-7.558-5.11-12.449 0-4.892 1.701-9.039 5.11-12.451zm-2.776 78.367c-0.223-7.927-0.706-15.895-1.446-23.898 2.073 0.297 4.521 0.555 7.34 0.777 2.812 0.223 5.925 0.334 9.337 0.334 6.965 0 12.521-0.369 16.671-1.111-0.744 8.003-1.221 15.971-1.443 23.898-0.223 7.932-0.334 16.418-0.334 25.457v8.894c0 9.042 0.111 17.563 0.334 25.566s0.699 15.712 1.443 23.122c-1.927-0.299-4.331-0.445-7.226-0.445h-18.782c-2.818 0-5.267 0.146-7.34 0.445 0.74-7.41 1.224-15.119 1.446-23.122 0.223-8.003 0.334-16.525 0.334-25.566v-8.894c0-9.038-0.112-17.525-0.334-25.457z"/>
  <path id="path468" d="m525.56 195.03c-3.928 6.302-7.671 12.416-11.227 18.343-2.967-0.299-6.004-0.445-9.114-0.445h-4.558c-1.555 0-3.374 0.146-5.447 0.445 1.036-0.891 3.002-3.187 5.89-6.894 2.894-3.701 6.077-7.965 9.56-12.783 3.482-4.814 7.041-9.744 10.673-14.783 3.632-5.038 6.78-9.56 9.449-13.562-2.669-4.891-5.747-10.261-9.227-16.117-3.485-5.854-6.892-11.597-10.228-17.23-3.333-5.631-6.446-10.745-9.337-15.34-2.888-4.592-5.076-8.003-6.558-10.226 3.556 0.297 6.892 0.555 10.005 0.777 3.11 0.223 6.147 0.334 9.114 0.334 2.964 0 5.967-0.111 9.004-0.334 3.037-0.222 6.039-0.48 9.003-0.777 3.113 5.78 6.227 11.637 9.337 17.563 3.114 5.93 6.374 11.859 9.783 17.786 4.001-6.226 7.966-12.117 11.894-17.674 3.925-5.559 7.671-11.451 11.227-17.674 1.632 0.297 3.187 0.555 4.669 0.777 1.481 0.223 3.04 0.334 4.668 0.334 1.632 0 3.261-0.111 4.892-0.334 1.632-0.222 3.482-0.48 5.56-0.777-1.333 1.631-3.448 4.262-6.335 7.892-2.892 3.634-6.081 7.669-9.561 12.117-3.485 4.446-7.041 9.041-10.673 13.783-3.632 4.745-6.856 9.043-9.668 12.895 5.925 10.228 11.926 20.342 18.007 30.348 6.074 10.003 12.228 19.974 18.451 29.902-2.964-0.299-6.004-0.445-9.114-0.445s-6.15 0-9.114 0h-9.115c-3.113 0-6.153 0.146-9.114 0.445l-20.455-37.128c-4.301 6.222-8.417 12.484-12.341 18.782z"/>
 </g>
 <g id="g298_13_" transform="matrix(1.5756 0 0 1.5756 -1983.4 -53.697)">
  <g id="g58" fill="none" stroke="#727375" stroke-miterlimit="10" stroke-width="1.4173">
   <line id="line2" x1="1716.6" x2="1680.2" y1="124.6" y2="116.4"/>
   <line id="line4" x1="1709.7" x2="1683.9" y1="109.5" y2="115"/>
   <line id="line6" x1="1719" x2="1752.1" y1="125" y2="117.9"/>
   <line id="line8" x1="1721.4" x2="1749.7" y1="93.2" y2="114.2"/>
   <line id="line10" x1="1753.2" x2="1770.7" y1="117.4" y2="113.8"/>
   <line id="line12" x1="1771.1" x2="1752" y1="113.1" y2="93"/>
   <line id="line14" x1="1751.6" x2="1719.3" y1="92.8" y2="90.1"/>
   <line id="line16" x1="1718.1" x2="1659.8" y1="90" y2="108.9"/>
   <line id="line18" x1="1658.9" x2="1675.8" y1="109.8" y2="150"/>
   <line id="line20" x1="1676.6" x2="1678.7" y1="148.3" y2="116"/>
   <line id="line22" x1="1676.6" x2="1717.5" y1="149.8" y2="126.3"/>
   <line id="line24" x1="1717.1" x2="1705.6" y1="127.5" y2="147.6"/>
   <line id="line26" x1="1704.9" x2="1677.2" y1="148.8" y2="150.5"/>
   <line id="line28" x1="1676.9" x2="1697.5" y1="151.5" y2="165.7"/>
   <line id="line30" x1="1698.9" x2="1705.5" y1="165.2" y2="149.8"/>
   <line id="line32" x1="1699.9" x2="1730.4" y1="166.4" y2="162.8"/>
   <line id="line34" x1="1706.1" x2="1728.3" y1="148.8" y2="160.7"/>
   <line id="line36" x1="1733.1" x2="1754.3" y1="159.7" y2="140.7"/>
   <line id="line38" x1="1755" x2="1752.3" y1="139.9" y2="119.2"/>
   <line id="line40" x1="1755.5" x2="1770.6" y1="140.4" y2="115.3"/>
   <line id="line42" x1="1700" x2="1749.9" y1="165.4" y2="121.8"/>
   <line id="line44" x1="1718.8" x2="1730.4" y1="129.5" y2="159.8"/>
   <line id="line46" x1="1679.2" x2="1660.6" y1="114.7" y2="110.1"/>
   <line id="line48" x1="1680.1" x2="1719.2" y1="114.8" y2="91.3"/>
   <line id="line50" x1="1719.3" x2="1711.1" y1="94.5" y2="108.5"/>
   <line id="line52" x1="1711.1" x2="1718" y1="110.2" y2="124"/>
   <line id="line54" x1="1752.1" x2="1751" y1="114.7" y2="94"/>
   <line id="line56" x1="1718.5" x2="1752.3" y1="126.5" y2="139.2"/>
  </g>
  <g id="g336_129_">
   <path id="path338_129_" d="m1689 116c0 4.9-3.9 8.8-8.8 8.8s-8.8-3.9-8.8-8.8 3.9-8.8 8.8-8.8c5-0.1 8.8 3.7 8.8 8.8" fill="#363736"/>
  </g>
  <g id="g336_128_">
   <path id="path338_128_" d="m1726.8 125c0 4.9-3.9 8.8-8.8 8.8s-8.8-3.9-8.8-8.8 3.9-8.8 8.8-8.8c4.9-0.2 8.8 3.7 8.8 8.8" fill="#87cbe7"/>
  </g>
  <g id="g336_127_">
   <path id="path338_127_" d="m1760.6 117.5c0 4.9-3.9 8.8-8.8 8.8s-8.8-3.9-8.8-8.8 3.9-8.8 8.8-8.8c4.9-0.1 8.8 3.8 8.8 8.8" fill="#363736"/>
  </g>
  <g id="g336_126_">
   <path id="path338_126_" d="m1740.6 161.3c0 4.9-3.9 8.8-8.8 8.8s-8.8-3.9-8.8-8.8 3.9-8.8 8.8-8.8c4.9-0.1 8.8 3.8 8.8 8.8" fill="#363736"/>
  </g>
  <g id="g336_125_">
   <path id="path338_125_" d="m1726.9 90.1c0 3.9-3 6.9-6.9 6.9s-6.9-3-6.9-6.9 3-6.9 6.9-6.9c3.9-0.2 6.9 2.9 6.9 6.9" fill="#363736"/>
  </g>
  <g id="g336_124_">
   <path id="path338_124_" d="m1716.2 109.2c0 2.5-2 4.6-4.6 4.6s-4.6-2-4.6-4.6 2-4.6 4.6-4.6 4.6 2.1 4.6 4.6" fill="#363736"/>
  </g>
  <g id="g336_123_">
   <path id="path338_123_" d="m1756.7 92.8c0 2.5-2 4.6-4.6 4.6s-4.6-2-4.6-4.6 2-4.6 4.6-4.6c2.6-0.1 4.6 1.9 4.6 4.6" fill="#363736"/>
  </g>
  <g id="g336_122_">
   <path id="path338_122_" d="m1775.1 113.6c0 2.5-2 4.6-4.6 4.6s-4.6-2-4.6-4.6 2-4.6 4.6-4.6c2.6-0.1 4.6 1.9 4.6 4.6" fill="#363736"/>
  </g>
  <g id="g336_121_">
   <path id="path338_121_" d="m1759.2 140c0 2.5-2 4.6-4.6 4.6-2.5 0-4.6-2-4.6-4.6s2-4.6 4.6-4.6c2.6-0.1 4.6 1.9 4.6 4.6" fill="#363736"/>
  </g>
  <g id="g336_120_">
   <path id="path338_120_" d="m1703.1 165.7c0 2.5-2 4.6-4.6 4.6-2.5 0-4.6-2-4.6-4.6s2-4.6 4.6-4.6c2.6 0.1 4.6 2.1 4.6 4.6" fill="#363736"/>
  </g>
  <g id="g336_119_">
   <path id="path338_119_" d="m1664 109.4c0 2.5-2 4.6-4.6 4.6-2.5 0-4.6-2-4.6-4.6s2-4.6 4.6-4.6c2.6-0.1 4.6 1.9 4.6 4.6" fill="#363736"/>
  </g>
  <g id="g336_118_">
   <path id="path338_118_" d="m1712.2 147.8c0 3.9-3 6.9-6.9 6.9s-6.9-3-6.9-6.9 3-6.9 6.9-6.9c3.7-0.2 6.9 3 6.9 6.9" fill="#363736"/>
  </g>
  <g id="g336_117_">
   <path id="path338_117_" d="m1683.7 148.6c0 3.9-3 6.9-6.9 6.9s-6.9-3-6.9-6.9 3-6.9 6.9-6.9c3.7-0.2 6.9 3 6.9 6.9" fill="#363736"/>
  </g>
 </g>
</svg>
