<?xml version="1.0" encoding="UTF-8"?>
<!DOCTYPE svg  PUBLIC '-//W3C//DTD SVG 1.1//EN'  'http://www.w3.org/Graphics/SVG/1.1/DTD/svg11.dtd'>
<svg viewBox="-2 -20 160 120" xmlns="http://www.w3.org/2000/svg">
 <g transform="matrix(1 0 0 -1 0 80)">
  <path d="m0 77.411h35.192v-15.279h-17.087v-14.483h13.693v-14.488h-13.693v-33.16h-18.105zm81.479-24.918h-16.974v10.19h-6.9028l0.1079-16.075 11.885-0.1143 12.788-11.878v-23.88l-11.088-10.978h-20.488l-11.992 11.881v13.579h18.788v-10.181h6.9028v15.276h-12.677l-13.013 12.901v21.955l11.088 12.19h20.482l11.094-11.288zm8.8252 24.918h18.782v-77.411h-18.782zm65.976 0v-66.431l-11.875-10.98h-17.21l-11.995 10.98v19.578h16.297v-15.276h6.9033v62.129z"/>
  <path d="m110.52 84.286-13.721-26.766h-0.3272l0.543 2.9854 10.588 23.984c0.8105 1.0264 1.7802 1.2344 2.7011 1.0264 0.1084-0.415 0.2676-0.7217 0.2159-1.2305zm-1.8907-62.98c-1.998-8.2334-8.4297-21.307-12.427-21.307-2.3203 0-5.1807 3.0908-4.5889 7.6201l5.5068 42.093c1.4043 2.6807 2.7041 3.1933 4.6485 3.9121l0.4863-1.8477c-2.2715-11.944-6.4287-36.233-6.4287-36.233-0.7051-3.8076-0.918-11.734 1.8877-11.734 2.7012 0 7.4043 9.2636 10.159 17.497h0.7558z" fill="red"/>
  <path d="m149.02-17.692h-142.02v11.06h142.02v-11.06z" fill="red"/>
  <path d="m0-6.6328v-11.043h2.476v11.043z" fill="red"/>
  <path d="m156.27-6.6328v-11.043h-2.4759v11.043z" fill="red"/>
  <path d="m4.3979-6.6328v-11.043h0.8254v11.043z" fill="red"/>
  <path d="m87.834-6.6v-11.1h0.8253v11.1z" fill="#fff"/>
  <path d="m35.4-6.6v-11.1h0.8254v11.1z" fill="#fff"/>
  <path d="m151.04-6.6328v-11.043h0.8254v11.043z" fill="red"/>
  <path d="m-0.0229-4.0707h156.23v-0.8254h-156.23z" fill="red"/>
  <path d="m156.21-19.356h-156.23v-0.8254h156.23z" fill="red"/>
  <path d="m9.0581-8.6855h5.9195c0.125 0 0.2304 0.0849 0.3584 0.1709l1.0405-0.959c-0.2417-0.2217-0.3125-0.3604-0.3809-0.5313-1.2285-3.1699-2.1836-4.7109-4.9756-6.3066l-1.1601 0.9385c2.9116 1.4218 3.9521 3.1591 4.7822 5.456h-5.584v1.2315z" fill="#fff"/>
  <path d="m18.196-8.0264 1.2481-0.1045c0.1362-0.0087 0.2812-0.0341 0.2812-0.1171 0-0.0655-0.0908-0.168-0.2812-0.2872v-4.5117h-1.2481v5.0205zm1.3135-7.5937c1.8452 0.7558 3.042 1.5635 3.042 5.0097 0 0.8838-0.0225 1.7686-0.0625 2.6612l1.3476-0.0772c0.125-0.0107 0.2588-0.0312 0.2588-0.1045 0-0.0947-0.105-0.2138-0.293-0.416 0.0113-0.372 0.023-0.9658 0.0455-1.8623 0-3.5957-0.8985-4.9013-3.4258-6.2431l-0.9126 1.0322z" fill="#fff"/>
  <path d="m33.154-12.971h-7.4345v1.3623h7.4345v-1.3623z" fill="#fff"/>
  <path d="m38.172-9.9307c0.4463-0.5322 0.8525-1.2881 1.1372-1.914l0.9892 0.6054c-0.2612 0.5977-0.6821 1.3711-1.1342 1.9053l-0.9922-0.5967zm2.5986-6.3603c3.0532 1.7109 4.0855 3.8838 4.5547 6.9687 0.1191 0.0733 0.2358 0.1504 0.2358 0.2246 0 0.0821-0.1591 0.1163-0.31 0.1475l-1.1201 0.2559c-0.085-1.2569-0.1934-2.7354-1.2906-4.3448-1.0092-1.4638-2.1552-1.9755-3.1191-2.4218l1.0493-0.8301z" fill="#fff"/>
  <path d="m46.685-8.8994h5.9253c0.125 0 0.2329 0.0859 0.3525 0.1709l1.0435-0.958c-0.2388-0.2217-0.3155-0.3584-0.3784-0.5293-1.2281-3.1699-2.1831-4.7168-4.9781-6.3115l-1.1543 0.9384c2.9112 1.4219 3.9493 3.1582 4.7793 5.459h-5.5898v1.2305z" fill="#fff"/>
  <path d="m59.735-14.082c-0.8814 0.833-1.9732 1.6513-3.0762 2.1299v-4.5948h-1.251v8.4268l1.2622-0.2334c0.0738-0.0108 0.25-0.0654 0.25-0.1611 0-0.0889-0.1362-0.1709-0.2612-0.2881v-2.8057h0.0166l0.4639 0.7842c1.5439-0.6367 2.8061-1.669 3.4258-2.2373l-0.8301-1.0205z" fill="#fff"/>
  <path d="m68.176-9.6641c0.1338 0 0.2363 0.083 0.375 0.1827l0.8955-0.8106c-0.085-0.1592-0.1387-0.2871-0.1699-0.458-0.6201-3.3066-1.6065-4.7227-3.8555-6.4395l-1.0293 0.8985c2.1523 1.3926 3.1729 2.7861 3.5195 5.5127h-4.7168v-2.1865h-1.208v3.3007h3.0254v1.7969l1.1143-0.0732c0.2304-0.0117 0.3467-0.0518 0.3467-0.1172 0-0.0733-0.085-0.1817-0.1788-0.2959v-1.3106h1.8819z" fill="#fff"/>
  <path d="m75.554-11.111v-0.9893h-1.9443v-3.5654h2.584v-0.9776h-6.2149v0.9776h2.5811v3.5654h-1.9414v0.9893h4.9355z" fill="#fff"/>
  <path d="m84.379-9.0068c0.1397 0 0.2871 0.1504 0.3809 0.2382l0.955-0.9921c-0.4941-0.7217-1.5947-2.3711-2.749-3.5313l-0.9892 0.8418c0.6513 0.6055 1.3955 1.3936 1.9131 2.2969h-6.5791v1.1465h7.0683zm-6.4023-6.8809c2.456 1.7656 2.6494 3.4492 2.624 5.4473l1.2305-0.0508c0.1337-0.0088 0.2509-0.0225 0.2509-0.0996 0-0.0596-0.0937-0.1446-0.1992-0.2442-0.0234-0.3359-0.0937-1.0205-0.125-1.2226-0.3867-2.7442-1.9961-3.9893-2.6562-4.5117l-1.125 0.6816z" fill="#fff"/>
  <path d="m94.265-16.636v4.6836c-0.9864-0.6631-1.6573-1.0411-2.6475-1.5098l-0.9121 0.9463c2.4023 1.0097 4.3584 2.5107 6.0898 4.5234l0.9131-0.7676c0.0733-0.0537 0.1817-0.1474 0.1817-0.2334 0-0.0849-0.1709-0.1162-0.3985-0.1504-0.3037-0.3183-0.9951-1.0947-1.9131-1.8193v-5.6728h-1.3134z" fill="#fff"/>
  <path d="m105.19-9.3115v-1.2676h-5.6758v1.2676h5.6758zm1.0175-4.916v-1.253h-7.8867v1.253h7.8867z" fill="#fff"/>
  <path d="m108.8-7.9521c0.5117-0.1456 1.3134-0.4747 2.038-1.0293l-0.5878-1.0635c-0.7051 0.5293-1.4903 0.873-2.0469 1.0293l0.5967 1.0635zm-1.1319-2.4258c0.7305-0.2217 1.4903-0.6162 2.0869-1.0938l-0.6533-1.0039c-0.3584 0.2471-1.0898 0.7481-2.0361 1.0352l0.6025 1.0625zm7.0967-1.208c-1.5977-2.2715-3.1728-3.5684-6.124-5.1006-0.0508-0.128-0.0938-0.2989-0.1992-0.2989-0.0967 0-0.1592 0.1709-0.2217 0.2989l-0.5518 1.0205c2.4961 1.0859 4.2793 2.2265 6.2666 5.0976l0.8301-1.0175z" fill="#fff"/>
  <path d="m122.69-9.0068c0.1367 0 0.2871 0.1504 0.3808 0.2382l0.9551-0.9921c-0.4941-0.7217-1.5977-2.3711-2.752-3.5313l-0.9834 0.8418c0.6485 0.6055 1.3956 1.3936 1.9073 2.2969h-6.5733v1.1465h7.0655zm-6.4082-6.8809c2.4619 1.7656 2.6494 3.4492 2.6328 5.4473l1.2285-0.0508c0.1357-0.0088 0.25-0.0225 0.25-0.0996 0-0.0596-0.0938-0.1446-0.1992-0.2442-0.0196-0.3359-0.0967-1.0205-0.128-1.2226-0.3896-2.7442-1.9931-3.9893-2.6582-4.5117l-1.1259 0.6816z" fill="#fff"/>
  <path d="m130.64-8.4268v-1.1543h-5.084v1.1543h5.084zm1.4209-3.7929h-3.1836c-0.04-0.9131-0.0947-1.8711-0.7686-2.9229-0.6816-1.0605-1.498-1.456-2.2343-1.8086l-1.0176 0.8672c2.0439 0.7822 2.7295 1.6973 2.8027 3.8643h-3.5312v1.0976h7.9326v-1.0976z" fill="#fff"/>
  <path d="m135.28-13.215c-0.8047-0.5547-1.3818-0.9073-2.1387-1.2373l-0.6816 0.8417c1.8281 0.711 3.6504 2.1495 4.8184 3.625l0.8281-0.7109c0.0449-0.0391 0.0762-0.0732 0.0762-0.1162 0-0.1504-0.3155-0.1816-0.3887-0.1816-0.2617-0.2995-0.6094-0.7022-1.4395-1.3936v-4.6201h-1.0742v3.793z" fill="#fff"/>
  <path d="m139.67-9.0693h5.9453c0.1133 0 0.2276 0.0879 0.3467 0.1699l1.0264-0.9776c-0.0713-0.0654-0.1367-0.1162-0.2158-0.2099-0.7481-2.1758-2.2207-5.1406-5.1807-6.5879l-1.1025 0.915c2.6582 1.3477 3.9824 3.0938 4.7675 5.4561h-5.5869v1.2344zm6.2071 0.4492c-0.2393 0.3037-0.5459 0.668-0.8702 0.9355l0.5118 0.4658c0.3779-0.3183 0.7558-0.7841 0.8759-0.9326l-0.5175-0.4687zm1.5322 0.0508c-0.1455 0.2246-0.4326 0.6172-0.8469 0.955l0.5109 0.4727c0.379-0.3076 0.7139-0.7256 0.8936-0.9697l-0.5576-0.458z" fill="#fff"/>
 </g>
</svg>
