<?xml version="1.0" encoding="UTF-8"?>
<svg id="logo" width="650" height="200" version="1.1" viewBox="0 0 650 200" xml:space="preserve" xmlns="http://www.w3.org/2000/svg">
<path id="gandi" d="m203.25 106.44c-8.9653 0-10.701-6.5035-10.701-16.912 0-12.723 4.915-17.639 11.133-17.639 6.9389 0 10.552 4.484 10.552 15.035 0 12.577-3.3258 19.516-10.984 19.516zm-5.7857 28.191c0.86704 0.14406 1.7366 0.28897 2.7473 0.28897 12.723 0.86668 16.481 2.7461 16.481 9.255 0 5.0565-4.4814 11.127-14.746 11.127-9.8299 0-12.144-3.612-12.144-8.237 0-4.628 3.4707-9.399 7.661-12.434zm13.88-70.26c-2.4587-0.72337-5.3497-1.1556-7.2288-1.1556-14.166 0-23.999 7.9496-23.999 27.178 0 9.2511 2.1714 17.204 8.8192 21.54-4.1916 3.4684-8.9641 9.3975-9.1078 13.155-0.14492 3.7564 3.1796 6.3606 8.6742 7.953-6.0731 4.0453-10.842 9.8289-10.842 16.766 0 7.521 3.7593 16.483 23.274 16.483 19.226 0 27.612-11.278 27.612-23.71 0-11.418-8.673-15.613-17.926-16.911-10.842-1.449-18.217-1.8809-18.217-4.3386 0-2.0253 1.8803-4.4831 3.758-6.5069 1.8815 0.4334 4.0491 0.57782 6.5091 0.57782 16.769 0 23.419-9.9762 23.419-25.297 0-7.2296-2.1701-12.723-5.6408-16.337 2.0252 0.43627 3.7593 0.72275 5.3497 0.72275 2.4587 0 4.0466-1.4475 4.0466-4.626 0-2.6036-0.57595-4.4819-1.1544-5.4939h-17.347zm-85.688-13.336c-5.1213-3.6256-12.21-2.4125-15.834 2.7073-4.4488 6.2905-9.3745 10.953-14.979 14.173-0.51673 0.29672-1.0415 0.58132-1.5704 0.85506-0.4875 0.25274-0.98236 0.49437-1.4802 0.72475-5.233 2.4255-11.062 3.6987-17.799 3.9007-6.7388-0.20202-12.57-1.4762-17.805-3.9017-6.8944-3.1951-12.793-8.3473-18.034-15.752-3.6236-5.1198-10.713-6.333-15.832-2.7073-5.1209 3.6219-6.3351 10.711-2.7105 15.832 7.4878 10.581 16.581 18.401 27.027 23.24 2.0517 0.95126 4.1448 1.7872 6.2902 2.5094-8.8724 6.4069-18.466 15.387-23.061 27.698-4.7705 12.776-4.7104 26.608 0.16593 38.951 4.6787 11.841 13.339 21.471 24.387 27.119 12.308 6.2931 27.977 6.3068 41.91 0.0312 14.623-6.5815 24.16-18.632 25.516-32.242 1.4231-14.325-5.4449-27.08-17.501-32.494-12.487-5.608-26.573-1.605-35.883 10.194-3.8871 4.9237-3.0448 12.067 1.8784 15.953 4.9252 3.8876 12.068 3.0443 15.954-1.8794 2.7667-3.5054 5.9559-4.7983 8.7485-3.544 2.3801 1.0693 4.7319 4.1341 4.1971 9.5239-0.53297 5.3356-5.22 10.617-12.233 13.775-7.5893 3.4133-16.115 3.588-22.248 0.45339-6.1218-3.1306-10.951-8.543-13.597-15.239-1.9873-5.0263-3.6023-13.042-0.01121-22.657 2.6929-7.212 9.4808-14.017 21.363-21.41 5.0438-3.1405 10.453-6.0671 15.683-8.8972 6.0311-3.2644 11.747-6.3584 16.767-9.6722 8.9334-4.8856 16.791-12.074 23.401-21.414 3.6246-5.1208 2.4109-12.21-2.7091-15.832zm144.35 76.657c-1.2981 1.4426-4.9149 2.3133-7.8059 2.3133-5.6371 0-9.2515-0.58032-9.2515-13.015 0-12.721 4.9124-14.742 10.699-14.742 2.0214 0 4.9137 0.28748 6.794 1.3016 0 10.407-0.43602 24.142-0.43602 24.142zm-2.5999-64.477c-13.444 0-23.133 1.879-25.301 3.4701-1.012 0.72462-1.3006 2.1678-1.3006 3.7593 0 1.0116 0.14492 5.0589 1.5892 7.5175 4.4839-2.0262 13.878-3.3273 20.384-3.3273 4.4802 0 7.6635 1.7368 7.6635 8.5307v12.142c-2.8922-1.4416-7.3737-1.8779-10.988-1.8779-9.2514 0-18.793 3.6134-18.793 23.71 0 21.973 10.118 22.843 20.671 22.695 9.3976 0 16.192-2.3152 20.097-4.77 0 0 0.86831-20.528 0.86831-45.83v-8.3843c0-13.009-5.4934-17.635-14.891-17.635zm-199.49-33.564c1.4544-1.4555 3.3894-2.2576 5.4454-2.2576 2.0586 0 3.9936 0.80208 5.4474 2.2563 1.4552 1.4567 2.2571 3.3895 2.2571 5.4472 0 2.0589-0.80183 3.9929-2.2561 5.4459-1.4549 1.4567-3.3899 2.2576-5.4484 2.2576-2.0561 0-3.9911-0.80083-5.4454-2.2551-1.4547-1.4555-2.2566-3.3895-2.2566-5.4484 0-2.0577 0.80183-3.9904 2.2566-5.4459zm5.4454 31.662c7.0027 0 13.588-2.7273 18.539-7.6798 4.9501-4.9499 7.6771-11.532 7.6771-18.537 0-7.0026-2.7271-13.585-7.6786-18.538-4.9496-4.9499-11.535-7.6773-18.537-7.6773-7.0007 0-13.585 2.7273-18.536 7.6798-4.9516 4.9499-7.6781 11.533-7.6781 18.535 0 7.0026 2.7266 13.587 7.6786 18.537 4.9506 4.9524 11.535 7.6798 18.536 7.6798zm384.72 61.028c-5.2035 0-8.0945 3.9037-8.0945 8.3848 0 5.0594 2.024 8.2428 8.0945 8.2428 5.0574 0 8.0996-3.7578 8.0996-8.2428 0-5.0569-2.1701-8.3848-8.0996-8.3848zm48.541-59.127c-7.8034 0-18.214 2.1676-23.856 4.7706v69.68c12.003 0 11.715 0 11.715-2.4537v-58.985c3.1784-2.022 7.6573-2.7466 10.841-2.7466 7.661 0 8.5281 4.3351 8.5281 15.755v48.431c12.286 0 12.144 0 12.144-2.4537v-45.396c0-19.951-1.8828-26.6-19.371-26.6zm-79.299-31.371c-4.6251 0-6.6503 3.4707-6.6503 8.6742-0.14492 6.794 2.1714 8.9616 5.9269 9.1078 4.3352 0 6.5066-3.4694 6.6503-9.3964 0-6.0718-1.4455-8.3856-5.9269-8.3856zm-84.79 57.971c0-19.951-1.8803-26.6-19.37-26.6-7.8072 0-18.217 2.1676-23.854 4.7706v69.68c12.001 0 11.71 0 11.71-2.4537v-58.985c3.1784-2.022 7.661-2.7466 10.843-2.7466 7.6623 0 8.5293 4.3351 8.5293 15.755v48.431c12.287 0 12.141 0 12.141-2.4537v-45.396zm230.41 7.3712c-5.0574 1.447-14.023 1.734-19.659 1.591 0.86455-20.095 6.2155-25.298 12.142-25.298 6.2155 0 8.0946 4.3351 8.237 14.745 0 2.7481-0.14242 6.3609-0.72087 8.9621zm12.145-10.264c0-15.467-6.2168-23.708-18.364-23.708-12.865 0-25.585 4.4822-25.585 42.069 0 29.49 9.6875 34.55 23.133 34.55 10.842 0 19.945-3.4718 19.945-5.4923 0-3.18-0.28361-8.2408-1.0082-10.409-4.9162 2.7447-10.701 4.4826-17.638 4.4826-7.8072 0-11.853-2.604-12.285-20.095 6.9339 0 20.237-0.29047 30.213-2.3148 1.1569-5.2038 1.5904-12.576 1.5904-19.083zm-194.73 40.192c-2.315 1.589-5.3522 2.1669-8.5331 2.1669-6.7927 0-10.837-3.18-10.837-26.454 0-23.711 6.358-29.348 12.718-29.348 3.0309 0 4.77 0.43228 6.6515 1.8789v51.756zm0-90.353v29.346c-2.46-1.7366-5.7832-2.8922-10.267-2.8922-12.43 0-22.265 12.288-22.265 40.912 0 31.371 9.8349 35.707 23.564 35.707 8.9678 0 15.761-1.4456 20.674-4.3351v-104.09c-9.5426 0-11.706 0-11.706 5.3522zm30.465 33.971v66.933c11.855 0 11.999 0 11.999-2.4537v-69.829c-9.5413 0-11.999 0-11.999 5.3496zm202.1 59.127c-5.1998 0-5.1998-5.2029-5.1998-11.42v-42.936h12.431c2.3163 0 2.3163-1.0127 2.3163-10.121h-14.747v-26.02c-9.5413 0-11.706 0-11.706 4.0491v21.971h-7.3774c-2.4575 0-2.5999 1.1575-2.5999 10.121h9.9773v41.636c0 13.011 0 22.843 13.729 22.843 5.6383 0 12.434-1.1595 12.434-4.6298 0-2.8901-0.43353-6.0706-0.8708-7.6592-3.0334 1.3006-4.3365 2.1669-8.3856 2.1669" fill="#231f20"/>
</svg>
