<svg xmlns="http://www.w3.org/2000/svg" width="319.628" height="183.591" viewBox="0 0 84.568325 48.575007"><path d="M83.292 2.674c0-.44-.063-.882-.102-1.404h-1.25c-22.4 0-44.8-.004-67.198.033-.608 0-1.36.317-1.797.742-3.61 3.501-7.138 7.083-10.74 10.591-.7.684-.94 1.374-.935 2.326.029 10.2.02 20.398.02 30.597v1.695c.435.023.705.05.975.05 22.54 0 45.08.005 67.619-.03.568 0 1.272-.298 1.68-.697a696.841 696.841 0 0 0 10.992-10.933c.423-.431.709-1.199.71-1.815.043-10.383.033-20.768.026-31.155" fill="#ff8500"/><path d="M30.855 13.546v21.483H25.89v-7.226h-6.98v7.226h-5.064V13.546h5.064v9.685h6.98v-9.685zm17.45 21.484l-4.915-7.375h-3.638v7.374h-5.063V13.546h14.6c.72 0 1.327.222 1.82.664.49.442.736.976.736 1.597v9.537c0 .656-.246 1.205-.737 1.647-.492.444-1.098.664-1.819.664l4.916 7.374zm-8.553-11.947h7.03v-4.965h-7.03zm30.97-5.015h-4.964v16.96h-5.066v-16.96H55.73v-4.52h14.993zm0 0" fill="#fff"/></svg>