<?xml version="1.0" encoding="UTF-8"?>
<svg id="svg16" width="134.67" height="17.014" version="1.1" viewBox="0 0 134.67 17.014" xmlns="http://www.w3.org/2000/svg">
 <g id="g4596" transform="translate(-1.5498 -8.2554)" fill="#0098ff">
  <path id="path4541" d="m1.5498 8.5361h4.5708v3.1109h-4.5708zm0 4.5371h4.5708v11.927h-4.5708z"/>
  <path id="path4543" d="m8.763 13.073h4.2563v1.9429q0.95459-1.1904 1.9316-1.6958 0.97705-0.5166 2.3809-0.5166 1.8979 0 2.9648 1.1343 1.0781 1.123 1.0781 3.4814v7.581h-4.5933v-6.5586q0-1.123-0.41553-1.5835-0.41553-0.47168-1.168-0.47168-0.83106 0-1.3477 0.62891-0.5166 0.62891-0.5166 2.2573v5.728h-4.57z"/>
  <path id="path4545" d="m28.914 13.073h2.1787v3.3467h-2.179v8.58h-4.582v-8.5801h-1.707v-3.3467h1.707v-0.539q0-0.72998 0.15723-1.606 0.15723-0.87598 0.58398-1.4263 0.43799-0.56152 1.2129-0.89844 0.78613-0.34814 2.291-0.34814 1.2017 0 3.4927 0.28076l-0.50537 2.7627q-0.81982-0.13476-1.3252-0.13476-0.61768 0-0.88721 0.21338-0.26953 0.20215-0.38184 0.65137-0.05615 0.24707-0.05615 1.0444z"/>
  <path id="path4547" d="m31.522 19.07q0-2.729 1.8418-4.4922 1.8418-1.7744 4.9751-1.7744 3.5825 0 5.4131 2.0776 1.4712 1.6733 1.4712 4.1216 0 2.7515-1.8306 4.5146-1.8193 1.752-5.0425 1.752-2.875 0-4.6494-1.46-2.1787-1.8081-2.1787-4.7393zm4.582-0.01123q0 1.5947 0.64014 2.3584 0.65137 0.76367 1.6284 0.76367 0.98828 0 1.6172-0.75244 0.64014-0.75244 0.64014-2.4146 0-1.5498-0.64014-2.3022-0.64014-0.76367-1.5835-0.76367-0.99951 0-1.6509 0.7749-0.65137 0.76367-0.65137 2.3359z"/>
  <path id="path4549" d="m47.203 13.073h4.2676v1.7407q0.9209-1.0894 1.853-1.5498 0.94336-0.46045 2.2686-0.46045 1.4263 0 2.2573 0.50537 0.83106 0.50537 1.3589 1.5049 1.0781-1.168 1.9653-1.5835 0.88721-0.42676 2.1899-0.42676 1.9204 0 2.9985 1.1455 1.0781 1.1343 1.0781 3.5601v7.491h-4.582v-6.7944q0-0.80859-0.31445-1.2017-0.46045-0.61768-1.1455-0.61768-0.80859 0-1.3027 0.58398-0.49414 0.58398-0.49414 1.8755v6.154h-4.582v-6.5698q0-0.78613-0.08984-1.0669-0.146-0.44922-0.50537-0.71875-0.35938-0.28076-0.84228-0.28076-0.78613 0-1.2915 0.59521-0.50537 0.59522-0.50537 1.9541v6.087h-4.583z"/>
  <path id="path4551" d="m74.036 16.937-4.369-0.461q0.24707-1.1455 0.70752-1.7969 0.47168-0.6626 1.3477-1.1455 0.62891-0.34814 1.7295-0.53906t2.3809-0.19092q2.0552 0 3.3018 0.23584 1.2466 0.22461 2.0776 0.95459 0.58398 0.50537 0.9209 1.4375 0.33691 0.9209 0.33691 1.7632v5.2671q0 0.84228 0.10107 1.3252 0.1123 0.47168 0.47168 1.2129h-4.29q-0.2583-0.46045-0.33691-0.69629-0.07861-0.24707-0.15723-0.76367-0.89844 0.86475-1.7856 1.2354-1.2129 0.49414-2.8188 0.49414-2.1338 0-3.2456-0.98828-1.1006-0.98828-1.1006-2.437 0-1.3589 0.79736-2.2349 0.79736-0.87598 2.9424-1.3027 2.5718-0.5166 3.3354-0.71875 0.76367-0.21338 1.6172-0.55029 0-0.84229-0.34814-1.1792t-1.2241-0.33691q-1.123 0-1.6846 0.35938-0.43799 0.28076-0.70752 1.0557zm3.9644 2.4033q-0.94336 0.33691-1.9653 0.59522-1.3926 0.3706-1.7632 0.72998-0.38184 0.37061-0.38184 0.84228 0 0.53906 0.3706 0.88721 0.38184 0.33691 1.1118 0.33691 0.76367 0 1.415-0.3706 0.6626-0.37061 0.93213-0.89844 0.28076-0.53906 0.28076-1.3926z"/>
  <path id="path4553" d="m84.933 13.073h4.2563v1.9429q0.95459-1.1904 1.9316-1.6958 0.97705-0.5166 2.3809-0.5166 1.8979 0 2.9648 1.1343 1.0781 1.123 1.0781 3.4814v7.581h-4.5933v-6.5586q0-1.123-0.41553-1.5835-0.41553-0.47168-1.168-0.47168-0.83106 0-1.3477 0.62891-0.5166 0.62891-0.5166 2.2573v5.728h-4.5708z"/>
  <path id="path4555" d="m100.16 8.5361h4.5708v3.1108h-4.5708zm0 4.5371h4.5708v11.927h-4.5708z"/>
  <path id="path4557" d="m111.54 16.937-4.3686-0.46045q0.24707-1.1455 0.70752-1.7969 0.47168-0.6626 1.3477-1.1455 0.6289-0.34814 1.7295-0.53906t2.3809-0.19092q2.0552 0 3.3018 0.23584 1.2466 0.22461 2.0776 0.95459 0.58399 0.50537 0.9209 1.4375 0.33692 0.9209 0.33692 1.7632v5.2671q0 0.84228 0.10107 1.3252 0.11231 0.47168 0.47168 1.2129h-4.29q-0.2583-0.46045-0.33691-0.69629-0.0786-0.24707-0.15723-0.76367-0.89844 0.86475-1.7856 1.2354-1.2129 0.49414-2.8188 0.49414-2.1338 0-3.2456-0.98828-1.1006-0.98828-1.1006-2.437 0-1.3589 0.79736-2.2349 0.79736-0.87598 2.9424-1.3027 2.5718-0.5166 3.3354-0.71875 0.76367-0.21338 1.6172-0.55029 0-0.84229-0.34814-1.1792-0.34815-0.33691-1.2241-0.33691-1.123 0-1.6846 0.35938-0.43798 0.28076-0.70752 1.0557zm3.9644 2.4033q-0.94336 0.33691-1.9653 0.59522-1.3926 0.3706-1.7632 0.72998-0.38183 0.37061-0.38183 0.84228 0 0.53906 0.3706 0.88721 0.38184 0.33691 1.1118 0.33691 0.76367 0 1.415-0.3706 0.6626-0.37061 0.93213-0.89844 0.28076-0.53906 0.28076-1.3926z"/>
  <path id="path4559" d="m122.26 8.5361h4.6719v8.4902l3.4141-3.9531h5.6265l-4.27 4.178 4.52 7.749h-5.1548l-2.4146-4.7842-1.7183 1.6846v3.1h-4.6719z"/>
 </g>
</svg>
