<svg xmlns="http://www.w3.org/2000/svg" height="129.9" viewBox="0 0 395.21647 129.89999" width="395.22"><path d="M0 64.95V0h395.1v129.9H0V64.95z" fill="#fdfdfe"/><path d="M180.68 129.45c-5.49-1.34-9.18-7.197-9.169-14.55.014-9.305 5.563-15.312 14.131-15.296 6.432.011 11.439 4.032 13.17 10.576.772 2.92.649 7.606-.276 10.45-1.175 3.613-3.533 6.677-6.213 8.07-2.212 1.151-8.376 1.548-11.643.75zm7.735-2.731c4.078-1.211 6.433-4.398 7.189-9.728.354-2.497.004-5.45-.946-7.99-.892-2.385-3.399-4.901-5.616-5.638-2.356-.782-6.26-.543-8.29.507-3.691 1.911-5.633 5.784-5.606 11.18.022 4.53 1.635 8.384 4.274 10.212 2.657 1.842 5.92 2.37 8.995 1.457zm21.046 2.727c-2.166-.529-3.757-1.65-4.997-3.525-1.835-2.773-1.979-3.942-1.89-15.394l.08-10.177h3.3l.15 10.65.15 10.65.854 1.74c.555 1.132 1.237 1.993 1.95 2.461 2.948 1.938 8.198 1.701 10.685-.482.614-.539 1.28-1.569 1.645-2.548.575-1.535.615-2.298.615-11.625 0-7.662.09-10.104.386-10.509.29-.397.717-.504 1.725-.432l1.34.095.078 10.65c.07 9.346.017 10.85-.432 12.277-.97 3.085-3.42 5.497-6.278 6.18-2.173.518-7.212.513-9.361-.012zm138.69.019c-2.952-.726-4.949-2.222-6.814-5.102-1.777-2.746-2.471-5.365-2.466-9.313.007-5.014 1.23-8.41 4.135-11.483 2.49-2.633 5.715-3.957 9.657-3.963 6.78-.012 11.753 3.912 13.479 10.634.602 2.345.595 7.2-.014 9.55-1.292 4.987-4.63 8.694-8.702 9.666-2.146.513-7.21.518-9.275.01zm8.814-3.178c2.02-.869 4.278-3.328 5.155-5.613 1.01-2.628 1.16-7.444.321-10.209-1.127-3.71-3.589-6.423-6.587-7.255-1.654-.46-5.163-.373-6.748.167-4.634 1.58-7.568 7.975-6.512 14.195.786 4.632 3.397 8.03 7.028 9.148 2.054.632 5.313.44 7.343-.433zM.005 90.63c0-35.257.045-38.985.475-39.15.26-.1 5.989-.182 12.728-.182 10.74 0 12.312.058 12.725.472.42.42.471 3.187.471 25.95v25.479h25.618c23.083 0 25.636.046 25.8.474.1.261.182 6.04.182 12.84 0 9.218-.091 12.457-.36 12.725-.276.276-9.347.36-39 .36H.005V90.63zm90.36 38.608c-.268-.268-.36-3.542-.36-12.879 0-10.98.058-12.576.472-12.99.397-.397 1.414-.471 6.45-.471h5.978v-76.5h-76.5v5.87c0 3.472-.127 6.106-.31 6.45-.3.559-.759.58-12.725.58-6.829 0-12.628-.082-12.89-.182-.426-.164-.474-2.175-.474-19.65V-.003h64.768c58.782 0 64.782.043 64.952.474.1.261.18 29.26.18 64.44 0 49.351-.083 64.048-.36 64.325-.52.52-38.66.52-39.18 0zm61.213.013c-.543-.542-.541-27.81.001-28.55.342-.467 1.19-.506 9.525-.433l9.15.08.097 1.188c.157 1.93.025 1.962-8.262 1.962h-7.3l.082 4.575.083 4.575 6.75.15 6.75.15v3l-6.75.15-6.75.15-.15 6.6-.15 6.6-1.351.088c-.792.052-1.507-.066-1.725-.285zm78.964-.028c-.079-.206-.108-6.787-.065-14.625l.078-14.25 1.705-.09 1.704-.089 1.164 1.59c.64.874 4.26 6.09 8.045 11.593l6.882 10.004.078-11.177c.056-7.878.18-11.3.424-11.593.226-.272.82-.385 1.721-.327l1.377.09v29.1l-1.65.078c-.908.042-1.8-.025-1.983-.15-.183-.126-3.674-5.088-7.758-11.028s-7.613-10.998-7.843-11.24c-.356-.375-.416 1.203-.416 10.844 0 12.564.168 11.646-2.134 11.646-.672 0-1.248-.163-1.329-.375zm28.423.015c-.473-.473-.52-27.58-.05-28.46.291-.543.684-.58 6.095-.58 3.182 0 6.586.147 7.565.328 5.156.95 8.63 4.416 9.743 9.722.54 2.577.464 7.695-.15 10.032-1.446 5.495-4.962 8.565-10.363 9.047-4.247.38-12.428.323-12.84-.09zm14.49-3.536c2.576-.981 4.147-2.69 4.974-5.415.556-1.829.629-2.672.528-6.101-.11-3.79-.163-4.075-1.116-6.01-.788-1.6-1.296-2.22-2.393-2.915-2.26-1.434-3.872-1.763-8.647-1.763h-4.296v23.172l4.575-.141c3.814-.118 4.874-.256 6.375-.828zm10.05 3.276c0-.814 11.065-28.264 11.51-28.55.187-.121.948-.22 1.69-.22.743 0 1.505.099 1.695.22.437.28 11.206 27.713 11.206 28.548 0 .543-.182.622-1.425.618-.784-.002-1.59-.11-1.793-.239-.203-.128-1.085-2.05-1.96-4.27l-1.593-4.037h-12.579l-1.54 3.9c-.847 2.145-1.696 4.069-1.887 4.275-.19.206-1.016.375-1.835.375-1.304 0-1.488-.077-1.488-.62zm17.7-11.775c0-.773-4.428-12.052-4.687-11.938-.214.095-4.143 9.78-4.776 11.775-.168.528.08.558 4.643.558 3.79 0 4.82-.085 4.82-.396zm14.913 12.209c-.117-.118-.213-5.996-.213-13.063v-12.85h-4.629c-3.808 0-4.712-.084-5.1-.472-.567-.566-.61-1.623-.096-2.325.343-.469 1.324-.505 11.775-.432l11.4.079.094 1.146c.159 1.925-.047 2.004-5.228 2.004h-4.61l-.078 12.975-.078 12.975-1.512.088c-.831.049-1.607-.008-1.725-.125zm15.762-.005c-.593-.25-.541-28.397.053-28.89.235-.195 1.011-.313 1.725-.262l1.297.093v29.1l-1.35.059c-.742.032-1.519-.013-1.725-.1zm38.462-.183c-.079-.207-.108-6.788-.065-14.625l.078-14.25h3.598l7.745 11.25c4.26 6.187 7.87 11.294 8.022 11.349.166.059.309-4.462.356-11.25l.079-11.35h3.3v29.1l-1.65.088c-1.024.055-1.835-.06-2.135-.3-.266-.213-3.91-5.381-8.1-11.485l-7.615-11.098-.08 11.071c-.053 7.562-.183 11.198-.41 11.473-.427.514-2.928.535-3.123.026zm-66.24-38.662c-5.458-.7-9.724-2.579-12.743-5.61-2.291-2.301-3.616-4.74-4.621-8.506-.652-2.444-.665-2.85-.665-20.643v-18.15h16.5l.163 16.95c.111 11.578.272 17.262.507 17.936 1.107 3.172 2.704 4.321 6.261 4.508 3.875.203 5.645-.904 6.905-4.316.495-1.341.56-3.024.704-18.277l.16-16.8 7.913-.08c5.587-.057 8.034.02 8.325.262.34.281.411 3.016.407 15.53-.003 8.353-.134 16.749-.292 18.656-.493 5.945-2.107 9.9-5.35 13.109-3.984 3.94-10.187 5.833-18.796 5.734-1.819-.02-4.24-.157-5.378-.303zm-152.57-1.438c-.21-.387-.31-8.978-.31-25.764 0-20.982.069-25.24.412-25.525.29-.242 2.738-.319 8.325-.262l7.913.08.077 18.975.078 18.975h11.038c8.184 0 11.13.093 11.398.36.51.51.51 12.87 0 13.38-.273.272-5.011.36-19.49.36-18.605 0-19.137-.016-19.44-.58zm49.03.21c-.08-.21-.111-11.922-.068-26.03l.077-25.65h16.2v51.9l-8.032.08c-6.265.062-8.065-.004-8.178-.3zm27.794-.038c-.247-.297-.318-7.347-.262-26.025l.077-25.617 8.301-.08 8.301-.08.571.83c.314.457 3.53 6.286 7.149 12.953L259.07 63.4l.078-12.547c.055-8.749.18-12.67.416-12.954.271-.326 1.822-.39 7.872-.326l7.534.08v51.9l-7.851.08-7.851.08-.57-.83c-.313-.457-3.732-6.481-7.598-13.388l-7.03-12.558-.078 12.98c-.054 8.976-.181 13.106-.412 13.384-.491.591-14.734.586-15.225-.006zm111.77.212c-.112-.112-.204-.384-.204-.604 0-.22 3.826-6.037 8.502-12.925s8.738-12.892 9.027-13.34l.526-.815-8.168-11.606c-4.493-6.383-8.184-11.821-8.203-12.085-.03-.428.957-.488 9.23-.559 6.494-.056 9.385.02 9.668.256.222.185 1.975 3.164 3.894 6.621s3.565 6.211 3.656 6.12c.091-.09 1.738-3.034 3.66-6.541l3.494-6.377 8.914-.079c7.473-.067 8.942-.01 9.078.346.095.248-3.171 5.318-7.807 12.12-4.384 6.43-7.971 11.82-7.971 11.974 0 .155 3.847 5.99 8.55 12.968 4.702 6.977 8.55 12.847 8.55 13.044 0 .197.167.525.372.73.797.797-.659.938-9.7.943-8.37.004-9.22-.042-9.64-.52-.253-.29-2.174-3.527-4.267-7.196-2.094-3.668-3.906-6.731-4.028-6.806-.121-.076-2.17 3.128-4.554 7.12l-4.333 7.256-9.02.08c-4.962.043-9.114-.013-9.226-.125zm-178.35-60.164c-.27-.269-.36-3.612-.36-13.193V3.317l-4.868-.082-4.868-.083-.295-.84c-.201-.571-.193-1.005.025-1.35.293-.465 1.333-.51 11.838-.51h11.517v2.7l-4.875.083-4.875.082V16.15c0 9.581-.09 12.924-.36 13.193-.465.466-2.414.466-2.88 0zm15.26-.204c-.21-.396-.32-5.218-.32-14.38 0-11.567.068-13.84.427-14.137.235-.196 1.012-.314 1.725-.262l1.297.093.15 6 .15 6 8.025.08 8.025.08V6.818c0-4.107.105-5.9.36-6.155.466-.466 2.714-.466 3.18 0 .474.474.52 27.58.05 28.46-.236.44-.633.58-1.64.58s-1.404-.14-1.64-.58c-.19-.347-.31-3.117-.31-6.899v-6.32h-16.188l-.08 6.825-.081 6.825-1.407.091c-1.15.074-1.463-.017-1.725-.505zm28.514.155c-.245-.295-.318-4.378-.262-14.625l.078-14.216h20.4l.096.994c.179 1.866.229 1.856-8.84 1.856h-8.22l.082 4.725.082 4.725 7.8.15 7.8.15v2.7l-7.8.15-7.8.15-.082 5.17-.082 5.17 8.475.08 8.475.08.286.813c.194.552.174 1.057-.062 1.575l-.347.762h-9.87c-7.97 0-9.935-.079-10.209-.41z" fill="#b3c7d5"/><path d="M181.13 129.46c-2.005-.552-3.783-1.67-5.393-3.391-6.502-6.952-4.871-20.462 2.966-24.577 2.483-1.304 4.476-1.692 7.79-1.519 2.48.13 3.09.28 5.04 1.244 3.463 1.712 5.692 4.522 6.938 8.75.65 2.203.734 7.107.163 9.437-1.243 5.062-4.716 8.903-9.108 10.072-1.945.517-6.488.509-8.396-.017zm8.32-2.827c1.928-.852 3.063-1.719 4.064-3.1 2.626-3.625 3.233-9.736 1.439-14.482-.975-2.579-3.663-5.23-6.057-5.975-2.501-.778-6.103-.556-8.149.5-2.774 1.435-4.842 4.297-5.576 7.72-.516 2.404-.207 7.307.588 9.354 1.77 4.555 5.563 7.028 10.303 6.721 1.109-.072 2.634-.404 3.389-.738zm20.397 2.851c-2.003-.633-3.009-1.285-4.44-2.877-2.393-2.661-2.46-3.08-2.46-15.304v-10.65h2.7l.168 10.35c.099 6.08.3 10.73.488 11.268.996 2.863 2.656 4.375 5.435 4.952 3.382.702 6.899-.196 8.671-2.215 1.734-1.975 1.888-3.105 1.888-13.884 0-5.32.082-9.885.182-10.146.128-.333.575-.475 1.5-.475h1.318v10.658c0 9.89-.043 10.781-.6 12.365-1.063 3.024-3.307 5.135-6.307 5.934-2.002.532-6.892.547-8.543.024zm138.75-.009c-5.516-1.53-8.962-6.322-9.49-13.195-.522-6.778 2.573-12.756 7.89-15.244 1.67-.782 2.443-.95 4.91-1.069 5.053-.243 8.662 1.32 11.425 4.948 2.013 2.642 2.706 4.864 2.882 9.238.11 2.771.028 4.044-.359 5.529-1.31 5.026-4.608 8.644-8.93 9.794-1.92.511-6.484.51-8.328-.001zm8.534-2.975c3.895-1.784 6.154-5.984 6.162-11.458.008-5.356-2.106-9.523-5.827-11.486-1.367-.722-1.834-.802-4.67-.802-2.685 0-3.357.102-4.558.694-3.032 1.493-4.972 4.357-5.843 8.625-1.099 5.38.987 11.435 4.758 13.816 2.774 1.751 6.93 2.005 9.978.61zM0 90.61v-38.7h25.796l.076 25.725.077 25.725 25.725.076 25.725.077v25.796H0v-38.7zm90.502 38.502c-.112-.112-.203-5.823-.203-12.692 0-9.315.092-12.582.36-12.85.257-.257 2.114-.36 6.452-.36h6.09l-.075-38.475-.077-38.475h-76.8l-.081 5.977c-.052 3.79-.202 6.122-.412 6.375-.265.319-2.849.397-13.043.397H.001v-39h129.29l.163.675c.09.372.126 29.43.08 64.575l-.081 63.9-19.373.078c-10.655.042-19.464-.014-19.575-.125zm61.198 0c-.288-.288-.239-27.775.05-28.23.187-.296 2.236-.362 9.22-.3l8.98.079.093 1.125c.05.619.05 1.153 0 1.187s-3.536.135-7.743.225l-7.65.163-.087 4.2c-.047 2.31-.011 4.501.08 4.87.164.664.215.67 6.836.75l6.67.08.093 1.275.092 1.275H161.6c-5.865 0-6.759.061-6.917.475-.1.26-.183 3.298-.183 6.75v6.275h-1.3c-.715 0-1.39-.09-1.5-.2zm79.072-14.11l.078-14.341h3.232l7.014 10.2c3.858 5.61 7.518 10.875 8.134 11.7l1.12 1.5.15-11.7.15-11.7h2.7l.077 14.325.078 14.325h-1.643c-1.959 0-.852 1.344-10.801-13.125-3.772-5.487-6.97-9.975-7.106-9.975s-.284 5.163-.327 11.475l-.078 11.475-1.428.091-1.428.092.078-14.342zm28.328 14.109c-.296-.296-.235-27.781.063-28.25.202-.32 1.603-.379 6.97-.29 7.455.124 8.755.39 11.476 2.343 3.668 2.634 5.478 8.332 4.696 14.78-.725 5.977-3.245 9.425-8.037 10.999-1.667.548-2.626.618-8.425.618-3.599 0-6.633-.09-6.743-.2zm12.443-2.633c2.62-.556 4.155-1.37 5.464-2.9 1.758-2.053 2.142-3.636 2.142-8.824 0-4.496-.002-4.512-.993-6.524-1.066-2.165-2.055-3.1-4.423-4.176-1.306-.595-2.085-.69-6.509-.79l-5.025-.114v11.68c0 6.424.09 11.77.2 11.88.368.367 7.124.195 9.144-.233zm12.257 2.359c0-.537 10.738-27.372 11.184-27.951.16-.207.928-.375 1.715-.375.786 0 1.557.168 1.718.375.433.559 10.883 27.394 10.883 27.948 0 .37-.327.476-1.462.476h-1.462l-1.713-4.355-1.714-4.356-6.458.08-6.457.081-1.66 4.275-1.66 4.275h-1.457c-1.128 0-1.458-.107-1.458-.473zm17.797-11.151c.21-.36-4.715-13.13-5.044-13.078-.289.045-5.203 12.178-5.236 12.928-.013.286 1.19.375 5.065.375 2.796 0 5.142-.101 5.215-.225zm14.532-1.35l-.079-12.975-4.768-.15c-5.202-.164-5.572-.3-5.17-1.904l.2-.796h22.824l-.092 1.275-.093 1.275-4.8.15-4.8.15-.078 12.975-.078 12.975h-2.987l-.078-12.975zm15.809 12.6c-.08-.206-.109-6.653-.066-14.325l.078-13.95h2.7l.078 14.325.078 14.325h-1.362c-.813 0-1.42-.151-1.506-.375zm38.563-14.01v-14.415h3.233l7.963 11.564c4.38 6.36 8.073 11.558 8.208 11.55.135-.008.313-5.178.396-11.49l.15-11.474h2.7l.078 14.325.077 14.325-1.727-.001-1.728-.001-7.945-11.549c-4.37-6.352-8.047-11.549-8.172-11.549-.124 0-.262 5.164-.305 11.475l-.078 11.475-1.425.091-1.425.092v-14.416zm-67.05-24.75c-10.291-1.609-15.68-6.91-16.941-16.665-.215-1.662-.3-8.3-.245-19.05l.085-16.5 8.025-.08 8.025-.08v15.85c0 10.166.118 16.485.328 17.62.796 4.308 2.933 6.136 7.172 6.136 3.62 0 5.736-1.462 6.747-4.663.516-1.634.573-3.171.679-18.363l.115-16.58 8.005.08 8.004.08.089 15c.119 20.2-.215 23.709-2.702 28.41-1.025 1.939-3.89 4.829-6.018 6.07-4.66 2.718-13.908 3.902-21.368 2.735zM151.842 89c-.25-.3-.32-7.192-.264-25.727l.077-25.317 8.023-.08 8.022-.08.078 18.98.077 18.98 11.25.15 11.25.15v13.2l-19.086.077c-15.842.064-19.144.008-19.427-.333zm49.068.21c-.113-.112-.205-11.725-.205-25.805v-25.6h15.903l-.077 25.725-.077 25.725-7.67.08c-4.218.044-7.762-.012-7.875-.125zm27.6 0c-.113-.112-.206-11.726-.206-25.81V37.798l8.303.08 8.302.079 6.71 12.3a3277.9 3277.9 0 0 0 7.223 13.2c.49.862.519.34.662-12.3l.15-13.2 7.577-.08 7.577-.08-.077 25.73-.077 25.73-7.548.08c-6.031.064-7.63-.002-7.95-.326-.22-.224-3.708-6.3-7.75-13.505-4.042-7.205-7.45-13.1-7.572-13.1-.123 0-.259 6.042-.301 13.426l-.079 13.425-7.37.08c-4.053.044-7.462-.012-7.574-.125zm111.69-.229c0-.233 4.05-6.394 9-13.69 4.95-7.297 8.996-13.35 8.99-13.452-.004-.101-3.717-5.445-8.25-11.875-4.532-6.43-8.24-11.798-8.24-11.929 0-.131 4.218-.203 9.373-.16l9.374.08 3.603 6.45c1.981 3.547 3.736 6.45 3.9 6.45.164 0 1.906-2.937 3.872-6.525l3.575-6.525h8.801c5.352 0 8.801.111 8.801.284 0 .157-3.53 5.456-7.844 11.775-4.315 6.32-7.901 11.7-7.97 11.954-.068.255.333 1.133.892 1.95.559.818 4.643 6.887 9.077 13.486l8.062 12-9.43.08c-5.188.043-9.581.022-9.765-.049-.183-.07-2.197-3.384-4.474-7.364s-4.282-7.189-4.454-7.131c-.172.057-2.184 3.265-4.472 7.128s-4.32 7.126-4.516 7.25c-.196.125-4.305.23-9.13.232-7.367.004-8.776-.064-8.776-.42zM161.85 29.048c-.081-.216-.181-6.13-.223-13.142l-.08-12.75-4.768-.15c-5.202-.164-5.573-.3-5.17-1.904l.2-.796h22.824l-.093 1.275-.092 1.275-4.8.15-4.8.15-.15 13.05-.15 13.05-1.278.092c-.847.062-1.327-.04-1.424-.3zm15.526.011c-.29-.287-.38-3.54-.38-14.088 0-7.543.082-13.929.182-14.19.128-.333.575-.474 1.5-.474h1.318V6.27c0 4.69.088 6.036.411 6.305.291.242 2.739.318 8.325.262l7.914-.08.165-6.15c.091-3.383.193-6.184.225-6.225.033-.041.653-.075 1.378-.075.925 0 1.372.141 1.5.474.1.261.182 6.647.182 14.19 0 10.268-.09 13.806-.36 14.075-.465.465-2.115.465-2.58 0-.26-.258-.36-2.214-.36-6.905v-6.544l-8.325.08-8.325.08-.15 6.75-.15 6.75-1.052.088c-.578.049-1.22-.08-1.425-.285zm28.326.147c-.11-.11-.2-6.658-.2-14.55V.306h20.134l-.093 1.275-.092 1.275-8.4.15-8.4.15-.083 4.777c-.063 3.621.01 4.836.3 5.02.21.134 3.792.246 7.958.248l7.575.005v2.4l-7.575.004c-4.166.003-7.747.114-7.957.247-.291.185-.363 1.49-.3 5.47l.082 5.229 8.225.08c5.456.053 8.36.191 8.625.411.498.413.52 1.519.04 1.999-.265.265-2.902.36-10 .36-5.302 0-9.73-.09-9.84-.2z" fill="#8ea4b5"/><path d="M180.86 129.22c-1.096-.384-2.561-1.092-3.256-1.573-5.53-3.833-7.382-13.187-4.053-20.476 3.624-7.935 15.307-9.694 21.424-3.226 2.64 2.792 3.932 6.426 3.923 11.042-.011 6.45-2.828 11.5-7.683 13.772-1.794.839-2.39.96-5.194 1.054-2.72.09-3.45.007-5.161-.592zm8.148-2.232c1.962-.634 4.55-2.928 5.566-4.934 2.843-5.609 1.797-13.494-2.276-17.156-2.497-2.245-6.105-3.07-9.557-2.185-4.637 1.188-7.544 5.116-8.035 10.857-.556 6.49 2.604 12.091 7.697 13.646 1.379.42 4.982.297 6.606-.228zm21.274 2.498c-3.216-.867-5.648-3.147-6.755-6.333-.446-1.284-.543-3.006-.653-11.64-.099-7.702-.042-10.24.237-10.575.452-.546 1.906-.58 2.34-.054.212.254.354 3.936.413 10.725l.09 10.337.816 1.662c1.335 2.72 3.517 3.889 7.246 3.886 3.491-.003 5.607-.9 7.002-2.97 1.279-1.898 1.38-2.781 1.562-13.524.163-9.71.207-10.353.722-10.452.302-.058.884-.021 1.293.081l.743.187-.104 10.715c-.122 12.537-.136 12.614-2.931 15.412-1.4 1.401-2.05 1.806-3.729 2.325-2.325.718-6.072.816-8.292.218zm138.81.076c-4.428-1.04-8.01-4.882-9.326-10.004-.592-2.305-.592-7.026 0-9.299 1.852-7.107 7.965-11.201 15.095-10.109 7.37 1.129 11.82 7.319 11.354 15.797-.472 8.614-5.717 14.016-13.515 13.92-1.343-.017-2.967-.153-3.608-.304zm8.397-3.044c4.304-2.214 6.702-7.858 5.862-13.795-.392-2.768-1.55-5.53-3.025-7.21-.534-.608-1.864-1.545-2.955-2.082-1.741-.857-2.283-.978-4.4-.979-3.086-.002-5.1.686-6.991 2.385-2.82 2.536-4.133 6.23-3.892 10.958.29 5.724 2.778 9.643 7.12 11.217 2.126.77 6.307.52 8.281-.495zM0 90.617V51.882l12.825.078 12.825.078.077 25.69.077 25.69.673.18c.37.1 11.98.183 25.798.185l25.125.004v25.2H39.174c-21.024 0-38.439.082-38.7.182-.432.18-.475-3.34-.475-38.54zm90.738 38.298c-.08-.208-.11-5.98-.066-12.827l.078-12.45 6.3-.15 6.3-.15v-77.1h-77.4l-.08 6.225-.082 6.225H0v-38.7h129.3l-.076 64.575-.075 64.575-19.134.077c-15.152.061-19.164-.001-19.278-.3zm61.206.016c-.083-.216-.115-6.67-.072-14.343l.078-13.95 8.664-.08c9.294-.085 9.594-.04 9.426 1.404l-.09.776-7.65.15-7.65.15-.082 5.025c-.046 2.764-.046 5.052 0 5.085s3.12.135 6.832.225l6.75.165.094.975c.051.536.051 1.002 0 1.035s-3.132.135-6.844.225l-6.75.165-.15 6.6-.15 6.6-1.128.093c-.725.06-1.18-.047-1.278-.3zm78.96.15c-.11-.11-.2-6.428-.2-14.04 0-10.364.09-13.93.36-14.2.198-.198.869-.36 1.49-.36 1.368 0 .872-.63 10.15 12.9 7.118 10.38 7.499 10.9 7.773 10.627.098-.097.245-5.397.327-11.777l.15-11.6.926-.09c.532-.052 1.075.09 1.278.334.261.315.332 4.023.274 14.34l-.078 13.916-1.527.089-1.527.089-8.065-11.717c-4.435-6.444-8.203-11.671-8.372-11.614-.202.067-.336 4.1-.387 11.703l-.079 11.6h-1.146c-.63 0-1.237-.09-1.347-.2zm28.437-.175c-.079-.206-.108-6.653-.065-14.325l.078-13.95 6.3.004c5.688.004 6.504.07 8.4.674 5.276 1.685 7.84 5.572 8.174 12.394.271 5.517-.743 9.134-3.337 11.907-1.529 1.635-3.124 2.528-5.728 3.206-2.332.608-13.595.681-13.822.09zm12.992-2.453c5.22-1.389 7.123-4.537 7.092-11.722-.02-4.794-.624-6.716-2.79-8.881-2.257-2.259-3.983-2.75-9.78-2.788l-4.8-.03-.08 11.548c-.043 6.352-.013 11.718.066 11.925.21.546 8.2.506 10.292-.051zm11.471 2.543c0-.478 10.764-27.06 11.273-27.84.335-.512.728-.675 1.627-.675.9 0 1.292.163 1.626.675.48.74 10.975 27.378 10.975 27.86 0 .168-.618.258-1.417.206l-1.416-.091-1.591-4.05c-.875-2.227-1.816-4.219-2.091-4.425-.36-.27-2.148-.375-6.406-.375-5.078 0-5.963.068-6.31.486-.221.267-1.089 2.258-1.928 4.425l-1.526 3.939-1.408.091c-.848.055-1.408-.034-1.408-.226zm17.525-10.997c.261-.1.475-.315.475-.477 0-.346-4.42-12.128-4.858-12.948-.164-.307-.411-.442-.55-.3-.139.141-1.393 3.16-2.788 6.707-1.799 4.575-2.448 6.559-2.233 6.825.218.27 1.582.375 4.891.375 2.524 0 4.802-.082 5.063-.182zm15.022 10.924c-.08-.216-.18-6.13-.222-13.142l-.075-12.75-4.8-.15-4.8-.15v-2.1l10.65-.084c5.857-.046 10.962-.008 11.343.086.573.14.677.336.6 1.133l-.093.965-4.8.15-4.8.15-.15 13.05-.15 13.05-1.278.092c-.848.062-1.327-.04-1.425-.3zm15.825-13.95l.078-14.342.926-.09c.531-.052 1.075.09 1.278.334.261.315.332 4.023.274 14.34l-.078 13.916-1.278.092-1.277.093.077-14.342zm38.542 14.122c-.117-.118-.214-6.522-.214-14.232 0-15.51-.154-14.382 1.96-14.382 1.22 0 .444-.997 9.579 12.3 3.91 5.692 7.369 10.616 7.685 10.942.568.584.576.436.576-10.965 0-8.589.093-11.649.36-11.917.486-.486 1.887-.456 2.306.05.245.294.318 4.3.262 14.324l-.078 13.916h-3.223l-7.988-11.618c-4.394-6.39-8.156-11.62-8.36-11.625-.288-.006-.39 2.615-.45 11.618l-.079 11.625-1.06.09c-.584.049-1.158-.007-1.275-.125zm-65.15-38.829c-10.058-.919-16.032-5.311-18.354-13.496-.5-1.767-.546-3.437-.546-20.374v-18.45l7.718-.08 7.718-.08.158.68c.086.374.19 8.105.232 17.18l.074 16.5.855 1.74c1.035 2.108 2.39 3.097 4.875 3.558 2.649.49 4.92-.06 6.587-1.595 2.398-2.21 2.345-1.768 2.524-20.953l.16-16.95h15.6v18c0 16.35-.05 18.213-.546 20.326-2.013 8.58-8.068 13.063-18.944 14.026-3.675.325-4.233.323-8.11-.031zm-153.68-26.744l.08-25.577 7.63-.08c5.903-.062 7.683.006 7.87.3.133.209.243 8.784.246 19.055.002 10.27.038 18.705.08 18.74.04.037 5.137.138 11.324.226l11.25.159v12.6l-19.277.077-19.277.077.077-25.577zm48.967 25.203c-.08-.209-.11-11.72-.067-25.58l.077-25.2h15.6v51l-7.732.08c-6.024.062-7.765-.004-7.878-.3zm27.66.17c-.25-.25-.267-49.975-.018-50.625.16-.416 1.156-.475 8.094-.475h7.91l.516.787c.283.432 3.564 6.388 7.291 13.236 3.727 6.847 6.907 12.433 7.067 12.414.18-.022.348-5.038.44-13.161l.15-13.125h14.7v51h-15.529L251.6 75.52c-4.145-7.384-7.67-13.38-7.836-13.325-.192.064-.328 4.903-.378 13.5l-.078 13.4h-7.297c-4.013 0-7.387-.09-7.497-.2zm112.07-.346c.08-.306 4.029-6.266 8.775-13.245 4.747-6.98 8.693-12.93 8.77-13.224.091-.352-2.637-4.48-7.99-12.09-4.47-6.355-8.128-11.7-8.128-11.875 0-.22 2.813-.32 8.964-.32 7.947 0 9.01.055 9.375.492.226.272 1.964 3.275 3.861 6.675s3.585 6.17 3.75 6.155c.165-.015 1.93-2.985 3.92-6.6l3.621-6.572 8.641-.08c8.26-.076 8.634-.055 8.497.472-.08.303-3.315 5.199-7.19 10.88-3.875 5.68-7.416 10.893-7.87 11.584l-.823 1.256 9.027 13.367c4.965 7.352 9.028 13.438 9.028 13.523 0 .085-4.287.12-9.525.076l-9.525-.079-4.126-7.2c-2.27-3.96-4.277-7.2-4.463-7.2-.185 0-2.256 3.24-4.602 7.2l-4.265 7.2-8.934.08c-8.566.076-8.927.056-8.788-.476zm-178.67-59.654c-.11-.11-.2-5.968-.2-13.018 0-11.412-.052-12.838-.474-13-.261-.1-2.489-.182-4.95-.182h-4.476V.587l11.325.079 11.325.079v1.8l-4.736.15c-3.767.119-4.795.242-5.02.6-.167.264-.286 5.685-.29 13.125l-.004 12.675h-1.15c-.633 0-1.24-.09-1.35-.2zm15.4-14.05V.56l1.275.092 1.275.092.15 6 .15 6h16.8l.082-6.075.08-6.075h2.688v28.5h-2.688l-.081-6.825-.08-6.825h-16.8l-.15 6.75-.15 6.75-1.276.092-1.275.093V14.846zm28.337 13.875c-.079-.207-.108-6.585-.065-14.175l.078-13.8h19.8v1.8l-8.336.15c-6.97.125-8.383.223-8.62.6-.342.54-.385 8.992-.05 9.52.174.274 2.25.39 8.02.45l7.786.08v2.1l-7.785.08c-5.77.06-7.847.176-8.02.45-.13.203-.238 2.554-.24 5.223-.004 4.017.076 4.935.466 5.325.406.406 1.62.472 8.7.472h8.229v2.1h-9.91c-7.65 0-9.942-.086-10.052-.375z" fill="#708ca2"/><path d="M182.4 129.7c-1.783-.36-5.036-2.224-6.371-3.65-2.726-2.915-3.973-6.474-3.961-11.304.016-6.501 2.716-11.182 7.831-13.58 1.615-.756 2.042-.82 5.501-.82 3.57 0 3.843.045 5.7.927 2.517 1.197 3.735 2.248 5.157 4.447 2.286 3.537 3.113 8.326 2.209 12.787-1.01 4.981-3.323 8.177-7.308 10.094-2.059.99-2.542 1.1-5.14 1.172-1.577.044-3.206.011-3.618-.072zm7.572-3.01c2.811-1.262 4.698-3.684 5.786-7.428.725-2.494.498-7.75-.435-10.053-1.966-4.854-5.5-7.136-10.606-6.848-2.965.167-4.763.93-6.655 2.82-3.857 3.858-4.67 11.91-1.746 17.284 2.549 4.682 8.52 6.53 13.656 4.225zm20.478 2.804c-3.583-1.192-5.782-3.284-6.751-6.423-.549-1.775-.599-2.794-.599-12.106v-10.168h2.4v9.2c0 9.726.222 12.136 1.297 14.052 1.57 2.798 5.25 4.191 9.222 3.491 2.771-.488 4.418-1.614 5.526-3.781l.905-1.768.15-10.522.15-10.522 1.019-.097c.612-.059 1.118.061 1.27.3.36.57.316 17.728-.052 19.998-.61 3.754-2.499 6.357-5.642 7.77-1.364.614-2.28.784-4.695.87-1.967.07-3.413-.031-4.2-.293zm138.2-.176c-2.408-.895-3.964-1.906-5.555-3.606-4.208-4.498-5.014-12.844-1.826-18.91 1.338-2.547 3.125-4.25 5.778-5.506 1.918-.909 2.166-.95 5.761-.95 3.65 0 3.814.029 5.784.999 4.885 2.405 7.546 7.258 7.513 13.702-.033 6.545-2.82 11.422-7.843 13.72-1.722.789-2.442.937-5.01 1.034-2.449.092-3.295.003-4.602-.483zm8.864-2.741c3.905-1.9 6.087-6.123 6.087-11.782 0-5.272-2.275-9.537-6.15-11.53-1.961-1.008-5.586-1.262-8-.56-3.255.946-5.727 3.628-6.899 7.486-.522 1.718-.603 2.622-.498 5.558.113 3.157.219 3.707 1.06 5.506 2.161 4.618 5.663 6.725 10.587 6.369 1.34-.097 2.533-.424 3.813-1.047zM.004 90.636V51.9l12.825.078 12.825.078.076 25.69.077 25.69.673.18c.37.1 11.98.183 25.798.185l25.125.004v25.2H39.178c-21.024 0-38.439.082-38.7.182-.431.18-.475-3.34-.475-38.54zm90.738 38.298c-.08-.208-.11-5.98-.067-12.827l.079-12.45 6.3-.15 6.3-.15v-77.4h-77.4l-.15 6.3-.15 6.3-12.825.078-12.825.078V.007h129.3l-.076 64.575-.076 64.575-19.134.077c-15.152.061-19.164-.001-19.278-.3zm61.199-.002c-.08-.207-.109-6.585-.066-14.175l.078-13.8 8.945-.08 8.944-.08-.094.98-.095.98-7.582.08-7.582.08.082 5.17.082 5.17 6.657.08c6.16.075 6.67.122 6.832.633.096.304.091.771-.012 1.039-.163.425-1.027.497-6.832.567l-6.645.08-.08 6.427c-.053 4.124-.2 6.57-.412 6.825-.419.505-2.03.522-2.22.024zm79.277.189c-.118-.118-.215-6.537-.215-14.264v-14.05h2.872l8.06 11.7c4.432 6.435 8.24 11.7 8.46 11.7.327 0 .416-2.158.48-11.625l.078-11.625 1.128-.093 1.128-.094-.078 14.193-.078 14.193-1.215.09c-.877.064-1.346-.061-1.683-.45-.257-.297-3.477-4.927-7.155-10.29-7.686-11.206-8.907-12.9-9.303-12.9-.176 0-.317 4.542-.365 11.776l-.079 11.775-.91.089c-.501.049-1.008-.007-1.125-.125zm28.136-.156c-.086-.224-.122-6.618-.079-14.208l.079-13.8 5.7-.09c8.375-.133 11.05.576 13.885 3.677 2.432 2.661 3.647 7.301 3.218 12.288-.538 6.264-3.105 10.013-7.954 11.619-1.676.555-2.845.665-8.322.785-5.194.113-6.4.063-6.528-.27zm13.5-2.475c4.659-1.438 6.75-4.948 6.75-11.332 0-3.384-.396-5.55-1.36-7.451-.905-1.785-2.008-2.788-4.19-3.808-1.75-.818-1.941-.841-6.9-.842h-5.1l-.079 11.699c-.043 6.434-.006 11.888.082 12.118.222.578 8.65.279 10.797-.384zm11.254 2.292c.002-.289 2.487-6.668 5.522-14.175l5.517-13.65h3.128l5.36 13.65c2.948 7.507 5.362 13.886 5.365 14.175.003.4-.244.525-1.044.525-1.282 0-1.288-.01-3.252-4.95l-1.55-3.9-6.484-.08c-4.962-.063-6.552.008-6.776.3-.161.209-.94 2.067-1.733 4.13-.792 2.062-1.573 3.919-1.735 4.125-.163.206-.752.375-1.309.375-.767 0-1.012-.128-1.01-.525zm17.826-10.843c.154-.25-4.164-12.1-4.934-13.54-.208-.387-.462-.546-.62-.387-.494.493-5.4 13.4-5.246 13.8.117.305 1.341.395 5.393.395 2.882 0 5.316-.12 5.407-.268zm14.718 11.012c-.081-.217-.182-6.132-.223-13.144l-.075-12.75-4.95-.15-4.95-.15v-1.8l11.154-.079c11.033-.078 11.156-.072 11.35.54.407 1.285-.208 1.469-5.21 1.556l-4.694.083-.15 13.05-.15 13.05-.977.094c-.605.058-1.033-.056-1.125-.3zm15.597 0c-.083-.217-.116-6.604-.073-14.194l.078-13.8 1.128-.093 1.128-.094-.078 14.193-.078 14.193-.977.094c-.604.059-1.035-.056-1.128-.3zm38.629.009c-.287-.287-.374-3.485-.374-13.79 0-7.378.082-13.628.182-13.89.127-.33.573-.474 1.475-.474 1.595 0 .899-.866 10.321 12.84 4.004 5.825 7.436 10.538 7.626 10.475.251-.083.367-3.29.424-11.715l.079-11.6h2.399l-.078 14.175-.078 14.175-1.27.092c-1.503.11-.524 1.339-10.812-13.573-3.75-5.434-6.985-9.934-7.19-9.998-.29-.092-.388 2.467-.45 11.68l-.078 11.8-.902.088c-.495.049-1.07-.08-1.275-.285zm-67.11-38.973c-5.527-.866-9.038-2.472-12.032-5.504-2.327-2.356-3.403-4.282-4.424-7.921-.626-2.232-.652-2.94-.75-20.285-.081-14.514-.025-18.02.29-18.22.489-.31 14.36-.33 14.847-.021.266.169.381 4.438.455 16.87.097 16.509.103 16.658.781 18.345 1.216 3.03 3.431 4.445 6.957 4.445 2.527 0 3.898-.501 5.272-1.927 2.203-2.288 2.228-2.524 2.228-21.054 0-12.196.09-16.284.36-16.555.573-.573 14.745-.506 15.225.071.272.327.329 4.692.235 18.075-.138 19.64-.14 19.653-2.245 24.094-1.307 2.758-4.155 5.71-6.898 7.15-1.03.541-3.19 1.328-4.8 1.749-2.498.653-3.715.78-8.326.865-2.97.056-6.199-.024-7.175-.177zm-151.77-1.085c-.12-.111-.21-11.493-.21-25.292 0-19.114.085-25.176.36-25.45.38-.38 13.816-.542 14.765-.178.425.163.475 2.105.479 18.825.002 10.254.11 18.81.24 19.014.18.282 2.911.39 11.32.45l11.085.079v12.6l-18.923.077c-10.408.043-19.014-.014-19.125-.125zm48.88-.277c-.1-.26-.182-11.64-.182-25.29 0-18.9.085-24.9.36-25.175.511-.511 14.668-.511 15.18 0 .274.274.36 6.275.36 25.175 0 13.65-.082 25.03-.182 25.29-.16.416-1.128.475-7.768.475s-7.609-.06-7.768-.475zm27.923.28c-.113-.113-.206-11.576-.206-25.473 0-22.764.047-25.286.475-25.45.68-.26 14.907-.217 15.32.048.191.12 3.586 6.155 7.546 13.41 3.96 7.254 7.348 13.239 7.53 13.3.236.079.33-3.609.33-13.055 0-9.84.09-13.256.36-13.525.258-.26 2.266-.36 7.14-.36s6.88.1 7.14.36c.274.274.36 6.274.36 25.175 0 13.649-.083 25.029-.183 25.29-.159.415-1.115.474-7.63.474h-7.447l-.573-.825c-.316-.454-3.52-6.09-7.121-12.525-7.335-13.107-7.834-13.95-8.247-13.95-.186 0-.322 4.989-.372 13.575l-.078 13.575-7.07.08c-3.888.045-7.161-.012-7.274-.125zm111.69-.073c0-.147 3.928-6.053 8.729-13.125 9.6-14.14 9.377-13.793 9.11-14.224-.103-.167-3.817-5.458-8.253-11.758-5.574-7.916-7.952-11.525-7.7-11.685.425-.27 16.74-.327 17.434-.06.259.1 2.108 3.137 4.11 6.75s3.812 6.57 4.024 6.57c.211 0 1.969-2.908 3.905-6.461s3.763-6.59 4.06-6.75c.66-.353 15.868-.384 16.42-.033.285.18-1.702 3.31-7.473 11.77-4.324 6.338-7.917 11.736-7.985 11.995-.114.434 17.123 26.399 17.677 26.628a.435.435 0 0 1 .242.375c0 .453-18.504.355-18.912-.1-.185-.207-2.116-3.479-4.293-7.272-2.176-3.794-4.158-6.936-4.404-6.983-.3-.058-1.79 2.196-4.564 6.906-2.265 3.846-4.282 7.158-4.483 7.358-.439.44-17.645.535-17.645.098zM162.2 28.914c-.118-.117-.217-5.895-.22-12.839-.001-6.943-.109-12.79-.237-12.992-.164-.258-1.651-.391-5.02-.45l-4.788-.083V.75l11.142-.078c10.13-.072 11.16-.034 11.332.417.105.273.112.744.016 1.046-.158.5-.625.558-5.032.633l-4.857.083-.15 13.05-.15 13.05-.91.089c-.502.049-1.008-.007-1.126-.125zm15.223-.189c-.08-.206-.109-6.585-.066-14.175l.078-13.8 1.019-.097c.612-.059 1.119.061 1.27.3.139.218.254 2.996.257 6.172l.005 5.775h17.088l.081-6.075.081-6.075h2.4v28.2h-2.4l-.15-6.75-.15-6.75-8.475-.08-8.475-.08v6.431c0 3.537-.082 6.644-.182 6.905-.22.575-2.167.657-2.38.1zm28.502.004c-.08-.208-.11-6.589-.067-14.179l.078-13.8h19.2v1.8l-8.4.15-8.4.15v10.2l7.767.15c6.974.135 7.802.204 8.099.675.24.383.24.668 0 1.05-.297.472-1.125.54-8.099.675l-7.767.15v11.1l8.55.15 8.55.15v1.8l-9.683.08c-7.585.062-9.714-.003-9.828-.3z" fill="#1899d5"/><path d="M182.4 129.7c-1.783-.36-5.036-2.224-6.371-3.65-2.726-2.915-3.973-6.474-3.961-11.304.016-6.501 2.716-11.182 7.831-13.58 1.615-.756 2.042-.82 5.501-.82 3.57 0 3.843.045 5.7.927 2.517 1.197 3.735 2.248 5.157 4.447 2.286 3.537 3.113 8.326 2.209 12.787-1.01 4.981-3.323 8.177-7.308 10.094-2.059.99-2.542 1.1-5.14 1.172-1.577.044-3.206.011-3.618-.072zm7.572-3.01c2.811-1.262 4.698-3.684 5.786-7.428.725-2.494.498-7.75-.435-10.053-1.966-4.854-5.5-7.136-10.606-6.848-2.965.167-4.763.93-6.655 2.82-3.857 3.858-4.67 11.91-1.746 17.284 2.549 4.682 8.52 6.53 13.656 4.225zm20.478 2.804c-3.583-1.192-5.782-3.284-6.751-6.423-.549-1.775-.599-2.794-.599-12.106v-10.168h2.4v9.2c0 9.726.222 12.136 1.297 14.052 1.57 2.798 5.25 4.191 9.222 3.491 2.771-.488 4.418-1.614 5.526-3.781l.905-1.768.15-10.522.15-10.522 1.019-.097c.612-.059 1.118.061 1.27.3.36.57.316 17.728-.052 19.998-.61 3.754-2.499 6.357-5.642 7.77-1.364.614-2.28.784-4.695.87-1.967.07-3.413-.031-4.2-.293zm138.2-.176c-2.408-.895-3.964-1.906-5.555-3.606-4.208-4.498-5.014-12.844-1.826-18.91 1.338-2.547 3.125-4.25 5.778-5.506 1.918-.909 2.166-.95 5.761-.95 3.65 0 3.814.029 5.784.999 4.885 2.405 7.546 7.258 7.513 13.702-.033 6.545-2.82 11.422-7.843 13.72-1.722.789-2.442.937-5.01 1.034-2.449.092-3.295.003-4.602-.483zm8.864-2.741c3.905-1.9 6.087-6.123 6.087-11.782 0-5.272-2.275-9.537-6.15-11.53-1.961-1.008-5.586-1.262-8-.56-3.255.946-5.727 3.628-6.899 7.486-.522 1.718-.603 2.622-.498 5.558.113 3.157.219 3.707 1.06 5.506 2.161 4.618 5.663 6.725 10.587 6.369 1.34-.097 2.533-.424 3.813-1.047zm-266.77 2.346c-.08-.207-.11-5.98-.067-12.827l.079-12.45 6.3-.15 6.3-.15v-77.4h-77.4l-.15 6.3-.15 6.3-12.827.088-12.825.078V.006h129.3l-.076 64.575-.076 64.575-19.134.078c-15.152.06-19.164-.001-19.278-.3zm61.199-.002c-.08-.206-.109-6.585-.066-14.175l.078-13.8 8.945-.08 8.944-.079-.094.98-.095.98-7.582.08-7.582.08.082 5.17.082 5.17 6.657.08c6.16.075 6.67.122 6.832.633.096.303.091.77-.012 1.038-.163.425-1.027.497-6.832.568l-6.645.08-.08 6.427c-.053 4.123-.2 6.57-.412 6.825-.419.504-2.03.521-2.22.023zm79.277.19c-.118-.118-.215-6.537-.215-14.264v-14.05h2.872l8.06 11.7c4.432 6.435 8.24 11.7 8.46 11.7.327 0 .416-2.158.48-11.625l.078-11.625 1.128-.094 1.128-.093-.078 14.193-.078 14.193-1.215.09c-.877.064-1.346-.062-1.683-.45-.257-.297-3.477-4.928-7.155-10.29-7.686-11.207-8.907-12.9-9.303-12.9-.176 0-.317 4.541-.365 11.775l-.079 11.775-.91.09c-.501.049-1.008-.008-1.125-.126zm28.136-.156c-.086-.225-.122-6.619-.079-14.208l.079-13.8 5.7-.09c8.375-.133 11.05.575 13.885 3.676 2.432 2.662 3.647 7.302 3.219 12.288-.54 6.264-3.106 10.013-7.955 11.62-1.676.554-2.845.665-8.322.784-5.194.113-6.4.064-6.528-.27zm13.5-2.475c4.659-1.439 6.75-4.949 6.75-11.332 0-3.384-.396-5.55-1.36-7.452-.905-1.785-2.008-2.787-4.19-3.807-1.75-.818-1.941-.841-6.9-.842h-5.1l-.079 11.698c-.043 6.435-.006 11.888.082 12.118.222.579 8.65.28 10.797-.383zm11.254 2.291c.002-.288 2.487-6.667 5.522-14.175l5.517-13.65h3.128l5.36 13.65c2.948 7.508 5.362 13.886 5.365 14.175.003.401-.244.525-1.044.525-1.282 0-1.288-.009-3.252-4.95l-1.55-3.9-6.484-.08c-4.962-.062-6.552.009-6.776.3-.161.21-.94 2.068-1.733 4.13-.792 2.063-1.573 3.92-1.735 4.125-.163.207-.752.375-1.309.375-.767 0-1.012-.127-1.01-.525zm17.826-10.843c.154-.25-4.164-12.1-4.934-13.539-.208-.387-.462-.547-.62-.388-.494.493-5.4 13.401-5.246 13.801.117.305 1.341.394 5.393.394 2.882 0 5.316-.12 5.407-.267zm14.718 11.012c-.081-.216-.182-6.131-.223-13.144l-.075-12.75-4.95-.15-4.95-.15v-1.8l11.154-.078c11.033-.078 11.156-.072 11.35.54.407 1.284-.208 1.468-5.21 1.556l-4.694.083-.15 13.05-.15 13.05-.977.094c-.605.058-1.033-.056-1.125-.3zm15.597 0c-.083-.216-.116-6.604-.073-14.194l.078-13.8 1.128-.093 1.128-.093-.078 14.193-.078 14.193-.977.094c-.604.058-1.035-.056-1.128-.3zm38.629.01c-.287-.287-.374-3.485-.374-13.79 0-7.378.082-13.629.182-13.89.127-.33.573-.474 1.475-.474 1.595 0 .899-.866 10.321 12.84 4.004 5.825 7.436 10.538 7.626 10.475.251-.084.367-3.29.424-11.715l.079-11.6h2.399l-.078 14.175-.078 14.175-1.27.092c-1.503.109-.524 1.338-10.812-13.573-3.75-5.435-6.985-9.934-7.19-9.999-.29-.092-.388 2.467-.45 11.681l-.078 11.8-.902.088c-.495.048-1.07-.08-1.275-.285zm-67.11-38.964c-5.527-.865-9.038-2.471-12.032-5.503-2.327-2.357-3.403-4.283-4.424-7.922-.626-2.231-.652-2.939-.75-20.285-.081-14.514-.025-18.02.29-18.22.489-.31 14.36-.33 14.847-.02.266.169.381 4.437.455 16.87.097 16.508.103 16.657.781 18.344 1.216 3.03 3.431 4.445 6.957 4.445 2.527 0 3.898-.5 5.272-1.927 2.203-2.288 2.228-2.524 2.228-21.054 0-12.196.09-16.284.36-16.555.573-.572 14.745-.506 15.225.072.272.327.329 4.692.235 18.075-.138 19.64-.14 19.653-2.245 24.094-1.307 2.757-4.155 5.71-6.898 7.15-1.03.54-3.19 1.328-4.8 1.748-2.498.653-3.715.78-8.326.866-2.97.055-6.199-.024-7.175-.177zM152 88.902c-.12-.111-.21-11.493-.21-25.292 0-19.114.085-25.176.36-25.45.38-.381 13.816-.543 14.765-.178.425.163.475 2.104.479 18.825.002 10.254.11 18.81.24 19.014.18.281 2.911.39 11.32.45l11.085.078v12.6l-18.923.078c-10.408.042-19.014-.014-19.125-.125zm48.88-.277c-.1-.261-.182-11.641-.182-25.29 0-18.901.085-24.901.36-25.175.511-.512 14.668-.512 15.18 0 .274.274.36 6.274.36 25.175 0 13.649-.082 25.029-.182 25.29-.16.415-1.128.474-7.768.474s-7.609-.059-7.768-.474zm27.923.28c-.113-.113-.206-11.576-.206-25.473 0-22.764.047-25.286.475-25.45.68-.261 14.907-.217 15.32.047.191.121 3.586 6.156 7.546 13.41 3.96 7.255 7.348 13.24 7.53 13.3.236.08.33-3.608.33-13.055 0-9.84.09-13.256.36-13.525.258-.259 2.266-.36 7.14-.36s6.88.101 7.14.36c.274.274.36 6.275.36 25.175 0 13.65-.083 25.03-.183 25.29-.159.415-1.115.475-7.63.475h-7.447l-.573-.825c-.316-.454-3.52-6.09-7.121-12.525-7.335-13.107-7.834-13.95-8.247-13.95-.186 0-.322 4.988-.372 13.575l-.078 13.575-7.07.08c-3.888.044-7.161-.012-7.274-.125zm111.69-.073c0-.147 3.928-6.053 8.729-13.125 9.6-14.141 9.377-13.793 9.11-14.224-.103-.167-3.817-5.458-8.253-11.758-5.574-7.917-7.952-11.525-7.7-11.685.425-.27 16.74-.327 17.434-.06.259.099 2.108 3.136 4.11 6.75s3.812 6.57 4.024 6.57c.211 0 1.969-2.908 3.905-6.461s3.763-6.591 4.06-6.75c.66-.353 15.868-.384 16.42-.034.285.181-1.702 3.311-7.473 11.77-4.324 6.338-7.917 11.736-7.985 11.995-.114.435 17.123 26.4 17.677 26.628a.435.435 0 0 1 .242.375c0 .454-18.504.356-18.912-.1-.185-.206-2.116-3.478-4.293-7.272-2.176-3.793-4.158-6.935-4.404-6.983-.3-.058-1.79 2.197-4.564 6.907-2.265 3.846-4.282 7.157-4.483 7.358-.439.439-17.645.534-17.645.098zm-178.29-59.918c-.118-.118-.217-5.895-.22-12.839-.001-6.944-.109-12.79-.237-12.992-.164-.258-1.651-.392-5.02-.45l-4.788-.083V.75L163.08.671c10.13-.071 11.16-.033 11.332.418.105.272.112.743.016 1.046-.158.5-.625.558-5.032.633l-4.857.082-.15 13.05-.15 13.05-.91.09c-.502.048-1.008-.008-1.126-.126zm15.223-.19c-.08-.205-.109-6.584-.066-14.174l.078-13.8 1.019-.097c.612-.059 1.119.06 1.27.3.139.218.254 2.996.257 6.172l.005 5.775h17.088l.081-6.075.081-6.075h2.4v28.2h-2.4l-.15-6.75-.15-6.75-8.475-.08-8.475-.08v6.43c0 3.537-.082 6.644-.182 6.905-.22.576-2.167.657-2.38.1zm28.502.005c-.08-.209-.11-6.59-.067-14.179l.078-13.8h19.2v1.8l-8.4.15-8.4.15v10.2l7.767.15c6.974.135 7.802.204 8.099.675.24.383.24.667 0 1.05-.297.471-1.125.54-8.099.675l-7.767.15v11.1l8.55.15 8.55.15v1.8l-9.683.08c-7.585.061-9.714-.004-9.828-.3z" fill="#4e718c"/><path d="M182.85 129.72c-2.29-.575-5.184-2.242-6.728-3.875-5.297-5.6-5.242-16.564.11-21.912 2.859-2.858 7.247-4.176 11.476-3.449 6.652 1.144 10.42 5.86 10.8 13.516.185 3.736-.326 6.363-1.762 9.057-1.17 2.196-3.932 4.8-5.854 5.522-.793.297-1.523.658-1.622.802-.203.294-5.488.573-6.42.339zm7.415-2.915c7.034-3.442 8.455-15.887 2.498-21.88-.667-.67-1.955-1.567-2.863-1.994-2.246-1.055-6.588-1.115-8.765-.12-4.475 2.044-7.183 7.354-6.747 13.228.32 4.312 1.917 7.718 4.562 9.731 2.107 1.603 3.658 2.038 6.917 1.94 2.248-.069 3.007-.225 4.398-.906zm20.86 2.899c-.454-.08-.825-.248-.825-.376s-.552-.398-1.227-.6c-1.82-.546-4.23-3.045-5.09-5.278-.674-1.751-.693-2.08-.713-12.15l-.02-10.35h2.1l.154 10.65c.168 11.57.18 11.646 1.973 13.777 1.258 1.495 2.944 2.203 5.63 2.363 4.624.276 7.401-1.125 8.925-4.503.698-1.549.72-1.835.867-11.936l.151-10.35h1.8v21.3l-.777 1.65c-1.132 2.402-2.115 3.41-4.552 4.66-1.96 1.005-2.434 1.122-4.87 1.2-1.486.048-3.072.022-3.526-.057zm138.75-.002c-.536-.077-.975-.245-.975-.373 0-.129-.515-.388-1.145-.577-1.767-.53-4.375-2.567-5.528-4.318-1.769-2.689-2.394-4.77-2.549-8.484-.227-5.47 1.127-9.47 4.171-12.317 4.82-4.509 13.391-4.421 17.996.184 4.309 4.308 5.429 12.785 2.484 18.803-1.016 2.076-3.334 4.582-4.97 5.372-.72.348-1.781.865-2.359 1.15-1.065.525-5.135.845-7.125.56zm7.567-2.797c3.02-1.463 5.207-4.5 6.026-8.366 1.421-6.706-1.303-13.402-6.39-15.705-1.128-.51-2.026-.65-4.278-.662-2.472-.014-3.075.09-4.544.775-4.145 1.936-6.56 6.394-6.552 12.091.009 6.17 2.858 10.802 7.593 12.347 2.019.659 6.319.405 8.145-.48zM90.902 116.4v-12.6h6.113c4.782 0 6.187-.089 6.452-.407.247-.299.317-10.71.261-38.925l-.076-38.518h-78l-.08 6.225-.082 6.225H13.221c-6.748 0-12.483.082-12.744.182-.434.165-.479-1.65-.479-19.2V0H64.68c58.858 0 64.668.042 64.498.474-.1.261-.18 29.286-.18 64.5V129h-38.1v-12.6zm61.272-1.425l.078-14.025h17.4v1.5l-7.65.163c-4.207.09-7.684.19-7.725.225-.041.034-.075 2.33-.075 5.102 0 3.52.109 5.148.36 5.4.258.258 2.218.36 6.92.36h6.56l-.095.825-.095.825-6.75.15-6.75.15-.08 6.675-.081 6.675h-2.095l.078-14.025zm78.965 13.65c-.079-.207-.108-6.518-.065-14.025l.078-13.65 1.05-.089c.577-.048 1.267.087 1.533.3.266.214 4.033 5.558 8.372 11.876 5.505 8.017 8.033 11.46 8.367 11.396.424-.081.495-1.398.628-11.788l.15-11.696h1.8v27.9h-2.7l-8.1-11.774c-5.267-7.655-8.258-11.746-8.55-11.696-.39.068-.46 1.662-.529 11.85l-.078 11.77h-.906c-.498 0-.97-.168-1.05-.375zm28.435-13.621l.078-14.054 4.65-.089c2.558-.049 5.726.053 7.04.227 7.51.993 11.07 6.096 10.575 15.16-.356 6.516-2.505 9.983-7.371 11.898-1.527.601-2.351.679-8.372.79l-6.678.121.078-14.054zm14.101 11.466c1.927-.711 4.2-2.813 4.966-4.594.928-2.158 1.364-5.227 1.18-8.31-.37-6.19-2.802-9.437-7.877-10.512-2.602-.552-9.46-.616-9.982-.094-.268.268-.36 3.369-.36 12.1 0 6.457.101 11.842.225 11.967s2.52.169 5.325.097c3.863-.098 5.445-.257 6.523-.654zm10.513 2.139c.89-2.321 10.846-26.887 11.056-27.284.193-.364.641-.525 1.458-.525.816 0 1.265.161 1.458.525.204.383 8.787 22.153 10.704 27.15.168.438.029.525-.844.525-.575 0-1.17-.169-1.323-.375-.152-.207-.929-2.063-1.726-4.125-.797-2.063-1.66-3.92-1.916-4.125-.568-.455-12.242-.53-12.953-.083-.248.155-1.193 2.144-2.1 4.42l-1.65 4.138-1.165.095c-.916.075-1.13.003-1-.337zm17.44-10.291c.261-.1.475-.394.475-.652 0-.707-4.785-13.357-5.222-13.806-.312-.32-.434-.32-.681 0-.166.215-1.474 3.41-2.907 7.1-2.03 5.23-2.529 6.803-2.26 7.126.266.321 1.439.414 5.232.414 2.689 0 5.102-.082 5.363-.182zm15.023 10.326c-.081-.217-.181-6.132-.223-13.144l-.075-12.75-4.894-.083-4.894-.082.094-.818.094-.817h21.9l.094.817.094.818-4.894.082-4.894.083-.15 13.05-.15 13.05-.977.094c-.605.058-1.033-.056-1.125-.3zm15.824-13.65l.078-14.044h1.8v27.9l-.978.094-.978.094.078-14.044zm38.4-.02l.078-14.024 1.113-.093c.821-.068 1.249.066 1.629.51.283.33 3.984 5.637 8.224 11.792 4.24 6.154 7.927 11.234 8.193 11.287.438.087.492-1.035.563-11.7l.078-11.796h2.1v27.9l-1.253.09c-1.514.111-.842.95-10.292-12.84-3.675-5.363-6.92-10.003-7.213-10.311-.292-.309-.68-.47-.862-.357-.231.142-.33 3.708-.33 11.886V129h-2.106l.078-14.025zm-64.92-24.995c-8.917-.826-14.499-4.045-17.176-9.907-1.832-4.01-1.798-3.587-1.904-23.618l-.098-18.38 7.588.08 7.588.08.15 16.95.15 16.95.713 1.577c.915 2.024 2.306 3.231 4.442 3.852 3.165.92 6.713.037 8.321-2.072 1.83-2.398 1.802-2.114 1.97-20.457l.154-16.8 7.592-.08 7.592-.08-.113 18.23c-.124 20.045-.115 19.935-2.044 23.978-1.048 2.196-3.564 5.046-5.618 6.364-4.106 2.635-12.044 4.005-19.306 3.333zm-153.85-26.548V38.077l7.575.08 7.575.08.077 18.975c.043 10.436.11 19.005.15 19.04.04.037 5.136.138 11.323.226l11.25.159v12l-18.975.077-18.975.077V63.433zm48.973.078l.077-25.275h15l.077 25.275.076 25.275h-15.307l.077-25.275zm27.665 24.9c-.079-.206-.108-11.58-.065-25.275l.077-24.9h15.807l7.266 13.35c4.366 8.023 7.437 13.35 7.696 13.35.367 0 .442-1.998.509-13.43l.078-13.43 7.122.08 7.122.081.076 25.275.077 25.275-7.577-.006-7.576-.005-7.65-13.651c-5.327-9.507-7.787-13.625-8.1-13.565-.391.074-.46 1.874-.528 13.657l-.078 13.57h-7.057c-5.369 0-7.09-.089-7.2-.374zm112.06.2c0-.097 3.994-6.06 8.876-13.25 6.29-9.264 8.839-13.256 8.75-13.699-.069-.344-3.722-5.727-8.118-11.963-4.947-7.018-7.851-11.392-7.621-11.48.204-.078 4.202-.106 8.884-.062l8.512.08 3.698 6.6c2.436 4.348 3.863 6.6 4.182 6.6.321 0 1.638-2.112 3.907-6.266 1.883-3.446 3.577-6.45 3.764-6.675.272-.328 1.978-.41 8.553-.41 4.517 0 8.213.081 8.213.18s-3.588 5.442-7.974 11.872c-4.385 6.431-7.904 11.873-7.819 12.095.085.222 4.078 6.21 8.874 13.305 4.796 7.096 8.72 12.98 8.72 13.075 0 .096-4.094.174-9.098.174h-9.097l-4.178-7.272c-2.298-4-4.384-7.311-4.636-7.36-.316-.06-1.807 2.2-4.8 7.271l-4.342 7.358-8.625.001c-4.744.001-8.625-.077-8.625-.174zm-178.6-60.025c-.11-.11-.2-5.968-.2-13.018 0-11.41-.05-12.838-.47-13-.26-.1-2.488-.182-4.95-.182h-4.475v-1.5h22.2v1.5h-4.629c-3.808 0-4.712.084-5.1.472-.42.414-.48 2.028-.48 13.2v12.729h-.85c-.467 0-.94-.09-1.05-.2zm15.4-13.75V.885h2.088l.081 6.075.081 6.075 8.53.08c6.623.062 8.583-.005 8.77-.3.133-.209.243-2.978.246-6.155l.005-5.775h2.1v27.9h-2.1v-6.54c0-4.686-.102-6.642-.36-6.9-.262-.262-2.542-.36-8.376-.36-4.408 0-8.229.082-8.49.182-.413.159-.474 1.051-.474 6.9v6.718h-2.1v-13.95zM205.94 28.41c-.079-.206-.108-6.45-.065-13.875l.078-13.5h9.6c9.4 0 9.6.013 9.6.6 0 .582-.25.605-8.337.75-6.97.126-8.382.224-8.62.6-.466.738-.372 9.762.106 10.158.263.218 3.014.36 8.025.412l7.626.08v1.5l-7.626.08c-5.011.053-7.762.195-8.025.412-.304.253-.4 1.567-.4 5.524 0 4.32.08 5.27.472 5.663.406.406 1.62.471 8.7.471h8.229v1.5h-9.61c-7.41 0-9.642-.085-9.753-.375z" fill="#214d6f"/><path d="M182.7 129.6c-.601-.127-.793-.245-.45-.277.33-.03-.165-.3-1.1-.599-2.199-.703-3.492-1.518-4.995-3.149-2.654-2.88-3.797-6.579-3.575-11.575.285-6.406 3.012-10.66 8.142-12.7 2.258-.899 7.17-.863 9.554.07 4.933 1.927 7.665 6.268 7.953 12.636.165 3.66-.186 5.716-1.42 8.324-1.533 3.243-3.892 5.35-7.16 6.395-.935.299-1.43.566-1.1.594.33.028.06.162-.6.299-1.431.296-3.797.288-5.25-.017zm7.253-2.317c6.738-3.025 9.017-14.272 4.279-21.11-3.204-4.623-10.117-5.78-15.046-2.517-4.853 3.212-6.628 11.873-3.702 18.06 1.421 3.006 3.265 4.764 6.096 5.814 2.129.79 6.34.665 8.373-.247zm21.397 2.386c-.795-.124-.83-.169-.3-.383.546-.222.533-.246-.15-.272-2.061-.076-5.004-2.251-6.177-4.566-1.1-2.17-1.357-5.159-1.26-14.648l.087-8.55h1.5l.15 10.35c.146 10.084.168 10.39.86 11.922 1.489 3.293 4.36 4.757 8.865 4.52 4.555-.239 7.176-2.534 7.946-6.956.19-1.084.329-5.73.329-10.936v-9.05h1.528l-.089 10.605-.09 10.606-1.052 2.07c-1.168 2.296-2.819 3.667-5.358 4.449-.793.244-1.132.451-.79.483.33.03.06.167-.6.303-1.267.263-3.892.288-5.4.053zm138.6 0c-.795-.124-.83-.169-.3-.383.545-.222.532-.246-.15-.268-2.12-.068-6.112-2.967-7.607-5.525-2.548-4.36-2.718-11.715-.377-16.323 2.428-4.78 7.724-7.327 13.405-6.448 5.347.828 9.003 4.426 10.365 10.203.634 2.689.408 7.301-.484 9.877-1.315 3.796-4.213 6.783-7.652 7.887-.99.317-1.53.6-1.2.629.33.028.06.163-.6.3-1.268.261-3.893.287-5.4.051zm6.38-2.053c4.824-1.558 7.722-6.413 7.68-12.866-.043-6.511-3.195-11.265-8.348-12.59-5.28-1.358-10.216.811-12.615 5.545-2.718 5.364-1.97 12.98 1.662 16.92 2.291 2.486 4.452 3.421 7.98 3.454 1.208.012 2.795-.19 3.641-.464zM91.2 116.4v-12.3h5.98c5.034 0 6.052-.075 6.45-.472.423-.423.47-4.368.47-38.94 0-29.52-.083-38.552-.36-38.829-.522-.523-77.656-.523-78.18 0-.255.256-.36 2.08-.36 6.3v5.94H12.9c-8 0-12.3.105-12.3.3a.3.3 0 0 1-.3.3c-.196 0-.3-6.65-.3-19.35V0h64.65c42.9 0 64.65.101 64.65.3a.3.3 0 0 1-.3.3c-.198 0-.3 21.55-.3 64.05v64.05H91.2v-12.3zm61.2-1.5v-13.805l8.472.08c7.792.073 8.479.121 8.572.604.094.489-.416.525-7.361.525-5.404 0-7.562.1-7.822.36-.253.252-.36 1.915-.36 5.557v5.198l.77.292c.422.161 3.527.293 6.9.293 5.93 0 6.13.02 6.13.6 0 .582-.2.6-6.718.6-5.85 0-6.742.061-6.9.474-.1.261-.182 3.299-.182 6.75v6.276h-1.5v-13.805zm78.973.08l.078-13.726 1.05-.083 1.05-.083 8.1 11.758c4.455 6.467 8.33 11.9 8.61 12.073.281.173.619.206.75.075.132-.132.278-5.57.325-12.084l.085-11.845.665.094.665.095.078 13.725.078 13.725h-2.362l-8.148-11.85c-8.195-11.918-8.964-12.831-9.407-11.175-.1.371-.183 5.704-.185 11.85l-.004 11.175h-1.506l.078-13.725zm28.428-.05v-13.825l5.025.002c5.784.003 8.255.324 10.575 1.379 4.517 2.053 6.5 6.346 6.22 13.469-.263 6.693-2.21 9.938-7.156 11.927-1.444.58-2.304.66-8.14.761l-6.524.113V114.93zm13.625 11.849c4.737-1.71 6.591-4.996 6.613-11.724.016-4.978-.722-7.373-2.964-9.615-2.268-2.268-4.277-2.868-10.243-3.06-3.964-.127-4.58-.083-5.025.361-.458.458-.506 1.632-.506 12.275 0 9.01.088 11.86.375 12.153.596.611 9.825.305 11.75-.39zm11.248 1.27c.15-.382 2.595-6.432 5.433-13.445s5.226-12.919 5.308-13.125c.083-.208.656-.375 1.285-.375.628 0 1.204.168 1.287.375.083.206 2.244 5.708 4.803 12.225s4.937 12.567 5.284 13.444l.633 1.594-.945-.094c-.918-.091-.99-.21-2.51-4.144-1.177-3.044-1.744-4.145-2.284-4.432-.53-.283-2.337-.36-6.918-.3-3.41.045-6.283.165-6.384.266s-.91 2.058-1.8 4.35c-1.561 4.022-1.649 4.17-2.541 4.26-.857.087-.904.043-.651-.6zm17.052-9.434c.435-.117.672-.407.668-.82-.004-.353-1.186-3.746-2.628-7.54-2.157-5.68-2.722-6.9-3.194-6.9-.469 0-1.057 1.23-3.227 6.75-3.284 8.353-3.193 8.02-2.301 8.378.778.312 9.604.42 10.682.132zm15.075-2.75c0-9.587-.092-12.932-.36-13.2-.249-.25-1.78-.36-4.95-.36-4.39 0-4.59-.027-4.59-.6 0-.59.2-.6 10.8-.6s10.8.01 10.8.6c0 .573-.2.6-4.59.6-3.17 0-4.702.11-4.95.36-.27.268-.36 3.613-.36 13.2v12.84h-1.8v-12.84zm15.9-.982v-13.82l.675.095.675.096.078 13.725.078 13.725H332.7v-13.82zm38.4.021v-13.8h1.003c.58 0 1.197.221 1.463.525.253.289 3.94 5.588 8.196 11.775 4.255 6.188 7.883 11.35 8.062 11.47.18.121.46.178.626.125.19-.06.355-4.433.45-11.92l.15-11.825h1.5l.078 13.742.078 13.742-1.25-.092-1.25-.093-8.048-11.679c-4.426-6.423-8.214-11.782-8.418-11.908-1.066-.659-1.14.129-1.14 12.073v11.663h-1.5v-13.8zm-65.85-25.237c-3.191-.302-7.464-1.463-9.571-2.6-2.648-1.43-5.143-4.04-6.475-6.776-2.05-4.214-2.104-4.845-2.104-24.474V38.404h14.676l.086 16.875.087 16.875.711 1.572c.83 1.838 2.48 3.44 4.125 4.006.64.22 2.042.4 3.114.4 3.648 0 6.015-1.491 7.262-4.577.685-1.693.689-1.785.777-18.427l.09-16.725h14.701l-.108 18.225c-.119 20.09-.066 19.49-2.095 23.775-1.091 2.304-4.101 5.445-6.383 6.66-2.356 1.255-6.375 2.283-10.255 2.624-3.957.347-4.782.345-8.638-.02zM152.4 63.444v-25.05h14.7v37.814l.77.293c.447.17 5.218.292 11.4.292h10.63v11.7h-37.5v-25.05zm48.9 0v-25.05H216v50.1h-14.7v-25.05zm27.6 0v-25.05h7.725l7.725.001 7.35 13.51c6.202 11.401 7.443 13.496 7.95 13.424.588-.084.601-.344.678-13.51l.078-13.426H274.2v50.11l-7.383-.08-7.382-.08-7.493-13.35c-4.121-7.342-7.692-13.552-7.936-13.8-.393-.4-.491-.385-.874.132-.36.486-.432 2.78-.432 13.875v13.293h-13.8v-25.05zM341.32 88.12c.161-.206 4.173-6.091 8.916-13.077 6.237-9.188 8.588-12.882 8.498-13.35-.068-.356-3.659-5.665-7.98-11.797-4.32-6.132-7.855-11.229-7.855-11.325 0-.096 3.827-.175 8.503-.175h8.502l3.69 6.625c2.028 3.644 3.881 6.7 4.117 6.79.236.09.585.008.776-.183.191-.191 1.915-3.213 3.83-6.715l3.482-6.367 8.176-.08 8.176-.08-2.223 3.23c-5.542 8.052-13.077 19.195-13.413 19.835-.413.788-1.065-.253 11.351 18.124l6.033 8.93-8.925-.08-8.925-.08-4.11-7.2c-2.901-5.067-4.295-7.227-4.705-7.293-.474-.075-1.403 1.285-4.964 7.275l-4.38 7.369h-8.426c-6.697 0-8.365-.077-8.132-.375zM162.3 15.587V2.68l-.77-.292c-.423-.161-2.65-.293-4.95-.293-3.516 0-4.18-.072-4.18-.45 0-.392 1.4-.45 10.8-.45 9.101 0 10.8.067 10.8.424 0 .343-.911.443-4.776.525-2.627.055-4.888.213-5.025.35-.137.138-.289 6.044-.337 13.126l-.087 12.875H162.3V15.588zm15.6-.742V1.195h1.5v5.79c0 4.103.104 5.894.36 6.15.513.513 17.066.513 17.58 0 .255-.256.36-2.047.36-6.15v-5.79h1.5v27.3h-1.5v-6.429c0-5.444-.073-6.5-.472-6.9-.406-.406-1.628-.471-8.79-.471-6.07 0-8.416.097-8.678.36-.258.258-.36 2.213-.36 6.9v6.54h-1.5v-13.65zm28.2 0V1.195h9.45c8.03 0 9.45.065 9.45.432 0 .364-1.323.447-8.376.525-4.606.051-8.488.205-8.625.342-.383.383-.497 9.517-.13 10.476l.316.825h7.807c7.608 0 7.808.015 7.808.6s-.2.6-7.808.6h-7.807l-.315.825c-.368.963-.254 10.993.13 11.376.136.137 4.018.291 8.624.342 7.053.078 8.376.16 8.376.525 0 .367-1.42.432-9.45.432h-9.45v-13.65z" fill="#093a60"/></svg>