<svg xmlns="http://www.w3.org/2000/svg" width="200" height="103.82" viewBox="-0.7 -0.123 200 103.81615"><g fill="#007ac2"><path d="M134.589 39.723c-1.252-.938-3.223-1.502-5.135-1.472-2.076.029-4.061.695-5.442 1.798V26.938h-6.486v42.757h6.486V47.377c0-1.556 1.304-3.27 3.721-3.373 1.077-.048 2.571.421 3.326 1.553.805 1.197.758 2.79.758 4.53l-.008 19.608h6.486V49.842c-.003-5.856-.765-7.94-3.706-10.12M81.837 54.405c0 4.182-.132 5.362-.165 5.724-.227 2.322-1.215 4.78-3.918 4.78-2.7 0-3.794-2.626-3.912-4.89-.007-.014-.168-1.432-.168-5.614 0-4.193.165-5.937.168-5.951.033-2.362 1.257-4.725 3.912-4.725s3.882 2.363 3.915 4.7c.003.04.168 1.783.168 5.976m6.274-5.047c-.92-9.14-6.109-11.104-10.368-11.104-6.036 0-9.709 3.842-10.372 11.09-.058.578-.146 1.644-.18 5.061-.021 2.487.136 4.523.17 5.04.41 6.767 4.299 10.939 10.382 10.939 6.087 0 9.961-4.241 10.386-10.94.03-.476.169-2.552.169-5.039 0-1.128-.107-4.19-.187-5.047zm61.006 1.194c.048-1.413.048-1.714.077-2.124.183-2.56 1.326-4.68 3.952-4.699 3.11-.022 3.842 3.025 3.952 4.714.054.886.124 1.48.113 2.11h-8.094m8.01 8.569s.01.476-.062 1.055c-.184 1.509-.777 4.731-3.934 4.731-2.688 0-3.724-2.442-3.904-4.878-.033-.692-.16-1.465-.154-4.09h14.463s.025-2.154-.015-3.447c-.022-.509-.047-1.355-.168-3.138-.198-2.743-1.223-5.74-2.795-7.677-1.816-2.24-4.383-3.424-7.427-3.424-5.841 0-9.492 3.805-10.21 11.093-.066.652-.172 1.564-.172 5.058 0 2.487.139 4.567.164 5.04.392 6.657 4.33 10.939 10.218 10.939 5.875 0 9.812-4.172 10.222-11.262h-6.226z"/><path d="M46.68 5.114h105.4l40.304 47.16-40.293 46.51H46.671L6.222 52.117 46.68 5.114M154.63-.123H44.134L-.7 51.951l44.838 51.741h110.487l44.673-51.572L154.63-.123z"/><path d="M47.983 32.742h3.069c3.336 0 5.145 1.77 5.226 4.93.007.23.033.498.033.989 0 .575-.007.78-.03 1-.186 1.878-1.01 5.152-4.918 5.152h-3.38v-12.07m15.36 34.304l-.667-10.496c-.29-4.695-1.512-7.464-3.94-8.881 1.754-1.055 4.024-3.666 3.999-9.115-.03-8.303-5.182-11.214-11.247-11.28h-9.91v42.42h6.401l.004-19.406h3.563c2.062 0 4.384 1.801 4.736 6.866l.666 9.933c.055 1.406.323 2.61.323 2.61h6.405c-.004 0-.278-1.171-.333-2.65zm43.713-8.218c-.026.469-.059.89-.08 1.19-.184 2.37-1.015 4.89-3.912 4.89-2.703 0-3.769-2.733-3.966-4.743-.118-1.223-.088-2.168-.114-5.761-.03-4.193.106-5.27.165-5.951.23-2.652 1.256-4.706 3.915-4.725 2.732-.018 3.882 2.363 3.911 4.7 0 .025.059.589.1 1.83h6.416c-.022-.428-.04-.783-.055-.992-.73-8.867-6.127-11.013-10.387-11.013-6.035 0-9.712 3.842-10.375 11.09-.059.578-.146 1.644-.176 5.061-.03 2.487.128 4.523.165 5.04.414 6.767 4.3 10.924 10.386 10.939 6.303.022 9.782-3.824 10.387-10.94.018-.26.055-.44.036-.615h-6.416"/></g></svg>