<?xml version="1.0" encoding="UTF-8"?>
<svg id="svg2" width="800" height="800" version="1.1" viewBox="231 183 256 372" xml:space="preserve" xmlns="http://www.w3.org/2000/svg">
   <defs id="defs6"><clipPath id="clipPath26"><path id="path24" d="m0 600h600v-600h-600z"/></clipPath></defs><g id="g10" transform="matrix(1.3333 0 0 -1.3333 0 800)"><g id="g12" transform="translate(210.06 205.74)"><path id="path14" d="m0 0 12.17 3.219 5.076-5.556v-10.667l-5.79-2.115z" fill="#fff000"/></g><g id="g16" transform="translate(276.9 208.96)"><path id="path18" d="m0 0 0.284-9.012 35.139-2.348v11.54z" fill="#fff000"/></g><g id="g20"><g id="g22" clip-path="url(#clipPath26)"><g id="g28" transform="translate(362.42 341.84)"><path id="path30" d="m0 0c0-19.612-15.899-35.511-35.511-35.511-19.613 0-35.512 15.899-35.512 35.511s15.899 35.511 35.512 35.511c19.612 0 35.511-15.899 35.511-35.511" fill="#40210f"/></g><g id="g32" transform="translate(359.93 354.92)"><path id="path34" d="m0 0-12.863-21.473-20.158-27.118" fill="none" stroke="#804f21" stroke-miterlimit="10" stroke-width="1.42"/></g><g id="g36" transform="translate(351.5 368.48)"><path id="path38" d="m0 0-14.371-24.622-26.218-31.747" fill="none" stroke="#804f21" stroke-miterlimit="10" stroke-width="1.42"/></g><g id="g40" transform="translate(335.55 376.29)"><path id="path42" d="m0 0-15.834-24.385-20.441-30.284" fill="none" stroke="#804f21" stroke-miterlimit="10" stroke-width="1.42"/></g><g id="g44" transform="translate(317.41 375.09)"><path id="path46" d="m0 0-12.459-17.979-13.556-21.947" fill="none" stroke="#804f21" stroke-miterlimit="10" stroke-width="1.42"/></g><g id="g48" transform="translate(362.42 341.84)"><path id="path50" d="m0 0c0-19.612-15.899-35.511-35.511-35.511-19.613 0-35.512 15.899-35.512 35.511s15.899 35.511 35.512 35.511c19.612 0 35.511-15.899 35.511-35.511z" fill="none" stroke="#804f21" stroke-miterlimit="10" stroke-width="4.259"/></g><g id="g52" transform="translate(311.6 353.65)"><path id="path54" d="m0 0 10.037-12.98 17.91-9.928-3.865-4.187-16.631 9.267-11.88 14.536z" fill="#b4b4b5"/></g><g id="g56" transform="translate(330.73 335.63)"><path id="path58" d="m0 0-3.82-4.186-8.444 4.218 4.896 4.053z" fill="#888"/></g><g id="g60" transform="translate(210.64 331.68)"><path id="path62" d="m0 0v10.164l10.82 9.729 4.054-9.729-5.18-9.766z" fill="#437b49"/></g><g id="g64" transform="translate(222.11 327.96)"><path id="path66" d="m0 0-22.389 18.361-10.139 27.471 7.886 4.506 14.082-21.837 9.913-4.892 5.633-13.519z" fill="#c5ba53"/></g><g id="g68" transform="translate(194.28 376.48)"><path id="path70" d="m0 0 14.369-23.745 11.784-6.81 1.673-9.593-8.257-2.967-14.131 12.958-10.14 27.47z" fill="#aaa147"/></g><g id="g72" transform="translate(207.49 348.96)"><path id="path74" d="m0 0c0-1.673-1.357-3.03-3.03-3.03s-3.03 1.357-3.03 3.03 1.357 3.03 3.03 3.03 3.03-1.357 3.03-3.03" fill="#c5ba53"/></g><g id="g76" transform="translate(273.17 344.43)"><path id="path78" d="m0 0 23.94-7.199 13.406 0.142 4.845-4.002-16.494-11.913-20.627 1.127z" fill="#c5ba53"/></g><g id="g80" transform="translate(310.14 337.36)"><path id="path82" d="m0 0 0.28 9.022 1.627-1.991 5.081 2.108-1.439 1.863h5.929l3.605-9.963-9.856-5.037z" fill="#f6b875"/></g><g id="g84" transform="translate(266.38 341.63)"><path id="path86" d="m0 0 16.08-4.384 14.984-3.876 14.265 2.793 3.651-2.793-16.494-11.912-19.812 1.126z" fill="#aaa147"/></g><g id="g88" transform="translate(300.34 326.65)"><path id="path90" d="m0 0c0-1.673-1.357-3.03-3.03-3.03s-3.03 1.357-3.03 3.03 1.357 3.03 3.03 3.03 3.03-1.357 3.03-3.03" fill="#c5ba53"/></g><g id="g92" transform="translate(294.84 268.53)"><path id="path94" d="m0 0c0-2.859-2.318-5.177-5.178-5.177-2.859 0-5.177 2.318-5.177 5.177s2.318 5.178 5.177 5.178c2.86 0 5.178-2.319 5.178-5.178" fill="#c5ba53"/></g><g id="g96" transform="translate(222.23 271.91)"><path id="path98" d="m0 0c0-2.859-2.318-5.178-5.177-5.178-2.86 0-5.178 2.319-5.178 5.178s2.318 5.177 5.178 5.177c2.859 0 5.177-2.318 5.177-5.177" fill="#c5ba53"/></g><g id="g100" transform="translate(265.68 274.4)"><path id="path102" d="m0 0 25.924-32.794 7.045 1.48 0.627 11.557-14.239 34.754z" fill="#c5ba53"/></g><g id="g104" transform="translate(289.29 279.02)"><path id="path106" d="m0 0-5.303-2.362 9.646-18.588 4.439-0.485-0.624-9.232-14.287 3.939-19.101 24.366 24.062 5.213z" fill="#aaa147"/></g><g id="g108" transform="translate(221.9 294.26)"><path id="path110" d="m0 0-12.946-35.344 0.4-11.407 8.613-2.093 26.171 36.793z" fill="#c5ba53"/></g><g id="g112" transform="translate(218.08 283.83)"><path id="path114" d="m0 0 3.102-3.091-6.478-18.448-4.655-0.386-1.096-1.726 14.904-6.337 18.026 24.926-22.532 9.153z" fill="#aaa147"/></g><g id="g116" transform="translate(280.68 253.64)"><path id="path118" d="m0 0c4.48 0.655 19.324 4.427 19.324 4.427l4.715-21.528-12.477 0.404z" fill="#40210f"/></g><g id="g120" transform="translate(226.03 390.75)"><path id="path122" d="m0 0s-5.667-14.011-3.374-23.583c0.826-3.448 2.534-9.452 4.305-12.524 1.451-2.518 14.932-13.891 14.932-13.891l23.781-3.367 8.156 9.67 14.948 47.749-33.322 20.768z" fill="#f6b875"/></g><g id="g124" transform="translate(237.37 348.62)"><path id="path126" d="m 0,0 28.717,-8.549 c 0,0 2.994,1.659 10.516,6.372 C 44.457,1.098 50.849,9.014 54.6,13.909 62.661,24.428 60.064,38.882 57.789,47.25 53.488,63.066 35.31,69.92 25.298,71.393 14.072,73.045 0.855,65.451 -4.582,59.532 -8.996,54.726 -14.756,42.262 -15.361,35.765 -17.086,17.24 0,0 0,0" fill="#40210f"/></g><g id="g128" transform="translate(225.3 387.88)"><path id="path130" d="m0 0c-0.281 0.578-1.921 0.868-2.457 0.499-2.612-1.801-4.032-3.596-2.32-10.36 0.263-1.035 2.099-3.646 2.099-3.646s4.133 10.508 2.678 13.507" fill="#f6b875"/></g><g id="g132" transform="translate(189.75 398.58)"><path id="path134" d="m0 0 30.369 60.608 16.446 3.136 1.39-16.715-41.296-52.336z" fill="#dbdcdc"/></g><g id="g136" transform="translate(188.87 397.72)"><path id="path138" d="m0 0-11.239-18.901 5.971-3.331 13.059 17.785z" fill="#d59d25"/></g><g id="g140" transform="translate(236.56 462.32)"><path id="path142" d="m0 0-8.997-11.359 10.388-5.356z" fill="#eeeeef"/></g><g id="g144" transform="translate(220.12 459.19)"><path id="path146" d="m0 0 7.449-8.223-34.637-53.871-2.593 2.659z" fill="#eeeeef"/></g><g id="g148" transform="translate(180.86 408.92)"><path id="path150" d="m0 0 0.739-9.541 19.05-11.72 8.872 3.485-9.764 6.056-1.906-0.54-5.536 3.477-0.722 2.126z" fill="#f7b52c"/></g><g id="g152" transform="translate(221.46 351.57)"><path id="path154" d="m0 0 11.423-1.745 21.526-9.555 18.763 4.153 7.821-2.581 3.631-24.82-4.586-13.65 15.579-18.809-28.249-10.164-37.442 4.507-20.976 11.968 15.437 16.898 1.127 13.847-14.874 10.058 8.567 7.501z" fill="#58995d"/></g><g id="g156" transform="translate(197.47 378.3)"><path id="path158" d="m0 0-7.886-4.506-11.952 10.73 4.066 7.858 4.528 0.887 0.691-2.925 5.904-2.305z" fill="#f6b875"/></g><g id="g160" transform="translate(232.88 349.83)"><path id="path162" d="m0 0-7.271-23.177-0.198-21.265-6.066-17.465-10.398 2.955 20.976-11.968 37.442-4.506 28.249 10.163-6.842 8.261-51.332 6.009z" fill="#437b49"/></g><g id="g164" transform="translate(224.94 314.53)"><path id="path166" d="m0 0 59.048-13.519-2.816-6.759-56.782 13.519z" fill="#f7b52c"/></g><g id="g168" transform="translate(273.37 344.43)"><path id="path170" d="M 0,0 8.746,-2.69 9.79,-16.183 c 0,0 -8.328,2.063 -9.384,1.748 C -0.65,-14.751 0,0 0,0" fill="#437b49"/></g><g id="g172" transform="translate(224.39 307.78)"><path id="path174" d="m0 0-1.692-1.852 7.748-1.528v1.938z" fill="#437b49"/></g><g id="g176" transform="translate(227.43 313.95)"><path id="path178" d="m0 0-0.782-6.739 3.8-0.878 0.874 6.654z" fill="#d59d25"/></g><g id="g180" transform="translate(209 262.29)"><path id="path182" d="m0 0 18.303-6.759-11.763-15.614-12.124 0.405z" fill="#40210f"/></g><g id="g184" transform="translate(225.52 321.62)"><path id="path186" d="m0 0-14.874 10.058 8.567 7.5 1.227 6.747 10.883-1.092 3.467-20.005z" fill="#437b49"/></g><g id="g188" transform="translate(232.88 349.83)"><path id="path190" d="m0 0-0.89-31.235-3.757-31.127 36.316-7.292 46.358 18.971-21.855 24.167-15.685 21.113-15.86 0.74z" fill="#a50319"/></g><g id="g192" transform="translate(229.68 268.53)"><path id="path194" d="m0 0c0-1.673-1.357-3.03-3.03-3.03s-3.03 1.357-3.03 3.03 1.357 3.03 3.03 3.03 3.03-1.357 3.03-3.03" fill="#c5ba53"/></g><g id="g196" transform="translate(284.85 265.5)"><path id="path198" d="m0 0c0-1.673-1.357-3.03-3.03-3.03s-3.03 1.357-3.03 3.03 1.357 3.03 3.03 3.03 3.03-1.357 3.03-3.03" fill="#c5ba53"/></g><g id="g200" transform="translate(282.12 341.74)"><path id="path202" d="m0 0 0.25-3.236-6.795 2.963-2.201 2.963z" fill="#58995d"/></g><g id="g204" transform="translate(232.92 349.83)"><path id="path206" d="m0 0 24.627-4.663 15.86-0.74 4.402-5.925s3.397-10.232-20.684-6.687c0 0-20.218 3.293-24.492 9.054z" fill="#940012"/></g><g id="g208" transform="translate(194.28 376.48)"><path id="path210" d="m0 0-6.985 8.747-9.669-0.704 11.952-10.73z" fill="#ecb170"/></g><g id="g212" transform="translate(311.71 336.16)"><path id="path214" d="m0 0 7.263 3.907 6.243-1.662-9.855-5.037z" fill="#ecb170"/></g><g id="g216" transform="translate(180.86 408.92)"><path id="path218" d="m0 0 4.475-8.119 12.764-7.793 7.993 0.262 3.429-2.126-8.829-4.093-19.05 11.72z" fill="#d59d25"/></g><g id="g220" transform="translate(255.44 405.09)"><path id="path222" d="m0 0s-15.608-0.634-21.395-22.672c0 0-4.064-7.757-6.481-11.548 0 0-1.465-7.157 1.99-12.127 0 0 4.194-8.467 8.398-11.161 0 0 29.055-7.58 35.448-3.152 0 0 26.882 16.09 23.906 38.269 0 0-3.04 25.489-41.866 22.391" fill="#311301"/></g><g id="g224" transform="translate(278.34 430.96)"><path id="path226" d="m0 0c-0.014-1.673-1.383-3.018-3.056-3.004-1.673 0.015-3.018 1.383-3.004 3.056 0.015 1.674 1.383 3.019 3.056 3.004 1.674-0.014 3.018-1.383 3.004-3.056" fill="#f7b52c"/></g><g id="g228" transform="translate(292.9 420.13)"><path id="path230" d="m0 0c-0.014-1.673-1.383-3.018-3.056-3.004-1.673 0.015-3.018 1.383-3.004 3.056 0.015 1.674 1.383 3.019 3.056 3.004 1.674-0.014 3.018-1.383 3.004-3.056" fill="#f7b52c"/></g><g id="g232" transform="translate(259.51 431.12)"><path id="path234" d="m0 0c-0.014-1.673-1.383-3.018-3.056-3.004-1.673 0.015-3.018 1.383-3.004 3.056 0.015 1.674 1.383 3.019 3.056 3.004 1.674-0.014 3.018-1.383 3.004-3.056" fill="#f7b52c"/></g><g id="g236" transform="translate(254.17 414.62)"><path id="path238" d="m0 0 2.835 16.524 7.808-9.081 10.499 8.923 3.558-11.916 10.42-0.09-4.328-12.019-15.418 1.323z" fill="#f7b52c"/></g><g id="g240" transform="translate(241.89 340.76)"><path id="path242" d="m0 0 4.702-27.084 2.427-30.379 15.532-3.119 46.359 18.972-21.855 24.167-13.745 17.135z" fill="#940012"/></g><g id="g244" transform="translate(273.17 421.98)"><path id="path246" d="m0 0 1.092-6.409-4.225-2.885-2.155 4.041z" fill="#d59d25"/></g><g id="g248" transform="translate(259.15 424.54)"><path id="path250" d="m0 0 2.622-5.863-4.523-2.732z" fill="#d59d25"/></g><g id="g252" transform="translate(278.34 414.85)"><path id="path254" d="m0 0h6.697l-1.877-5.929z" fill="#d59d25"/></g><g id="g256" transform="translate(270.42 335.21)"><path id="path258" d="m0 0-18.84-4.028 0.836-16.793 11.52 0.396 0.837-8.161-10.877-1.998v-8.47l23.008 5.96-2.928 17.503h-11.713l-0.419 7.825 10.877 0.901z" fill="#f7b52c"/></g><g id="g260" transform="translate(178.07 193.31)"><path id="path262" d="m0 0-2.145 5.394h13.588v2.053h-12.445v12.774h21.091v-5.427h-12.345v-1.853h12.278v-12.941z" fill="#c30d23"/></g><g id="g264" transform="translate(199.3 214.67)"><path id="path266" d="m0 0h-23.365v-14.828h-1.681l1.238-3.112 1.242-3.12 0.569-1.433h21.93v14.794h0.067v5.426zm-2.273-2.273v-3.153h-12.345v-4.126h12.278v-10.668h-18.115l-1.241 3.12h13.05v4.327h-12.446v10.5z" fill="#fff000"/></g><g id="g268" transform="translate(212.38 193.31)"><path id="path270" d="m0 0-4.663 8.588h-0.402v-8.588h-8.68v27.869h8.68v-13.854h0.542l4.629 6.206h10.123l-6.756-9.007 6.328-11.214z" fill="#c30d23"/></g><g id="g272" transform="translate(208.46 222.32)"><path id="path274" d="m0 0h-10.953v-30.141h10.953v5.99l2.607-4.802 0.645-1.188h12.424l-1.913 3.389-5.007 8.872 4.946 6.595 2.727 3.636h-12.965l-3.464-4.644v10.02zm-2.273-2.273v-13.854h2.248l4.629 6.206h7.28l-5.837-7.783 5.736-10.165h-7.179l-4.663 8.588h-2.214v-8.588h-6.407v25.596z" fill="#fff000"/></g><g id="g276" transform="translate(222.03 186.37)"><path id="path278" d="m0 0-2.204 5.394h5.79l1.306 2.877-7.808 18.894h9.171l3.293-8.015 3.486 8.015h9.088l-11.825-27.165z" fill="#c30d23"/></g><g id="g280" transform="translate(245.88 214.67)"><path id="path282" d="m0 0h-11.566l-0.595-1.366-2.117-4.868-1.983 4.825-0.579 1.409h-11.63l1.298-3.14 6.97-16.87-0.799-1.762h-6.75l1.28-3.132 1.275-3.12 0.577-1.413h11.805l0.594 1.366 10.836 24.891zm-3.468-2.273-10.836-24.891h-8.789l-1.275 3.12h4.831l1.812 3.992-7.347 17.779h6.709l4.026-9.795 4.26 9.795z" fill="#fff000"/></g><g id="g284" transform="translate(262.75 193.35)"><path id="path286" d="m0 0v14.694h-1.552v-14.694h-8.479v14.694h-1.552v-14.694h-8.411v20.187h18.442v-0.366l0.274 0.366h9.757v-20.187z" fill="#c30d23"/></g><g id="g288" transform="translate(272.36 214.67)"><path id="path290" d="m0 0h-30.745v-22.459h30.745v2.272 17.914zm-2.273-2.273v-17.914h-6.206v14.694h-3.824v-14.694h-6.206v14.694h-3.824v-14.694h-6.14v17.914h6.14v-2.65l1.744 2.65h8.286v-2.65l1.979 2.65z" fill="#fff000"/></g><path id="path292" d="m272.84 221.18h8.68v-27.869h-8.68z" fill="#c30d23"/><g id="g294" transform="translate(282.66 222.32)"><path id="path296" d="m0 0h-10.953v-30.141h10.953v27.868zm-2.273-27.869h-6.407v17.947h6.407zm0 20.028h-6.407v5.569h6.407z" fill="#fff000"/></g><g id="g298" transform="translate(283.08 193.31)"><path id="path300" d="m0 0v4.985l9.359 9.675h-9.359v5.527h20.992v-5.177l-8.971-9.516h10.748l-2.975-5.494z" fill="#c30d23"/></g><g id="g302" transform="translate(305.2 214.64)"><path id="path304" d="m0 0h-23.264v-7.799h7.815l-7.176-7.419-0.639-0.661v-6.58h21.607l0.645 1.19 1.744 3.221 1.818 3.355h-10.024l6.855 7.272 0.619 0.657v4.491zm-2.273-2.273v-3.589l-10.466-11.104h11.473l-1.745-3.22h-17.981v3.388l10.903 11.271h-10.903v3.254z" fill="#fff000"/></g><path id="path306" d="m317.06 208.01h-3.597v-2.322h3.597zm-12.312-14.694v20.221h20.993v-13.377h-12.172l-0.106 0.157v-1.574h13.632l-2.31-5.427z" fill="#c30d23"/><path id="path308" d="m314.6 206.87h1.325v-0.051h-1.325zm12.278 7.799h-23.265v-22.492h21.925l0.588 1.382 1.342 3.154 1.346 3.162h-1.936v12.522zm-14.551-10.122h5.871v4.596h-5.871zm12.278 7.85v-11.104h-10.433l-1.845 2.717v-6.407h13.05l-1.342-3.154h-18.149v17.948z" fill="#fff000"/><g id="g310" transform="translate(326.38 193.31)"><path id="path312" d="m0 0v20.221h8.849v-0.366l0.272 0.366h8.08v-5.493h-8.352v-14.728z" fill="#c30d23"/></g><g id="g314" transform="translate(344.72 214.67)"><path id="path316" d="m0 0h-19.474v-22.493h11.121v14.727h8.353v5.493zm-2.273-2.273v-3.22h-8.353v-14.727h-6.575v17.947h6.575v-2.65l1.98 2.65z" fill="#fff000"/></g></g></g></g></svg>
