<?xml version="1.0" encoding="UTF-8"?>
<svg id="svg3355" width="406.98" height="142.79" version="1.1" viewBox="0 0 406.98 142.79" xml:space="preserve" xmlns="http://www.w3.org/2000/svg"><g id="g3363" transform="matrix(1.25 0 0 -1.25 0 142.79)"><g id="g3365" transform="scale(.1)"><path id="path3367" d="m1024 745.6v-177c0-18.77-9.55-21.707-18.76-24.649v-6.258h81.7v6.258c-9.2 2.942-18.78 5.879-18.78 24.649v177c0 10.671 3.32 13.242 17.3 13.242 38.27 0 57.04-0.735 70.65-22.071l4.78 2.93-15.44 45.262h-199.09l-15.449-45.262 4.785-2.93c16.563 20.965 29.442 22.071 71.017 22.071 13.98 0 17.29-2.571 17.29-13.242" fill="#100f0d"/><path id="path3369" d="m1117.1 720.21c12.13-3.313 18.4-6.25 18.4-24.648v-126.96c0-18.77-6.27-21.707-18.4-24.649v-6.258h154.18l17.66 44.161-4.79 3.308c-15.45-20.222-31.64-25.027-52.99-25.027h-39.74c-12.51 0-15.44 0.379-15.44 12.519v52.989h48.19c18.78 0 21.71-4.414 24.67-15.45h7.35v52.989h-7.35c-2.96-11.047-5.89-15.832-24.67-15.832h-48.19v44.523c0 9.199 2.93 12.149 15.44 12.149h33.86c21.71 0 33.12-5.52 49.67-23.184l4.79 3.309-15.45 42.324h-147.19v-6.258" fill="#100f0d"/><path id="path3371" d="m1562 693.73 30.22-82.434h-61.64l31.42 82.434zm-246.53 4.773 47.12-66.621-44.55-63.281c-13.61-19.129-21.71-21.707-34.22-24.649v-6.258h71.4v6.258c-13.63 2.578-19.53 7.735-10.31 22.082l31.19 48.77 32.85-47.297c12.12-17.293-0.76-22.09-11.79-23.555v-6.258h129.14v6.258c-12.87 2.199-18.76 6.621-12.14 24.289l8.42 22.078h77.32l8.1-22.078c5.15-14.355 3.31-22.09-11.79-24.289v-6.258h79.49v6.258c-9.2 2.942-17.66 10.676-21.71 21.34l-61.45 161.18h-41.95l-58.88-150.14c-6.28-15.597-11.98-22.929-18.21-27.16-4.87 3.066-9.34 7.754-15.27 16.125l-51.75 73.367 41.83 59.102c11.04 15.82 20.24 19.14 31.27 22.453v6.258h-67.34v-6.258c13.98-1.106 18.04-8.828 9.94-20.977l-29.19-43.254-26.37 39.583c-11.04 16.191-2.95 22.812 9.2 24.648v6.258h-89.41v-6.258c12.49-3.313 18.75-6.992 29.06-21.711" fill="#100f0d"/><path id="path3373" d="m1693 537.69c0 2.95 2.96 9.2 6.62 9.2 8.46-4.043 22.82-12.512 49.31-12.512 44.53 0 75.82 22.09 75.82 59.609 0 35.332-19.52 49.68-57.05 58.145l-34.23 7.734c-19.5 4.406-25.75 9.934-25.75 22.071 0 13.996 11.03 23.183 35.33 23.183 27.21 0 48.56-12.891 64.01-30.535l4.8 3.309-14 48.574h-8.83c0-4.043-1.82-8.465-5.5-8.465-8.12 4.422-20.62 11.406-41.96 11.406-38.27 0-68.07-19.875-68.07-55.937 0-27.598 16.55-44.883 52.61-52.981l32.4-7.371c21.71-4.785 29.41-12.5 29.41-26.125 0-18.758-15.07-28.699-39.73-28.699-34.6 0-56.67 18.027-74.69 39.004l-4.79-3.313 15.08-56.297h9.21" fill="#100f0d"/><path id="path3375" d="m1003.5 491.62c11.4-3.32 20.59-6.262 20.59-24.66v-185.47c0-18.769-9.19-21.699-20.59-24.648v-6.25h85.38v6.25c-11.42 2.949-20.63 5.879-20.63 24.648v185.47c0 18.398 9.21 21.34 20.63 24.66v6.25h-85.38v-6.25" fill="#100f0d"/><path id="path3377" d="m1237.8 433.11c11.05-3.32 17.31-6.25 17.31-24.648v-77.285h-1.11l-94.94 108.18h-55.56v-6.25c11.04-4.785 18.39-8.476 18.39-24.648v-126.97c0-17.656-6.26-21.699-18.39-24.648v-6.25h62.93v6.25c-9.95 2.949-19.51 6.992-19.51 24.648v109.67h1.12l125.46-143.14h6.62v160.45c0 18.398 9.21 21.328 16.57 24.648v6.25h-58.89v-6.25" fill="#100f0d"/><path id="path3379" d="m1402.3 365.02-34.2 7.735c-19.52 4.414-25.78 9.922-25.78 22.07 0 13.985 11.05 23.184 35.34 23.184 27.23 0 48.56-12.871 64.03-30.528l4.78 3.301-13.98 48.574h-8.84c0-4.043-1.83-8.457-5.52-8.457-8.09 4.414-20.59 11.407-41.94 11.407-38.27 0-68.08-19.883-68.08-55.938 0-27.598 16.56-44.883 52.62-52.988l32.38-7.363c21.72-4.786 29.44-12.5 29.44-26.133 0-18.75-15.08-28.692-39.74-28.692-34.59 0-56.67 18.028-74.7 39.004l-4.78-3.301 15.09-56.308h9.2c0 2.949 2.93 9.199 6.61 9.199 8.47-4.043 22.82-12.519 49.32-12.519 44.52 0 75.81 22.089 75.81 59.628 0 35.313-19.52 49.668-57.06 58.125" fill="#100f0d"/><path id="path3381" d="m1470.4 439.36-15.09-48.574 4.78-3.301c20.24 26.856 25.78 29.434 52.62 29.434 9.2 0 12.15-0.742 12.15-12.148v-123.28c0-18.769-5.51-21.699-20.6-24.648v-6.25h80.95v6.25c-14.71 2.949-20.62 5.879-20.62 24.648v123.28c0 11.406 2.96 12.148 12.16 12.148 26.85 0 33.85-2.578 54.08-29.434l4.8 3.301-15.08 48.574h-150.15" fill="#100f0d"/><path id="path3383" d="m1730.9 350.69h-32.4v50.039c0 12.128 2.95 15.449 12.15 15.449h20.98c22.8 0 36.04-8.828 36.04-30.918 0-23.164-15.06-34.57-36.77-34.57zm67.33-44.161c-11.41 18.399-23.19 26.485-36.81 29.805v1.094c32.39 5.156 50.78 22.09 50.78 49.687 0 36.797-29.43 52.246-76.91 52.246h-96.77v-6.25c12.15-3.32 18.4-6.25 18.4-24.648v-126.97c0-18.769-6.25-21.699-18.4-24.648v-6.25h79.12v6.25c-11.41 2.949-19.14 5.879-19.14 24.648v47.11h19.51c22.81 0 26.13-9.2 40.85-40.098 12.14-25.41 28.34-41.23 58.87-41.23 15.45 0 21.71 2.949 27.96 6.269v5.156c-24.65 3.672-32.76 23.907-47.46 47.832" fill="#100f0d"/><path id="path3385" d="m1965.7 433.11c9.55-2.207 18.76-6.25 18.76-24.648v-93.106c0-30.898-11.77-44.531-46.74-44.531-37.15 0-50.42 13.633-50.42 44.531v93.106c0 18.398 7.01 22.441 18.4 24.648v6.25h-77.25v-6.25c11.39-1.836 18.75-6.25 18.75-24.648v-96.055c0-50.41 43.8-65.136 85.01-65.136 45.99 0 78.76 15.449 78.76 68.085v93.106c0 18.398 5.51 22.07 16.92 24.648v6.25h-62.19v-6.25" fill="#100f0d"/><path id="path3387" d="m2161.4 316.82-54.47 122.54h-67.69v-6.25c12.14-3.32 18.39-6.25 18.39-24.648v-126.97c0-16.543-7-20.957-18.39-24.648v-6.25h59.97v6.25c-12.51 3.32-18.02 8.105-18.02 24.648v118.5l68.06-152.34h5.16l66.23 152.34v-118.5c0-18.769-8.1-22.07-17.29-24.648v-6.25h77.27v6.25c-12.14 2.949-18.4 5.879-18.4 24.648v126.97c0 18.398 6.26 21.328 18.4 24.648v6.25h-66.6l-52.62-122.54" fill="#100f0d"/><path id="path3389" d="m2409.5 273.03h-39.74c-12.52 0-15.46 0.371-15.46 12.52v52.969h48.2c18.78 0 21.71-4.395 24.65-15.43h7.36v52.969h-7.36c-2.94-11.036-5.87-15.821-24.65-15.821h-48.2v44.532c0 9.199 2.94 12.148 15.46 12.148h33.85c21.69 0 33.1-5.527 49.67-23.184l4.79 3.301-15.47 42.324h-147.19v-6.25c12.14-3.32 18.42-6.25 18.42-24.648v-126.97c0-18.769-6.28-21.699-18.42-24.648v-6.25h154.18l17.67 44.16-4.78 3.32c-15.46-20.254-31.64-25.039-52.98-25.039" fill="#100f0d"/><path id="path3391" d="m2606 433.11c11.03-3.32 17.28-6.25 17.28-24.648v-77.285h-1.11l-94.94 108.18h-55.57v-6.25c11.04-4.785 18.42-8.476 18.42-24.648v-126.97c0-17.656-6.26-21.699-18.42-24.648v-6.25h62.93v6.25c-9.94 2.949-19.51 6.992-19.51 24.648v109.67h1.09l125.49-143.14h6.64v160.45c0 18.398 9.2 21.328 16.55 24.648v6.25h-58.85v-6.25" fill="#100f0d"/><path id="path3393" d="m2682.1 439.36-15.11-48.574 4.78-3.301c20.24 26.856 25.78 29.434 52.63 29.434 9.2 0 12.14-0.742 12.14-12.148v-123.28c0-18.769-5.53-21.699-20.59-24.648v-6.25h80.96v6.25c-14.73 2.949-20.62 5.879-20.62 24.648v123.28c0 11.406 2.95 12.148 12.14 12.148 26.86 0 33.86-2.578 54.1-29.434l4.77 3.301-15.07 48.574h-150.13" fill="#100f0d"/><path id="path3395" d="m2951.5 365.02-34.21 7.735c-19.52 4.414-25.78 9.922-25.78 22.07 0 13.985 11.04 23.184 35.33 23.184 27.21 0 48.57-12.871 64.03-30.528l4.78 3.301-13.99 48.574h-8.82c0-4.043-1.86-8.457-5.54-8.457-8.09 4.414-20.59 11.407-41.95 11.407-38.26 0-68.05-19.883-68.05-55.938 0-27.598 16.55-44.883 52.61-52.988l32.39-7.363c21.69-4.786 29.44-12.5 29.44-26.133 0-18.75-15.08-28.692-39.75-28.692-34.6 0-56.68 18.028-74.69 39.004l-4.81-3.301 15.09-56.308h9.21c0 2.949 2.95 9.199 6.61 9.199 8.47-4.043 22.83-12.519 49.32-12.519 44.52 0 75.82 22.089 75.82 59.628 0 35.313-19.53 49.668-57.04 58.125" fill="#100f0d"/><path id="path3397" d="m686.52 862.72h-56.179l-10.754-54.227h56.18l10.753 54.227zm-63.828-323.41 48.743 245.73h-56.184l-48.723-245.73h56.164zm189.12 173.42v72.313h-115.96l-14.597-72.957h41.707l-13.379-67.051h-41.719l-14.465-72.676c-1.109-4.933-1.929-8.488-2.461-11.914-3.406-22.226 6.321-21.132 37.524-21.132l-14.27-71.477h-54.582c-51.597 0-93.57 0.547-82.664 53.293 1.707 8.242 3.789 16.23 5.274 24.101l19.503 99.805h-40.109l13.406 67.051h40.09l14.617 72.957h-37.527v109.96h-138.83v-223.74h-166.09c4.102-58.008 55.457-66.438 74.16-107.66 12.879-28.398 24.16-78.32 61.809-78.781 28.848-0.351 28.848 37.297 65.945 37.297 37.078 0 53.555-70.441 86.524-128.43 24.726-45.586 65.8-76.113 103.02-78.691 30.539-2.129 45.325 8.262 45.325 8.262-8.243 16.582-12.364 33.125-12.364 57.988 0 37.305 28.836 74.531 61.809 99.406 45.32 33.203 94.773 45.633 111.26 49.727v116.02s-32.95 17.645-32.95 66.328" fill="#ed1e24"/></g></g></svg>
