<?xml version="1.0" encoding="UTF-8"?>
<svg id="svg80" width="391.51" height="95.027" version="1.1" viewBox="0 0 391.51 95.027" xml:space="preserve" xmlns="http://www.w3.org/2000/svg"><g id="g88" transform="matrix(1.3333 0 0 -1.3333 0 95.027)"><g id="g90" transform="scale(.1)" fill="#e4183a"><path id="path92" d="m293.43 705.67h-176.05c-32.434 0-58.692-26.277-58.692-58.699h52.792v-170.51c1.098-13.02 20.059-27.254 59.282-29.754 32.121-2.023 62.32 10.016 69.945 28.016v172.08c6.715-0.625 44.371-10.371 51.449-46.875 0.465-2 0.832-4.11 1.024-6.414l8e-3 7e-3v-0.105c0.14-1.641 0.23-3.32 0.23-5.137v-176.05h-52.789v25.574c-8.481-11.832-23.598-23.067-36.641-25.574h-86.629c-35.546 1.824-57.8 25.593-58.699 58.699v176.05c-32.395-0.012-58.66-26.274-58.66-58.692v-176.05c0-32.414 26.273-58.704 58.68-58.704h176.06c32.422 0 58.692 26.29 58.692 58.704 32.418 0 58.683 26.269 58.683 58.691v176.06c0 32.422-26.265 58.699-58.687 58.699"/><path id="path94" d="m2760.6 645.4c-33.44-0.996-53.32 0-69.73-25.867-11.98 19.617-37.31 24.578-52.35 25.282v-232.52l53.54 0.055-0.58 167.19c0.88 18.797 31.79 33.484 68.64 31.141 38.89-2.461 57.72-16.575 58.78-29.485v-169.06h52.38v174.54c-4.44 40.965-20.65 61.425-110.68 58.718"/><path id="path96" d="m1164.5 645.06c3.8-7.59 96.13-193.33 102.8-204.26 6.65-10.938 24.46-26.414 40.93-28.77 7.6-1.113 31.68-2.187 40.3 0.266 2.01 1.375 71.25 181.46 72.67 185.73 1.41 4.297 3.79 25.653-19.5 46.094-31.34-78.398-59.37-154.86-78.35-199.97-32.3 63.633-61.46 126.32-87.39 169.55-15.69 26.133-38.96 31.36-43.72 31.36h-27.74"/><path id="path98" d="m896.39 644.09c-33.446-1.004-53.321 0-69.75-25.84-11.957 19.609-37.301 24.543-52.328 25.254v-232.53l53.531 0.046-0.563 167.21c0.848 18.809 31.762 33.489 68.633 31.145 38.875-2.473 57.691-16.562 58.77-29.504v-169.02h52.376v174.54c-4.42 40.945-20.65 61.394-110.67 58.699"/><path id="path100" d="m1885.1 644.09c-33.4-1.004-53.3 0-69.75-25.84-11.95 19.609-37.3 24.543-52.28 25.254v-232.53l53.47 0.046-0.54 167.21c0.88 18.809 31.77 33.489 68.63 31.145 38.88-2.473 57.69-16.562 58.79-29.504v-169.02h52.36v174.54c-4.41 40.945-20.66 61.394-110.68 58.699"/><path id="path102" d="m1124.1 669c0-5.149-4.15-9.289-9.3-9.289h-33.75c-5.14 0-9.31 4.14-9.31 9.289v33.75c0 5.164 4.17 9.336 9.31 9.336h33.75c5.15 0 9.3-4.172 9.3-9.336v-33.75"/><path id="path104" d="m2125.9 642.25v70.41h-19.59v-12.98c0-32.168-26.05-58.192-58.19-58.192h-9.69v-33.496h35.5v-197.14h51.97v196.49h57.99v34.91h-57.99"/><path id="path106" d="m2518 643.56h-116.37c-32.1 0-58.16-26.055-58.16-58.172v-116.38c0-32.137 26.06-58.164 58.16-58.164h116.37c32.15 0 58.19 26.027 58.19 58.164v116.38c0 32.117-26.04 58.172-58.19 58.172m5.83-162.9c0-19.297-15.66-34.922-34.91-34.922h-58.17c-19.3 0-34.95 15.625-34.95 34.922v93.098c0 19.273 15.65 34.89 34.95 34.89h58.17c19.25 0 34.91-15.617 34.91-34.89v-93.098"/><path id="path108" d="m1697.2 524.68h2.3v61.691c0 32.129-26.05 58.192-58.18 58.192h-116.35c-32.15 0-58.17-26.063-58.17-58.192v-116.33c0-32.148 20.45-61.984 111.03-60.312 73.18 1.328 118.51 5.949 121.54 56.14h-54.85c-3.69-6.719-18.46-23.367-66.23-21.472-51.26 2.109-59.66 19.285-59.66 38.574v41.707zm-143.68 86.281h58.17c19.3 0 34.92-15.613 34.92-34.922v-18.34h-127.98v18.34c0 19.309 15.62 34.922 34.89 34.922"/><path id="path110" d="m1123.7 411.23v175.28c0 30.488-22.75 55.547-51.96 58.711v-233.99h51.96"/><path id="path112" d="m657.07 645.22v-170.61c-2.972-17.793-32.871-31.308-68.332-29.062-38.89 2.472-57.687 16.543-58.757 29.504v169.02h-52.383v-174.55c4.418-40.929 20.648-61.418 110.68-58.683 32.786 0.976 52.559 0.16 68.789 24.613v-24.231h51.957v175.27c0 30.488-22.75 55.555-51.957 58.719"/><path id="path114" d="m2280.3 669c0-5.149-4.12-9.289-9.29-9.289h-33.74c-5.14 0-9.32 4.14-9.32 9.289v33.75c0 5.164 4.18 9.336 9.32 9.336h33.74c5.17 0 9.29-4.172 9.29-9.336v-33.75"/><path id="path116" d="m2279.9 411.23v175.28c0 30.488-22.75 55.547-51.99 58.711v-233.99h51.99"/><path id="path118" d="m2804.4 232.92c-20.21-0.598-32.21 0-42.14-15.609-7.23 11.835-22.54 14.824-31.62 15.253v-140.49l32.35 0.0313-0.35 101.03c0.51 11.355 19.19 20.222 41.47 18.816 23.49-1.492 34.85-10.012 35.51-17.832v-102.12h31.65v105.45c-2.69 24.758-12.48 37.102-66.87 35.473"/><path id="path120" d="m2522 198.82c-0.06 0.625-0.1 1.301-0.23 1.821-3.24 22.593-14.47 33.843-66.45 32.285-20.21-0.609-32.22 0-42.15-15.609-7.22 11.835-22.54 14.835-31.62 15.265v-232.58l32.36 0.027344-0.19 92.238c1-0.0781 1.95-0.3008 2.97-0.3008h70.31c19.42 0 35.16 15.73 35.16 35.133v25.273h0.03v45.078c-0.05 0.473-0.13 0.899-0.19 1.367m-31.46-4.695v-3.73l-0.01-8e-3v-56.242c0-11.661-9.46-21.086-21.1-21.086h-35.13c-10.15 0-18.61 7.14-20.64 16.679l-0.1 63.403c0.51 11.355 19.19 20.222 41.47 18.816 23.48-1.484 34.85-10.019 35.51-17.832"/><path id="path122" d="m1902.7 118.6c-0.06-0.625-0.1-1.297-0.25-1.817-3.22-22.598-14.45-33.848-66.44-32.293-20.22 0.6133-32.21 0-42.14 15.613-7.24-11.836-22.54-14.832-31.62-15.261v242.13c26.74-1.055 32.35-24.368 32.35-24.368l-0.19-77.449c0.99 0.078 1.96 0.305 2.98 0.305h70.31c19.42 0 35.16-15.734 35.16-35.148v-25.262h0.02v-45.082c-0.06-0.477-0.13-0.906-0.18-1.367m-31.48 4.699v59.98c0 11.66-9.45 21.082-21.09 21.082h-35.14c-10.15 0-18.6-7.136-20.64-16.679l-0.09-63.399c0.51-11.355 19.19-20.234 41.45-18.816 23.5 1.484 34.87 10.019 35.51 17.832"/><path id="path124" d="m2312.6 233.07h-70.31c-19.39 0-35.14-15.742-35.14-35.144v-70.317c0-19.421 15.75-35.156 35.14-35.156h70.31c19.41 0 35.15 15.735 35.15 35.156v70.317c0 19.402-15.74 35.144-35.15 35.144m3.51-98.418c0-11.66-9.45-21.101-21.08-21.101h-35.15c-11.66 0-21.11 9.441-21.11 21.101v56.239c0 11.652 9.45 21.086 21.11 21.086h35.15c11.63 0 21.08-9.434 21.08-21.086v-56.239"/><path id="path126" d="m2695.2 160.64h1.39v37.273c0 19.414-15.73 35.156-35.15 35.156h-70.3c-19.42 0-35.14-15.742-35.14-35.156v-70.281c0-19.426 12.36-37.453 67.09-36.438 44.21 0.8008 71.6 3.582 73.43 33.914h-33.14c-2.23-4.07-11.15-14.121-40.02-12.968-30.97 1.269-36.04 11.652-36.04 23.301v25.199zm-86.8 52.125h35.14c11.66 0 21.11-9.434 21.11-21.09v-11.086h-77.33v11.086c0 11.656 9.44 21.09 21.08 21.09"/><path id="path128" d="m2075.9 152.91h1.39v37.274c0 19.414-15.74 35.16-35.16 35.16h-70.29c-19.43 0-35.14-15.746-35.14-35.16v-70.282c0-19.425 12.34-37.453 67.07-36.445 44.22 0.8008 71.6 3.5938 73.44 33.926h-33.14c-2.23-4.074-11.16-14.121-40.02-12.969-30.96 1.27-36.04 11.649-36.04 23.301v25.195zm-86.82 52.129h35.16c11.66 0 21.09-9.434 21.09-21.094v-11.086h-77.32v11.086c0 11.66 9.43 21.094 21.07 21.094"/><path id="path130" d="m2936.2 127.06h-31.87v-35.282h31.87v35.282"/></g></g></svg>
