<?xml version="1.0" encoding="UTF-8" standalone="no"?>
<svg
   xmlns:dc="http://purl.org/dc/elements/1.1/"
   xmlns:cc="http://creativecommons.org/ns#"
   xmlns:rdf="http://www.w3.org/1999/02/22-rdf-syntax-ns#"
   xmlns:svg="http://www.w3.org/2000/svg"
   xmlns="http://www.w3.org/2000/svg"
   xmlns:xlink="http://www.w3.org/1999/xlink"
   xmlns:sodipodi="http://sodipodi.sourceforge.net/DTD/sodipodi-0.dtd"
   xmlns:inkscape="http://www.inkscape.org/namespaces/inkscape"
   version="1.1"
   id="svg4199"
   viewBox="0 0 36 36.000229"
   height="36.000229"
   width="36"
   sodipodi:docname="favicon.svg"
   inkscape:version="0.92.2 (5c3e80d, 2017-08-06)">
  <sodipodi:namedview
     pagecolor="#ffffff"
     bordercolor="#666666"
     borderopacity="1"
     objecttolerance="10"
     gridtolerance="10"
     guidetolerance="10"
     inkscape:pageopacity="0"
     inkscape:pageshadow="2"
     inkscape:window-width="1920"
     inkscape:window-height="1055"
     id="namedview22"
     showgrid="false"
     fit-margin-top="0"
     fit-margin-left="0"
     fit-margin-right="0"
     fit-margin-bottom="0"
     inkscape:zoom="7.1764706"
     inkscape:cx="48.241224"
     inkscape:cy="35.917049"
     inkscape:window-x="0"
     inkscape:window-y="25"
     inkscape:window-maximized="0"
     inkscape:current-layer="svg4199" />
  <defs
     id="defs4201" />
  <metadata
     id="metadata4204">
    <rdf:RDF>
      <cc:Work
         rdf:about="">
        <dc:format>image/svg+xml</dc:format>
        <dc:type
           rdf:resource="http://purl.org/dc/dcmitype/StillImage" />
        <dc:title></dc:title>
      </cc:Work>
    </rdf:RDF>
  </metadata>
  <g
     transform="matrix(2.5667584,0,0,2.5667584,-86.133675,-160.79113)"
     id="g2533">
    <path
       inkscape:connector-curvature="0"
       style="color:#000000;clip-rule:nonzero;display:inline;overflow:visible;visibility:visible;opacity:1;isolation:auto;mix-blend-mode:normal;color-interpolation:sRGB;color-interpolation-filters:linearRGB;solid-color:#000000;solid-opacity:1;fill:#4b0080;fill-opacity:1;fill-rule:nonzero;stroke:none;stroke-width:0.64241016;stroke-linecap:round;stroke-linejoin:round;stroke-miterlimit:4;stroke-dasharray:none;stroke-dashoffset:0;stroke-opacity:1;marker:none;color-rendering:auto;image-rendering:auto;shape-rendering:auto;text-rendering:auto;enable-background:accumulate"
       d="m 41.822227,71.23583 c -0.619803,0 -1.207338,0.04056 -1.743607,0.113333 0.177813,0.160134 0.36862,0.304993 0.567698,0.438466 a 3.956539,1.0240972 0 0 1 1.174882,-0.04769 3.956539,1.0240972 0 0 1 3.956965,1.024114 3.956539,1.0240972 0 0 1 -3.956965,1.024112 3.956539,1.0240972 0 0 1 -3.956451,-1.024112 3.956539,1.0240972 0 0 1 1.928228,-0.878471 c -0.151767,-0.129883 -0.296895,-0.267111 -0.433853,-0.412825 -0.211413,0.04512 -0.412253,0.09544 -0.597442,0.151797 -0.402809,0.122588 -0.740638,0.269874 -0.99847,0.455389 -0.257835,0.185513 -0.451287,0.432103 -0.451287,0.719495 0,0.0084 0.0017,0.01627 0.0021,0.02462 h -0.0047 c 0.0018,0.01083 0.0053,0.02198 0.0071,0.03282 0.0054,0.05877 0.01817,0.115876 0.03846,0.17077 0.004,0.01477 0.0054,0.02927 0.0097,0.0441 0.581717,1.943771 1.994991,3.597472 4.456454,3.597472 2.461467,0 3.884865,-1.685815 4.456969,-3.597472 0.0046,-0.01542 0.0062,-0.03078 0.01026,-0.04615 0.01971,-0.05418 0.03215,-0.110758 0.03743,-0.168717 0.0019,-0.01098 0.0054,-0.02185 0.0071,-0.03282 h -0.0047 c 3.25e-4,-0.0083 0.0021,-0.0162 0.0021,-0.02462 0,-0.287392 -0.191912,-0.533982 -0.449748,-0.719495 -0.257836,-0.185515 -0.595661,-0.332801 -0.998471,-0.455389 -0.80562,-0.245171 -1.87658,-0.388721 -3.060031,-0.388721 z"
       id="path2362" />
    <path
       inkscape:connector-curvature="0"
       style="color:#000000;font-style:normal;font-variant:normal;font-weight:normal;font-stretch:normal;font-size:medium;line-height:normal;font-family:sans-serif;text-indent:0;text-align:start;text-decoration:none;text-decoration-line:none;text-decoration-style:solid;text-decoration-color:#000000;letter-spacing:normal;word-spacing:normal;text-transform:none;writing-mode:lr-tb;direction:ltr;baseline-shift:baseline;text-anchor:start;white-space:normal;clip-rule:nonzero;display:inline;overflow:visible;visibility:visible;opacity:1;isolation:auto;mix-blend-mode:normal;color-interpolation:sRGB;color-interpolation-filters:linearRGB;solid-color:#000000;solid-opacity:1;fill:#a80030;fill-opacity:1;fill-rule:evenodd;stroke:none;stroke-width:0.59486675;stroke-linecap:round;stroke-linejoin:round;stroke-miterlimit:4;stroke-dasharray:none;stroke-dashoffset:0;stroke-opacity:1;color-rendering:auto;image-rendering:auto;shape-rendering:auto;text-rendering:auto;enable-background:accumulate"
       d="m 42.589421,62.69479 c -0.920382,-0.117265 -1.863361,0.09758 -2.655829,0.566028 -1.27347,0.752789 -2.096067,2.1207 -2.310966,3.564847 -0.218268,1.466771 0.172445,3.004432 1.064581,4.188977 0.892136,1.184545 2.261645,1.98452 3.731656,2.179768 a 0.29799258,0.29799258 0 1 0 0.07872,-0.590392 c -1.306125,-0.173481 -2.541635,-0.894873 -3.334312,-1.947359 -0.792678,-1.052487 -1.144185,-2.439656 -0.95025,-3.742903 0.190173,-1.277986 0.92854,-2.493583 2.024203,-3.141265 0.681826,-0.403049 1.498729,-0.586495 2.277229,-0.487309 0.77708,0.099 1.522787,0.488615 2.026078,1.079577 0.527192,0.619023 0.787102,1.477762 0.657866,2.271606 -0.06484,0.398242 -0.224085,0.782216 -0.461069,1.105814 -0.23685,0.323422 -0.554635,0.590096 -0.91464,0.760952 -0.280108,0.132937 -0.587225,0.20825 -0.890274,0.211791 -0.302399,0.0035 -0.605401,-0.06654 -0.86591,-0.206169 -0.37356,-0.20022 -0.668637,-0.562083 -0.777819,-0.965245 -0.108712,-0.401428 -0.03331,-0.861834 0.204295,-1.195779 0.182045,-0.255859 0.46435,-0.448386 0.768447,-0.526668 0.304095,-0.07829 0.642925,-0.04618 0.925887,0.08996 a 0.29799258,0.29799258 0 1 0 0.258647,-0.53604 c -0.413205,-0.198819 -0.890388,-0.245516 -1.334472,-0.131197 -0.444082,0.114317 -0.838096,0.385441 -1.103941,0.759076 -0.348879,0.490331 -0.449983,1.123057 -0.294259,1.698082 0.155255,0.57329 0.554011,1.056802 1.072077,1.334476 0.356568,0.191113 0.756871,0.280203 1.154546,0.275516 0.397024,-0.0046 0.785278,-0.102649 1.137677,-0.269893 0.452868,-0.214928 0.846658,-0.543994 1.141426,-0.946503 0.294637,-0.402327 0.488157,-0.872749 0.567902,-1.362589 0.159919,-0.98232 -0.151344,-2.002287 -0.790939,-2.753293 -0.607129,-0.712886 -1.484748,-1.166424 -2.406553,-1.283869 z"
       id="path1498" />
    <path
       inkscape:connector-curvature="0"
       style="color:#000000;font-style:normal;font-variant:normal;font-weight:normal;font-stretch:normal;font-size:medium;line-height:normal;font-family:sans-serif;text-indent:0;text-align:start;text-decoration:none;text-decoration-line:none;text-decoration-style:solid;text-decoration-color:#000000;letter-spacing:normal;word-spacing:normal;text-transform:none;writing-mode:lr-tb;direction:ltr;baseline-shift:baseline;text-anchor:start;white-space:normal;clip-rule:nonzero;display:inline;overflow:visible;visibility:visible;opacity:1;isolation:auto;mix-blend-mode:normal;color-interpolation:sRGB;color-interpolation-filters:linearRGB;solid-color:#000000;solid-opacity:1;fill:#a80030;fill-opacity:1;fill-rule:evenodd;stroke:none;stroke-width:0.51925528;stroke-linecap:round;stroke-linejoin:round;stroke-miterlimit:4;stroke-dasharray:none;stroke-dashoffset:0;stroke-opacity:1;color-rendering:auto;image-rendering:auto;shape-rendering:auto;text-rendering:auto;enable-background:accumulate"
       d="m 35.178035,62.643715 c -0.207835,0.0032 -0.373927,0.199009 -0.370559,0.437035 l 0.195072,13.381169 c 0,0.138201 0.0905,0.207301 0.181002,0.207301 0.0905,0 0.181001,-0.0691 0.181001,-0.207301 L 35.559625,63.08075 c 0.0034,-0.242984 -0.169432,-0.440981 -0.38159,-0.437035 z"
       id="path2310" />
    <use
       x="0"
       y="0"
       xlink:href="#path2310"
       id="use2337"
       width="100%"
       height="100%"
       transform="translate(1.2531102)" />
  </g>
</svg>
